<svg width="1360" height="242" viewBox="0 0 1360 242" fill="none" xmlns="http://www.w3.org/2000/svg">
<rect x="622.498" y="240.981" width="622.498" height="240.981" rx="22.5233" transform="rotate(-180 622.498 240.981)" fill="#75DA91"/>
<path d="M672.595 233.694C641.672 233.694 612.016 222.173 590.15 201.667C568.284 181.16 556 153.347 556 124.347C556 95.3463 568.284 67.5335 590.15 47.027C612.016 26.5204 641.672 15 672.595 15L672.595 124.347L672.595 233.694Z" fill="#D9D9D9"/>
<rect width="614.272" height="240.977" rx="22.5233" transform="matrix(1 0 0 -1 745.728 241.217)" fill="#75DA91"/>
<path d="M695.751 233.908C725.92 233.908 754.853 222.377 776.186 201.85C797.518 181.323 809.503 153.483 809.503 124.454C809.503 95.4251 797.518 67.585 776.186 47.0584C754.853 26.5317 725.92 15 695.751 15L695.751 124.454L695.751 233.908Z" fill="#D9D9D9"/>
<ellipse cx="681.519" cy="124.5" rx="107.424" ry="109.5" fill="#7647FE"/>
<path d="M621.344 139L640.107 87.9434H645.269L663.194 139H657.056L652.662 124.771H632.295L627.692 139H621.344ZM634.178 119.61H650.849L642.618 95.8251L634.178 119.61ZM688.299 139L691.647 87.9434H698.761L712.362 130.421L725.545 87.9434H732.59L736.495 139H731.334L728.195 97.2898L715.082 139H709.781L696.25 97.2898L693.46 139H688.299Z" fill="white"/>
<path d="M154.544 87.9434H160.194L175.051 130.002L187.675 87.9434H193.534L188.791 104.265L198.068 130.421L211.111 87.9434H216.761L200.788 139H195.627L186.071 112.914L177.631 139H172.47L154.544 87.9434ZM243.608 139V87.9434H248.77V111.728H273.182V87.9434H278.344V139H273.182V116.889H248.77V139H243.608ZM305.176 139L323.939 87.9434H329.1L347.026 139H340.888L336.493 124.771H316.127L311.523 139H305.176ZM318.01 119.61H334.68L326.45 95.8251L318.01 119.61ZM371.432 93.1048V87.9434H406.865V93.1048H391.52V139H386.359V93.1048H371.432Z" fill="#121010"/>
<path d="M984.75 136V84.9434H989.911V136H984.75ZM1015.01 89.6863V85.8501C1015.62 85.7571 1016.73 85.6176 1018.36 85.4316C1019.99 85.1991 1021.03 85.0596 1021.5 85.0131C1021.96 84.9666 1022.96 84.8736 1024.5 84.7341C1026.08 84.5481 1027.1 84.4551 1027.57 84.4551C1028.08 84.4551 1029.19 84.4319 1030.91 84.3854C1032.64 84.2924 1033.89 84.3156 1034.68 84.4551C1039.61 84.4551 1043.14 85.6641 1045.28 88.0821C1047.47 90.4536 1048.56 93.5458 1048.56 97.3588V104.403C1048.56 108.914 1046.98 112.076 1043.82 113.889C1040.7 115.656 1036.63 116.145 1031.61 115.354V122.399H1026.38V111.099H1036.29C1038.24 111.006 1039.91 110.402 1041.31 109.286C1042.75 108.17 1043.47 106.542 1043.47 104.403V97.3588C1043.47 94.6618 1042.73 92.7088 1041.24 91.4998C1039.75 90.2908 1037.31 89.6863 1033.91 89.6863H1015.01ZM1025.47 134.396V130.42C1025.47 129.258 1026.03 128.676 1027.15 128.676H1030.98C1032.05 128.676 1032.59 129.258 1032.59 130.42V134.396C1032.59 135.465 1032.05 136 1030.98 136H1027.15C1026.03 136 1025.47 135.465 1025.47 134.396Z" fill="black"/>
</svg>
