<svg width="489" height="500" viewBox="0 0 489 500" fill="none" xmlns="http://www.w3.org/2000/svg">
<path d="M85.9311 143.845L128.618 81.9211C133.366 75.0335 140.707 70.3696 148.96 68.9989L404.657 26.5264C428.807 22.515 447.782 46.8841 437.974 69.3142L411.944 128.841C407.757 138.415 399.007 145.219 388.696 146.918L116.342 191.788C89.4983 196.21 70.4903 166.244 85.9311 143.845Z" fill="#66AE6E"/>
<path d="M89.0463 157.901L131.733 95.9778C136.481 89.0902 143.823 84.4263 152.075 83.0556L407.773 40.5831C431.923 36.5717 450.898 60.9408 441.089 83.3709L415.06 142.897C410.873 152.472 402.123 159.276 391.812 160.975L119.457 205.844C92.6135 210.267 73.6055 180.3 89.0463 157.901Z" fill="#66AE6E" fill-opacity="0.53"/>
<rect width="317.712" height="57.4068" transform="matrix(0.980928 -0.194371 0.197659 0.980271 104.806 94.9846)" fill="#D9D9D9"/>
<path d="M153.748 95.9091L165.506 93.3025L184.64 120.846L185.169 120.729L190.87 87.6794L202.628 85.0728L212.624 130.165L203.377 132.215L196.87 102.866L196.496 102.948L191.284 134.665L184.987 136.061L166.836 109.408L166.461 109.491L172.993 138.951L163.745 141.001L153.748 95.9091ZM234.653 125.281L227.155 91.4622L236.535 89.3828L244.032 123.202L234.653 125.281ZM230.901 86.0582C229.506 86.3673 228.207 86.1701 227.004 85.4667C225.813 84.7453 225.072 83.7314 224.782 82.425C224.496 81.1333 224.742 79.9161 225.52 78.7733C226.31 77.6126 227.402 76.8777 228.797 76.5686C230.191 76.2594 231.484 76.4655 232.676 77.1869C233.879 77.8904 234.624 78.888 234.91 80.1797C235.2 81.4861 234.95 82.7196 234.16 83.8803C233.382 85.0231 232.295 85.749 230.901 86.0582ZM276.387 80.5479L277.949 87.5935L257.582 92.1086L256.02 85.063L276.387 80.5479ZM258.848 75.9355L268.227 73.8561L275.217 105.385C275.409 106.251 275.691 106.897 276.063 107.323C276.431 107.734 276.871 107.983 277.383 108.07C277.91 108.153 278.489 108.125 279.12 107.985C279.56 107.887 279.992 107.753 280.417 107.582C280.837 107.396 281.16 107.255 281.385 107.159L284.408 113.812C283.971 114.063 283.348 114.378 282.539 114.758C281.733 115.152 280.726 115.506 279.517 115.82C277.276 116.409 275.228 116.548 273.372 116.235C271.531 115.92 269.98 115.139 268.718 113.895C267.457 112.65 266.588 110.917 266.111 108.698L258.848 75.9355ZM304.344 109.831L296.847 76.012L305.94 73.9961L307.248 79.8968L307.6 79.8187C307.751 77.583 308.435 75.7684 309.65 74.3747C310.863 72.9663 312.416 72.0523 314.309 71.6325C314.779 71.5283 315.292 71.4454 315.848 71.3837C316.404 71.3221 316.899 71.297 317.333 71.3087L319.178 79.6313C318.708 79.5968 318.073 79.6144 317.272 79.6842C316.472 79.7539 315.748 79.8603 315.102 80.0035C313.723 80.3094 312.556 80.8837 311.604 81.7263C310.662 82.551 309.993 83.5617 309.596 84.7585C309.214 85.952 309.176 87.2386 309.482 88.6184L313.724 107.752L304.344 109.831ZM353.849 99.526C351.691 100.004 349.685 100.056 347.832 99.6819C345.974 99.2929 344.39 98.4661 343.077 97.2016C341.777 95.9192 340.879 94.1624 340.384 91.9313C339.968 90.0525 339.963 88.3981 340.37 86.9681C340.777 85.5382 341.488 84.3024 342.505 83.2609C343.521 82.2193 344.741 81.3328 346.165 80.6013C347.604 79.8666 349.142 79.233 350.78 78.7005C352.701 78.059 354.244 77.5167 355.409 77.0738C356.57 76.6161 357.382 76.1436 357.843 75.6562C358.305 75.1689 358.456 74.5656 358.297 73.8463L358.268 73.7142C357.958 72.3198 357.279 71.3385 356.229 70.7705C355.194 70.1992 353.876 70.0909 352.276 70.4456C350.588 70.8198 349.328 71.4919 348.496 72.4618C347.66 73.417 347.205 74.4881 347.129 75.6753L338.298 76.8939C338.283 74.7413 338.755 72.7732 339.715 70.9897C340.672 69.1914 342.08 67.6625 343.942 66.4029C345.815 65.1253 348.101 64.1871 350.802 63.5884C352.681 63.1719 354.528 62.9934 356.343 63.053C358.173 63.1094 359.858 63.4519 361.399 64.0805C362.954 64.7058 364.282 65.6589 365.382 66.9396C366.479 68.2056 367.25 69.8441 367.696 71.855L372.753 94.6652L363.858 96.6372L362.818 91.9475L362.554 92.0061C362.245 93.1833 361.725 94.2765 360.994 95.2855C360.26 96.2799 359.304 97.1462 358.128 97.8843C356.949 98.6078 355.522 99.155 353.849 99.526ZM355.1 92.4573C356.48 92.1514 357.638 91.6098 358.574 90.8324C359.508 90.0403 360.171 89.1078 360.565 88.035C360.958 86.9622 361.023 85.8313 360.76 84.6423L359.964 81.0534C359.713 81.3093 359.348 81.575 358.87 81.8503C358.404 82.1078 357.869 82.3725 357.267 82.6445C356.662 82.9019 356.056 83.1519 355.447 83.3946C354.836 83.6226 354.281 83.8302 353.783 84.0175C352.718 84.423 351.814 84.893 351.07 85.4275C350.326 85.9621 349.793 86.5807 349.472 87.2834C349.147 87.9714 349.082 88.7557 349.277 89.6364C349.56 90.9135 350.239 91.7871 351.314 92.2573C352.399 92.7095 353.662 92.7762 355.1 92.4573Z" fill="black"/>
<path d="M76.3933 235.54L169.237 198.616C178.563 194.908 189.11 195.968 197.511 201.459L402.938 335.719C421.808 348.051 421.507 375.799 402.374 387.72L325.489 435.623C315.283 441.982 302.312 441.83 292.257 435.234L70.8719 289.994C49.9951 276.297 53.1922 244.766 76.3933 235.54Z" fill="#FF7474"/>
<path d="M67.384 251.712L160.227 214.789C169.553 211.08 180.101 212.14 188.502 217.631L393.929 351.891C412.798 364.224 412.497 391.972 393.365 403.892L316.48 451.795C306.274 458.154 293.302 458.003 283.248 451.406L61.8626 306.166C40.9858 292.47 44.1829 260.939 67.384 251.712Z" fill="#FF7474" fill-opacity="0.51"/>
<rect width="292.506" height="69.8582" transform="matrix(0.845751 0.534062 -0.513718 0.85781 149.721 185.68)" fill="#D9D9D9"/>
<path d="M163.617 276.008L149.521 267.679L172.668 227.711L186.88 236.109C190.88 238.472 193.86 241.306 195.819 244.612C197.787 247.905 198.684 251.5 198.512 255.397C198.353 259.302 197.071 263.33 194.668 267.48C192.257 271.644 189.401 274.759 186.102 276.826C182.816 278.9 179.253 279.877 175.414 279.757C171.588 279.644 167.655 278.394 163.617 276.008ZM162.121 265.406L167.46 268.561C169.946 270.029 172.292 270.822 174.5 270.939C176.729 271.051 178.813 270.423 180.752 269.054C182.712 267.68 184.555 265.503 186.28 262.524C187.99 259.571 188.955 256.901 189.172 254.515C189.403 252.137 188.927 250.004 187.743 248.118C186.56 246.231 184.726 244.553 182.241 243.085L176.882 239.918L162.121 265.406ZM209.975 304.16C208.072 303.035 206.568 301.701 205.464 300.158C204.367 298.602 203.766 296.911 203.66 295.084C203.574 293.253 204.104 291.348 205.249 289.37C206.213 287.705 207.328 286.486 208.592 285.714C209.855 284.941 211.211 284.52 212.659 284.45C214.107 284.38 215.599 284.563 217.136 285C218.685 285.444 220.239 286.03 221.798 286.759C223.638 287.602 225.134 288.259 226.286 288.73C227.445 289.188 228.358 289.396 229.026 289.353C229.693 289.311 230.211 288.971 230.58 288.334L230.648 288.217C231.364 286.981 231.53 285.795 231.145 284.66C230.773 283.532 229.881 282.551 228.471 281.717C226.982 280.838 225.605 280.47 224.341 280.613C223.084 280.744 222.027 281.219 221.169 282.04L213.881 276.895C215.324 275.303 217 274.18 218.908 273.526C220.823 272.859 222.887 272.699 225.101 273.047C227.335 273.389 229.643 274.264 232.024 275.671C233.681 276.65 235.154 277.782 236.442 279.067C237.744 280.36 238.746 281.764 239.449 283.28C240.165 284.803 240.493 286.412 240.433 288.105C240.381 289.785 239.839 291.517 238.806 293.299L227.097 313.517L219.253 308.882L221.661 304.726L221.428 304.588C220.406 305.242 219.287 305.689 218.07 305.931C216.861 306.159 215.576 306.142 214.216 305.88C212.864 305.605 211.45 305.031 209.975 304.16ZM215.666 299.822C216.883 300.541 218.097 300.935 219.308 301.004C220.526 301.06 221.641 300.829 222.654 300.31C223.667 299.791 224.479 299.004 225.089 297.95L226.932 294.769C226.575 294.786 226.128 294.731 225.592 294.607C225.077 294.477 224.507 294.306 223.883 294.094C223.266 293.869 222.653 293.638 222.043 293.4C221.442 293.149 220.895 292.923 220.405 292.72C219.351 292.29 218.371 292.016 217.465 291.9C216.56 291.784 215.752 291.874 215.042 292.171C214.339 292.454 213.762 292.986 213.31 293.766C212.654 294.898 212.561 296.004 213.03 297.085C213.519 298.16 214.398 299.072 215.666 299.822ZM279.392 304.183L275.775 310.428L257.815 299.816L261.432 293.571L279.392 304.183ZM269.669 288.799L277.94 293.686L261.755 321.633C261.31 322.4 261.08 323.067 261.065 323.634C261.056 324.188 261.211 324.672 261.527 325.086C261.856 325.508 262.299 325.883 262.855 326.212C263.244 326.441 263.651 326.638 264.077 326.803C264.51 326.954 264.842 327.071 265.072 327.155L262.79 334.11C262.3 333.995 261.631 333.801 260.782 333.526C259.926 333.265 258.95 332.836 257.853 332.24C255.814 331.141 254.221 329.841 253.074 328.343C251.939 326.852 251.331 325.217 251.248 323.44C251.166 321.662 251.7 319.795 252.851 317.838L269.669 288.799ZM313.297 324.218L309.68 330.463L291.72 319.85L295.337 313.605L313.297 324.218ZM303.574 308.833L311.845 313.72L295.66 341.667C295.215 342.434 294.985 343.102 294.97 343.669C294.962 344.223 295.116 344.706 295.432 345.12C295.761 345.542 296.204 345.917 296.761 346.246C297.149 346.475 297.556 346.672 297.982 346.837C298.416 346.988 298.747 347.106 298.977 347.189L296.695 354.144C296.205 354.029 295.536 353.835 294.688 353.56C293.831 353.299 292.855 352.87 291.758 352.274C289.719 351.175 288.126 349.875 286.979 348.377C285.844 346.886 285.236 345.251 285.154 343.474C285.071 341.696 285.605 339.829 286.756 337.872L303.574 308.833ZM322.155 370.445C320.253 369.321 318.749 367.987 317.645 366.444C316.548 364.888 315.947 363.197 315.84 361.37C315.755 359.539 316.284 357.634 317.43 355.656C318.394 353.991 319.508 352.772 320.772 352C322.036 351.227 323.392 350.806 324.84 350.736C326.288 350.666 327.78 350.849 329.316 351.286C330.866 351.73 332.42 352.316 333.979 353.045C335.819 353.888 337.314 354.545 338.466 355.016C339.626 355.474 340.539 355.682 341.206 355.639C341.874 355.597 342.392 355.257 342.761 354.62L342.829 354.503C343.545 353.267 343.71 352.081 343.325 350.945C342.953 349.818 342.062 348.837 340.651 348.003C339.163 347.124 337.786 346.756 336.522 346.899C335.265 347.029 334.208 347.505 333.35 348.326L326.062 343.181C327.505 341.589 329.18 340.466 331.088 339.812C333.003 339.145 335.068 338.985 337.281 339.333C339.515 339.675 341.823 340.55 344.205 341.957C345.862 342.936 347.334 344.068 348.623 345.353C349.924 346.646 350.926 348.05 351.63 349.566C352.346 351.089 352.674 352.698 352.614 354.391C352.562 356.071 352.019 357.803 350.987 359.585L339.278 379.803L331.434 375.168L333.841 371.012L333.608 370.874C332.587 371.528 331.468 371.975 330.251 372.217C329.041 372.445 327.757 372.428 326.397 372.166C325.045 371.891 323.631 371.317 322.155 370.445ZM327.847 366.108C329.064 366.826 330.277 367.221 331.488 367.29C332.706 367.346 333.822 367.115 334.835 366.596C335.848 366.077 336.66 365.29 337.27 364.236L339.112 361.055C338.755 361.071 338.309 361.017 337.773 360.893C337.258 360.763 336.688 360.592 336.063 360.38C335.446 360.155 334.833 359.924 334.224 359.686C333.622 359.435 333.076 359.209 332.585 359.006C331.531 358.575 330.552 358.302 329.646 358.186C328.74 358.07 327.932 358.16 327.222 358.456C326.52 358.74 325.942 359.272 325.49 360.052C324.835 361.184 324.741 362.29 325.21 363.371C325.699 364.446 326.578 365.358 327.847 366.108Z" fill="black"/>
</svg>
