<svg xmlns="http://www.w3.org/2000/svg" width="1000" height="1000" id="empty" style=""><rect width="1000" height="1000" x="0" y="0" fill="#010101" transform="matrix(1,0,0,1,0,0)"></rect><g id="horizontal" transform="matrix(1,0,0,1,0,0)"><g id="icon" transform="matrix(0.996456518324207,0,0,0.996456518324207,0.1729216462463512,-0.2503683972205124)"><path fill="#d10809" d="M283.5728621707572 1065.5675139127336C283.5728621707572 1065.5675139127336 395.17286217075724 1172.8675139127336 383.5728621707573 1319.6675139127335C414.37286217075723 1293.7675139127336 545.2728621707572 1183.8675139127336 545.2728621707572 1183.8675139127336L283.5728621707572 1065.5675139127336Z " transform="matrix(0.43258780270593167,0,0,0.43258776403386556,27.689714795049383,2.8370611798306724)"></path><path fill="#d10809" d="M352.97286217075725 1398.9675139127337L685.9728621707573 1258.0675139127336L625.2728621707572 1229.4675139127337C625.2728621707572 1229.4675139127337 636.8728621707572 1014.1675139127336 636.5728621707572 908.9675139127337C519.4728621707573 1262.9675139127337 352.97286217075725 1398.9675139127337 352.97286217075725 1398.9675139127337Z " transform="matrix(0.43258780270593167,0,0,0.43258776403386556,27.689714795049383,2.8370611798306724)"></path><g transform="matrix(1.297763408117795,0,0,1.2977632921015967,27.689714795049383,2.8370611798306724)"></g></g><g id="logo" transform="matrix(0.996456518324207,0,0,0.996456518324207,254.14295218774984,-0.2503683972205124)"><g id="brand" fill="#ececec" transform="matrix(1,0,0,1,0,0)"><g transform="matrix(1,0,0,1,0,0)"><path id="text" transform="matrix(1 0 0 1 -7.488 69.696)" d="M109.71994906067852 466.07733215224096C109.27194906067852 465.66133215224096 109.04794906067852 465.10133215224096 109.04794906067852 464.397332152241L109.04794906067852 401.90133215224097C109.04794906067852 401.19733215224096 109.27194906067852 400.621332152241 109.71994906067852 400.17333215224096C110.16794906067852 399.725332152241 110.74394906067852 399.501332152241 111.44794906067852 399.501332152241L119.03194906067853 399.501332152241C120.37594906067852 399.501332152241 121.33594906067852 400.109332152241 121.91194906067852 401.325332152241L140.43994906067852 435.885332152241L159.1599490606785 401.325332152241C159.79994906067853 400.109332152241 160.75994906067854 399.501332152241 162.0399490606785 399.501332152241L169.5279490606785 399.501332152241C170.23194906067852 399.501332152241 170.80794906067854 399.725332152241 171.25594906067852 400.17333215224096C171.70394906067853 400.621332152241 171.92794906067851 401.19733215224096 171.92794906067851 401.90133215224097L171.92794906067851 464.397332152241C171.92794906067851 465.10133215224096 171.70394906067853 465.66133215224096 171.25594906067852 466.07733215224096C170.80794906067854 466.49333215224095 170.23194906067852 466.701332152241 169.5279490606785 466.701332152241L161.46394906067852 466.701332152241C160.82394906067853 466.701332152241 160.27994906067852 466.477332152241 159.8319490606785 466.02933215224095C159.3839490606785 465.581332152241 159.1599490606785 465.037332152241 159.1599490606785 464.397332152241L159.1599490606785 422.82933215224097L145.71994906067852 448.46133215224097C144.88794906067852 449.869332152241 143.79994906067853 450.573332152241 142.4559490606785 450.573332152241L138.51994906067853 450.573332152241C137.17594906067853 450.573332152241 136.0879490606785 449.869332152241 135.25594906067852 448.46133215224097L121.81594906067852 422.82933215224097L121.81594906067852 464.397332152241C121.81594906067852 465.037332152241 121.60794906067852 465.581332152241 121.19194906067852 466.02933215224095C120.77594906067853 466.477332152241 120.21594906067853 466.701332152241 119.51194906067852 466.701332152241L111.44794906067852 466.701332152241C110.74394906067852 466.701332152241 110.16794906067852 466.49333215224095 109.71994906067852 466.07733215224096ZM185.07994906067853 407.85333215224097C184.63194906067852 407.405332152241 184.4079490606785 406.86133215224095 184.4079490606785 406.22133215224096L184.4079490606785 399.309332152241C184.4079490606785 398.669332152241 184.63194906067852 398.12533215224096 185.07994906067853 397.677332152241C185.5279490606785 397.229332152241 186.07194906067852 397.00533215224095 186.71194906067853 397.00533215224095L195.44794906067852 397.00533215224095C196.0879490606785 397.00533215224095 196.6479490606785 397.229332152241 197.12794906067853 397.677332152241C197.60794906067852 398.12533215224096 197.8479490606785 398.669332152241 197.8479490606785 399.309332152241L197.8479490606785 406.22133215224096C197.8479490606785 406.86133215224095 197.6239490606785 407.405332152241 197.17594906067853 407.85333215224097C196.72794906067853 408.301332152241 196.15194906067853 408.525332152241 195.44794906067852 408.525332152241L186.71194906067853 408.525332152241C186.07194906067852 408.525332152241 185.5279490606785 408.301332152241 185.07994906067853 407.85333215224097ZM185.46394906067852 466.02933215224095C185.0159490606785 465.581332152241 184.79194906067852 465.037332152241 184.79194906067852 464.397332152241L184.79194906067852 419.085332152241C184.79194906067852 418.445332152241 185.0159490606785 417.90133215224097 185.46394906067852 417.453332152241C185.91194906067852 417.00533215224095 186.4559490606785 416.78133215224096 187.09594906067852 416.78133215224096L195.0639490606785 416.78133215224096C195.76794906067852 416.78133215224096 196.32794906067852 416.989332152241 196.74394906067852 417.405332152241C197.1599490606785 417.821332152241 197.36794906067854 418.381332152241 197.36794906067854 419.085332152241L197.36794906067854 464.397332152241C197.36794906067854 465.037332152241 197.1599490606785 465.581332152241 196.74394906067852 466.02933215224095C196.32794906067852 466.477332152241 195.76794906067852 466.701332152241 195.0639490606785 466.701332152241L187.09594906067852 466.701332152241C186.4559490606785 466.701332152241 185.91194906067852 466.477332152241 185.46394906067852 466.02933215224095ZM218.63194906067852 462.141332152241C215.71994906067852 459.10133215224096 214.2639490606785 454.63733215224096 214.2639490606785 448.749332152241L214.2639490606785 426.95733215224095L206.67994906067852 426.95733215224095C206.0399490606785 426.95733215224095 205.49594906067853 426.717332152241 205.04794906067852 426.237332152241C204.5999490606785 425.75733215224096 204.37594906067852 425.19733215224096 204.37594906067852 424.557332152241L204.37594906067852 419.085332152241C204.37594906067852 418.445332152241 204.5999490606785 417.90133215224097 205.04794906067852 417.453332152241C205.49594906067853 417.00533215224095 206.0399490606785 416.78133215224096 206.67994906067852 416.78133215224096L214.2639490606785 416.78133215224096L214.2639490606785 400.845332152241C214.2639490606785 400.141332152241 214.48794906067852 399.581332152241 214.93594906067852 399.165332152241C215.3839490606785 398.749332152241 215.92794906067851 398.541332152241 216.56794906067853 398.541332152241L224.34394906067854 398.541332152241C225.04794906067852 398.541332152241 225.60794906067852 398.749332152241 226.02394906067852 399.165332152241C226.43994906067852 399.581332152241 226.6479490606785 400.141332152241 226.6479490606785 400.845332152241L226.6479490606785 416.78133215224096L238.6479490606785 416.78133215224096C239.35194906067852 416.78133215224096 239.91194906067852 416.989332152241 240.32794906067852 417.405332152241C240.74394906067852 417.821332152241 240.95194906067852 418.381332152241 240.95194906067852 419.085332152241L240.95194906067852 424.557332152241C240.95194906067852 425.261332152241 240.72794906067853 425.837332152241 240.27994906067852 426.285332152241C239.8319490606785 426.73333215224096 239.28794906067853 426.95733215224095 238.6479490606785 426.95733215224095L226.6479490606785 426.95733215224095L226.6479490606785 447.789332152241C226.6479490606785 450.54133215224095 227.12794906067853 452.621332152241 228.0879490606785 454.02933215224095C229.04794906067852 455.43733215224097 230.6479490606785 456.141332152241 232.88794906067852 456.141332152241L239.51194906067852 456.141332152241C240.15194906067853 456.141332152241 240.69594906067852 456.36533215224097 241.14394906067852 456.813332152241C241.59194906067853 457.261332152241 241.81594906067852 457.80533215224096 241.81594906067852 458.445332152241L241.81594906067852 464.397332152241C241.81594906067852 465.037332152241 241.60794906067852 465.581332152241 241.19194906067852 466.02933215224095C240.77594906067853 466.477332152241 240.21594906067853 466.701332152241 239.51194906067852 466.701332152241L231.7359490606785 466.701332152241C225.91194906067852 466.701332152241 221.54394906067853 465.181332152241 218.63194906067852 462.141332152241ZM250.07194906067852 466.02933215224095C249.6239490606785 465.581332152241 249.39994906067852 465.037332152241 249.39994906067852 464.397332152241L249.39994906067852 419.181332152241C249.39994906067852 418.541332152241 249.6239490606785 417.98133215224095 250.07194906067852 417.501332152241C250.51994906067853 417.021332152241 251.0639490606785 416.78133215224096 251.70394906067853 416.78133215224096L259.4799490606785 416.78133215224096C260.1839490606785 416.78133215224096 260.75994906067854 417.00533215224095 261.2079490606785 417.453332152241C261.6559490606785 417.90133215224097 261.87994906067854 418.477332152241 261.87994906067854 419.181332152241L261.87994906067854 423.117332152241C263.4159490606785 421.069332152241 265.3519490606785 419.501332152241 267.68794906067853 418.41333215224097C270.02394906067855 417.325332152241 272.6959490606785 416.78133215224096 275.7039490606785 416.78133215224096L279.63994906067853 416.78133215224096C280.3439490606785 416.78133215224096 280.90394906067854 416.989332152241 281.3199490606785 417.405332152241C281.73594906067854 417.821332152241 281.9439490606785 418.381332152241 281.9439490606785 419.085332152241L281.9439490606785 425.997332152241C281.9439490606785 426.63733215224096 281.73594906067854 427.181332152241 281.3199490606785 427.629332152241C280.90394906067854 428.07733215224096 280.3439490606785 428.301332152241 279.63994906067853 428.301332152241L272.15194906067853 428.301332152241C269.14394906067855 428.301332152241 266.7759490606785 429.165332152241 265.04794906067855 430.893332152241C263.3199490606785 432.621332152241 262.4559490606785 434.989332152241 262.4559490606785 437.997332152241L262.4559490606785 464.397332152241C262.4559490606785 465.037332152241 262.2319490606785 465.581332152241 261.78394906067854 466.02933215224095C261.33594906067856 466.477332152241 260.75994906067854 466.701332152241 260.05594906067853 466.701332152241L251.70394906067853 466.701332152241C251.0639490606785 466.701332152241 250.51994906067853 466.477332152241 250.07194906067852 466.02933215224095ZM293.2239490606785 465.693332152241C290.5039490606785 464.381332152241 288.35994906067856 462.605332152241 286.7919490606785 460.36533215224097C285.2239490606785 458.12533215224096 284.4399490606785 455.66133215224096 284.4399490606785 452.97333215224097C284.4399490606785 448.621332152241 286.1999490606785 445.10133215224096 289.7199490606785 442.41333215224097C293.23994906067855 439.725332152241 298.07194906067855 437.90133215224097 304.21594906067855 436.941332152241L317.3679490606785 435.021332152241L317.3679490606785 433.00533215224095C317.3679490606785 430.189332152241 316.66394906067853 428.07733215224096 315.2559490606785 426.669332152241C313.8479490606785 425.261332152241 311.5759490606785 424.557332152241 308.4399490606785 424.557332152241C306.3279490606785 424.557332152241 304.61594906067853 424.95733215224095 303.3039490606785 425.75733215224096C301.9919490606785 426.557332152241 300.95194906067854 427.34133215224097 300.1839490606785 428.109332152241C299.4159490606785 428.941332152241 298.90394906067854 429.48533215224097 298.6479490606785 429.741332152241C298.3919490606785 430.509332152241 297.9119490606785 430.893332152241 297.2079490606785 430.893332152241L289.8159490606785 430.893332152241C289.23994906067855 430.893332152241 288.7439490606785 430.701332152241 288.3279490606785 430.31733215224097C287.9119490606785 429.93333215224095 287.7039490606785 429.421332152241 287.7039490606785 428.78133215224096C287.7679490606785 427.181332152241 288.5519490606785 425.357332152241 290.05594906067853 423.309332152241C291.5599490606785 421.261332152241 293.87994906067854 419.501332152241 297.0159490606785 418.02933215224095C300.15194906067853 416.557332152241 303.9919490606785 415.821332152241 308.5359490606785 415.821332152241C316.0879490606785 415.821332152241 321.59194906067853 417.517332152241 325.04794906067855 420.90933215224095C328.5039490606785 424.301332152241 330.2319490606785 428.749332152241 330.2319490606785 434.253332152241L330.2319490606785 464.397332152241C330.2319490606785 465.037332152241 330.02394906067855 465.581332152241 329.6079490606785 466.02933215224095C329.19194906067855 466.477332152241 328.6319490606785 466.701332152241 327.92794906067854 466.701332152241L320.15194906067853 466.701332152241C319.5119490606785 466.701332152241 318.9679490606785 466.477332152241 318.5199490606785 466.02933215224095C318.07194906067855 465.581332152241 317.8479490606785 465.037332152241 317.8479490606785 464.397332152241L317.8479490606785 460.653332152241C316.4399490606785 462.701332152241 314.4399490606785 464.381332152241 311.8479490606785 465.693332152241C309.2559490606785 467.00533215224095 306.0399490606785 467.66133215224096 302.1999490606785 467.66133215224096C298.9359490606785 467.66133215224096 295.9439490606785 467.00533215224095 293.2239490606785 465.693332152241ZM314.10394906067853 455.085332152241C316.3439490606785 452.78133215224096 317.4639490606785 449.421332152241 317.4639490606785 445.00533215224095L317.4639490606785 442.989332152241L307.8639490606785 444.525332152241C304.15194906067853 445.10133215224096 301.3519490606785 446.02933215224095 299.4639490606785 447.309332152241C297.5759490606785 448.58933215224096 296.6319490606785 450.157332152241 296.6319490606785 452.013332152241C296.6319490606785 454.061332152241 297.4959490606785 455.66133215224096 299.2239490606785 456.813332152241C300.95194906067854 457.965332152241 303.0319490606785 458.54133215224095 305.4639490606785 458.54133215224095C308.9839490606785 458.54133215224095 311.8639490606785 457.38933215224097 314.10394906067853 455.085332152241ZM364.40794906067856 466.02933215224095C363.95994906067847 465.581332152241 363.73594906067854 465.037332152241 363.73594906067854 464.397332152241L363.73594906067854 401.90133215224097C363.73594906067854 401.19733215224096 363.9439490606785 400.621332152241 364.35994906067856 400.17333215224096C364.7759490606785 399.725332152241 365.33594906067856 399.501332152241 366.0399490606785 399.501332152241L389.4639490606785 399.501332152241C408.2799490606785 399.501332152241 417.87994906067854 408.205332152241 418.26394906067856 425.61333215224096C418.3919490606785 429.325332152241 418.45594906067856 431.821332152241 418.45594906067856 433.10133215224096C418.45594906067856 434.31733215224097 418.3919490606785 436.78133215224096 418.26394906067856 440.493332152241C418.00794906067847 449.453332152241 415.6079490606785 456.061332152241 411.0639490606785 460.31733215224097C406.5199490606785 464.573332152241 399.47994906067856 466.701332152241 389.9439490606785 466.701332152241L366.0399490606785 466.701332152241C365.3999490606785 466.701332152241 364.85594906067854 466.477332152241 364.40794906067856 466.02933215224095ZM389.4639490606785 455.66133215224096C394.83994906067846 455.66133215224096 398.71194906067853 454.46133215224097 401.0799490606785 452.061332152241C403.4479490606785 449.66133215224096 404.6959490606786 445.70933215224096 404.8239490606785 440.205332152241C404.95194906067854 436.36533215224097 405.0159490606785 433.965332152241 405.0159490606785 433.00533215224095C405.0159490606785 431.98133215224095 404.95194906067854 429.61333215224096 404.8239490606785 425.90133215224097C404.6959490606786 420.653332152241 403.3679490606785 416.78133215224096 400.83994906067846 414.285332152241C398.31194906067856 411.789332152241 394.35994906067856 410.541332152241 388.98394906067847 410.541332152241L377.0799490606785 410.541332152241L377.0799490606785 455.66133215224096L389.4639490606785 455.66133215224096ZM434.6319490606785 465.693332152241C431.91194906067847 464.381332152241 429.7679490606786 462.605332152241 428.1999490606785 460.36533215224097C426.6319490606785 458.12533215224096 425.8479490606785 455.66133215224096 425.8479490606785 452.97333215224097C425.8479490606785 448.621332152241 427.6079490606785 445.10133215224096 431.1279490606785 442.41333215224097C434.64794906067857 439.725332152241 439.47994906067856 437.90133215224097 445.62394906067857 436.941332152241L458.7759490606785 435.021332152241L458.7759490606785 433.00533215224095C458.7759490606785 430.189332152241 458.07194906067855 428.07733215224096 456.66394906067853 426.669332152241C455.2559490606785 425.261332152241 452.98394906067847 424.557332152241 449.8479490606785 424.557332152241C447.73594906067854 424.557332152241 446.02394906067855 424.95733215224095 444.71194906067853 425.75733215224096C443.3999490606785 426.557332152241 442.35994906067856 427.34133215224097 441.59194906067853 428.109332152241C440.8239490606785 428.941332152241 440.31194906067856 429.48533215224097 440.0559490606785 429.741332152241C439.7999490606785 430.509332152241 439.3199490606785 430.893332152241 438.61594906067853 430.893332152241L431.2239490606785 430.893332152241C430.64794906067857 430.893332152241 430.1519490606785 430.701332152241 429.73594906067854 430.31733215224097C429.3199490606785 429.93333215224095 429.1119490606785 429.421332152241 429.1119490606785 428.78133215224096C429.1759490606785 427.181332152241 429.95994906067847 425.357332152241 431.4639490606785 423.309332152241C432.9679490606785 421.261332152241 435.28794906067856 419.501332152241 438.4239490606785 418.02933215224095C441.5599490606785 416.557332152241 445.3999490606785 415.821332152241 449.9439490606785 415.821332152241C457.4959490606785 415.821332152241 462.99994906067855 417.517332152241 466.45594906067856 420.90933215224095C469.91194906067847 424.301332152241 471.63994906067853 428.749332152241 471.63994906067853 434.253332152241L471.63994906067853 464.397332152241C471.63994906067853 465.037332152241 471.43194906067856 465.581332152241 471.0159490606785 466.02933215224095C470.59994906067857 466.477332152241 470.0399490606785 466.701332152241 469.33594906067856 466.701332152241L461.5599490606785 466.701332152241C460.9199490606785 466.701332152241 460.3759490606785 466.477332152241 459.92794906067854 466.02933215224095C459.47994906067856 465.581332152241 459.2559490606785 465.037332152241 459.2559490606785 464.397332152241L459.2559490606785 460.653332152241C457.8479490606785 462.701332152241 455.8479490606785 464.381332152241 453.2559490606785 465.693332152241C450.66394906067853 467.00533215224095 447.4479490606785 467.66133215224096 443.6079490606785 467.66133215224096C440.3439490606785 467.66133215224096 437.3519490606785 467.00533215224095 434.6319490606785 465.693332152241ZM455.5119490606785 455.085332152241C457.7519490606785 452.78133215224096 458.8719490606785 449.421332152241 458.8719490606785 445.00533215224095L458.8719490606785 442.989332152241L449.2719490606785 444.525332152241C445.5599490606785 445.10133215224096 442.75994906067854 446.02933215224095 440.8719490606785 447.309332152241C438.98394906067847 448.58933215224096 438.0399490606785 450.157332152241 438.0399490606785 452.013332152241C438.0399490606785 454.061332152241 438.90394906067854 455.66133215224096 440.6319490606785 456.813332152241C442.35994906067856 457.965332152241 444.4399490606785 458.54133215224095 446.8719490606785 458.54133215224095C450.3919490606785 458.54133215224095 453.2719490606785 457.38933215224097 455.5119490606785 455.085332152241ZM491.9439490606785 462.141332152241C489.03194906067847 459.10133215224096 487.57594906067857 454.63733215224096 487.57594906067857 448.749332152241L487.57594906067857 426.95733215224095L479.9919490606785 426.95733215224095C479.3519490606785 426.95733215224095 478.80794906067854 426.717332152241 478.35994906067856 426.237332152241C477.91194906067847 425.75733215224096 477.68794906067853 425.19733215224096 477.68794906067853 424.557332152241L477.68794906067853 419.085332152241C477.68794906067853 418.445332152241 477.91194906067847 417.90133215224097 478.35994906067856 417.453332152241C478.80794906067854 417.00533215224095 479.3519490606785 416.78133215224096 479.9919490606785 416.78133215224096L487.57594906067857 416.78133215224096L487.57594906067857 400.845332152241C487.57594906067857 400.141332152241 487.7999490606785 399.581332152241 488.2479490606785 399.165332152241C488.6959490606786 398.749332152241 489.23994906067855 398.541332152241 489.87994906067854 398.541332152241L497.6559490606785 398.541332152241C498.35994906067856 398.541332152241 498.9199490606785 398.749332152241 499.33594906067856 399.165332152241C499.7519490606785 399.581332152241 499.95994906067847 400.141332152241 499.95994906067847 400.845332152241L499.95994906067847 416.78133215224096L511.95994906067847 416.78133215224096C512.6639490606785 416.78133215224096 513.2239490606785 416.989332152241 513.6399490606785 417.405332152241C514.0559490606785 417.821332152241 514.2639490606786 418.381332152241 514.2639490606786 419.085332152241L514.2639490606786 424.557332152241C514.2639490606786 425.261332152241 514.0399490606785 425.837332152241 513.5919490606785 426.285332152241C513.1439490606786 426.73333215224096 512.5999490606786 426.95733215224095 511.95994906067847 426.95733215224095L499.95994906067847 426.95733215224095L499.95994906067847 447.789332152241C499.95994906067847 450.54133215224095 500.4399490606785 452.621332152241 501.3999490606785 454.02933215224095C502.35994906067856 455.43733215224097 503.95994906067847 456.141332152241 506.1999490606785 456.141332152241L512.8239490606785 456.141332152241C513.4639490606785 456.141332152241 514.0079490606785 456.36533215224097 514.4559490606786 456.813332152241C514.9039490606785 457.261332152241 515.1279490606785 457.80533215224096 515.1279490606785 458.445332152241L515.1279490606785 464.397332152241C515.1279490606785 465.037332152241 514.9199490606785 465.581332152241 514.5039490606786 466.02933215224095C514.0879490606785 466.477332152241 513.5279490606786 466.701332152241 512.8239490606785 466.701332152241L505.04794906067855 466.701332152241C499.2239490606785 466.701332152241 494.85594906067854 465.181332152241 491.9439490606785 462.141332152241ZM532.1679490606786 462.141332152241C529.2559490606785 459.10133215224096 527.7999490606785 454.63733215224096 527.7999490606785 448.749332152241L527.7999490606785 426.95733215224095L520.2159490606786 426.95733215224095C519.5759490606786 426.95733215224095 519.0319490606785 426.717332152241 518.5839490606785 426.237332152241C518.1359490606785 425.75733215224096 517.9119490606785 425.19733215224096 517.9119490606785 424.557332152241L517.9119490606785 419.085332152241C517.9119490606785 418.445332152241 518.1359490606785 417.90133215224097 518.5839490606785 417.453332152241C519.0319490606785 417.00533215224095 519.5759490606786 416.78133215224096 520.2159490606786 416.78133215224096L527.7999490606785 416.78133215224096L527.7999490606785 400.845332152241C527.7999490606785 400.141332152241 528.0239490606785 399.581332152241 528.4719490606785 399.165332152241C528.9199490606785 398.749332152241 529.4639490606785 398.541332152241 530.1039490606785 398.541332152241L537.8799490606785 398.541332152241C538.5839490606785 398.541332152241 539.1439490606786 398.749332152241 539.5599490606785 399.165332152241C539.9759490606785 399.581332152241 540.1839490606785 400.141332152241 540.1839490606785 400.845332152241L540.1839490606785 416.78133215224096L552.1839490606785 416.78133215224096C552.8879490606785 416.78133215224096 553.4479490606785 416.989332152241 553.8639490606785 417.405332152241C554.2799490606785 417.821332152241 554.4879490606785 418.381332152241 554.4879490606785 419.085332152241L554.4879490606785 424.557332152241C554.4879490606785 425.261332152241 554.2639490606786 425.837332152241 553.8159490606785 426.285332152241C553.3679490606785 426.73333215224096 552.8239490606785 426.95733215224095 552.1839490606785 426.95733215224095L540.1839490606785 426.95733215224095L540.1839490606785 447.789332152241C540.1839490606785 450.54133215224095 540.6639490606785 452.621332152241 541.6239490606786 454.02933215224095C542.5839490606785 455.43733215224097 544.1839490606785 456.141332152241 546.4239490606785 456.141332152241L553.0479490606785 456.141332152241C553.6879490606785 456.141332152241 554.2319490606785 456.36533215224097 554.6799490606785 456.813332152241C555.1279490606785 457.261332152241 555.3519490606785 457.80533215224096 555.3519490606785 458.445332152241L555.3519490606785 464.397332152241C555.3519490606785 465.037332152241 555.1439490606786 465.581332152241 554.7279490606785 466.02933215224095C554.3119490606786 466.477332152241 553.7519490606785 466.701332152241 553.0479490606785 466.701332152241L545.2719490606785 466.701332152241C539.4479490606785 466.701332152241 535.0799490606785 465.181332152241 532.1679490606786 462.141332152241ZM568.4559490606786 465.693332152241C565.7359490606785 464.381332152241 563.5919490606785 462.605332152241 562.0239490606785 460.36533215224097C560.4559490606786 458.12533215224096 559.6719490606786 455.66133215224096 559.6719490606786 452.97333215224097C559.6719490606786 448.621332152241 561.4319490606786 445.10133215224096 564.9519490606785 442.41333215224097C568.4719490606785 439.725332152241 573.3039490606785 437.90133215224097 579.4479490606785 436.941332152241L592.5999490606786 435.021332152241L592.5999490606786 433.00533215224095C592.5999490606786 430.189332152241 591.8959490606785 428.07733215224096 590.4879490606785 426.669332152241C589.0799490606785 425.261332152241 586.8079490606785 424.557332152241 583.6719490606786 424.557332152241C581.5599490606785 424.557332152241 579.8479490606785 424.95733215224095 578.5359490606785 425.75733215224096C577.2239490606785 426.557332152241 576.1839490606785 427.34133215224097 575.4159490606785 428.109332152241C574.6479490606786 428.941332152241 574.1359490606785 429.48533215224097 573.8799490606785 429.741332152241C573.6239490606786 430.509332152241 573.1439490606786 430.893332152241 572.4399490606785 430.893332152241L565.0479490606785 430.893332152241C564.4719490606785 430.893332152241 563.9759490606785 430.701332152241 563.5599490606785 430.31733215224097C563.1439490606786 429.93333215224095 562.9359490606785 429.421332152241 562.9359490606785 428.78133215224096C562.9999490606785 427.181332152241 563.7839490606785 425.357332152241 565.2879490606786 423.309332152241C566.7919490606786 421.261332152241 569.1119490606785 419.501332152241 572.2479490606785 418.02933215224095C575.3839490606786 416.557332152241 579.2239490606785 415.821332152241 583.7679490606786 415.821332152241C591.3199490606785 415.821332152241 596.8239490606785 417.517332152241 600.2799490606785 420.90933215224095C603.7359490606785 424.301332152241 605.4639490606785 428.749332152241 605.4639490606785 434.253332152241L605.4639490606785 464.397332152241C605.4639490606785 465.037332152241 605.2559490606785 465.581332152241 604.8399490606785 466.02933215224095C604.4239490606785 466.477332152241 603.8639490606785 466.701332152241 603.1599490606785 466.701332152241L595.3839490606786 466.701332152241C594.7439490606786 466.701332152241 594.1999490606785 466.477332152241 593.7519490606785 466.02933215224095C593.3039490606785 465.581332152241 593.0799490606785 465.037332152241 593.0799490606785 464.397332152241L593.0799490606785 460.653332152241C591.6719490606786 462.701332152241 589.6719490606786 464.381332152241 587.0799490606785 465.693332152241C584.4879490606785 467.00533215224095 581.2719490606785 467.66133215224096 577.4319490606786 467.66133215224096C574.1679490606786 467.66133215224096 571.1759490606785 467.00533215224095 568.4559490606786 465.693332152241ZM589.3359490606786 455.085332152241C591.5759490606786 452.78133215224096 592.6959490606786 449.421332152241 592.6959490606786 445.00533215224095L592.6959490606786 442.989332152241L583.0959490606785 444.525332152241C579.3839490606786 445.10133215224096 576.5839490606785 446.02933215224095 574.6959490606786 447.309332152241C572.8079490606785 448.58933215224096 571.8639490606785 450.157332152241 571.8639490606785 452.013332152241C571.8639490606785 454.061332152241 572.7279490606785 455.66133215224096 574.4559490606786 456.813332152241C576.1839490606785 457.965332152241 578.2639490606786 458.54133215224095 580.6959490606786 458.54133215224095C584.2159490606786 458.54133215224095 587.0959490606785 457.38933215224097 589.3359490606786 455.085332152241Z "></path></g></g></g></g></svg>