<svg width="769" height="384" viewBox="0 0 769 384" fill="none" xmlns="http://www.w3.org/2000/svg">
<path d="M85.4283 263.408L181.403 128.74C186.636 121.397 194.572 116.433 203.464 114.941L661.577 38.0681C688.442 33.5601 709.435 60.8961 698.147 85.6879L639.379 214.765C634.689 225.065 625.182 232.356 614.019 234.215L118.7 316.679C88.8407 321.65 67.8604 288.059 85.4283 263.408Z" fill="#66AE6E"/>
<path d="M90.4064 285.863L186.381 151.195C191.614 143.852 199.55 138.888 208.442 137.396L666.555 60.5229C693.42 56.0149 714.413 83.3509 703.125 108.143L644.357 237.22C639.667 247.52 630.16 254.811 618.997 256.67L123.678 339.134C93.8188 344.105 72.8384 310.514 90.4064 285.863Z" fill="#66AE6E" fill-opacity="0.53"/>
<rect width="523.719" height="91.7062" transform="matrix(0.980793 -0.195054 0.197058 0.980392 137.897 155.749)" fill="#D9D9D9"/>
<path d="M212.747 165.989L230.52 162.049L259.445 203.685L260.243 203.508L268.862 153.549L286.635 149.609L301.746 217.772L287.768 220.871L277.932 176.505L277.366 176.63L269.488 224.574L259.969 226.684L232.531 186.396L231.965 186.521L241.837 231.053L227.859 234.152L212.747 165.989ZM335.046 210.39L323.712 159.267L337.891 156.124L349.224 207.246L335.046 210.39ZM329.374 151.098C327.266 151.565 325.303 151.267 323.484 150.204C321.682 149.114 320.563 147.581 320.125 145.606C319.692 143.653 320.064 141.813 321.241 140.086C322.435 138.331 324.086 137.221 326.194 136.753C328.302 136.286 330.256 136.597 332.058 137.688C333.876 138.751 335.002 140.259 335.435 142.212C335.873 144.187 335.495 146.051 334.301 147.806C333.124 149.533 331.482 150.631 329.374 151.098ZM398.133 142.769L400.494 153.419L369.707 160.244L367.346 149.594L398.133 142.769ZM371.62 135.796L385.799 132.653L396.365 180.314C396.655 181.623 397.081 182.599 397.643 183.243C398.2 183.865 398.865 184.241 399.639 184.372C400.435 184.498 401.31 184.455 402.264 184.244C402.93 184.096 403.583 183.893 404.224 183.635C404.861 183.354 405.349 183.141 405.689 182.996L410.258 193.052C409.597 193.431 408.655 193.908 407.432 194.482C406.214 195.077 404.692 195.613 402.865 196.088C399.477 196.978 396.381 197.188 393.576 196.715C390.793 196.238 388.448 195.059 386.541 193.177C384.634 191.295 383.32 188.676 382.6 185.321L371.62 135.796ZM440.394 187.034L429.061 135.912L442.807 132.865L444.784 141.784L445.317 141.666C445.545 138.287 446.578 135.544 448.416 133.437C450.248 131.308 452.596 129.926 455.458 129.292C456.168 129.134 456.944 129.009 457.784 128.916C458.625 128.822 459.373 128.784 460.029 128.802L462.818 141.383C462.108 141.331 461.148 141.357 459.937 141.463C458.727 141.568 457.634 141.729 456.657 141.946C454.572 142.408 452.809 143.276 451.368 144.55C449.945 145.796 448.934 147.324 448.334 149.133C447.756 150.938 447.698 152.883 448.161 154.968L454.573 183.891L440.394 187.034ZM515.228 171.457C511.967 172.18 508.935 172.258 506.132 171.692C503.325 171.104 500.929 169.855 498.946 167.943C496.979 166.005 495.622 163.349 494.875 159.976C494.245 157.136 494.238 154.635 494.853 152.474C495.468 150.312 496.543 148.444 498.08 146.87C499.616 145.295 501.461 143.955 503.614 142.849C505.788 141.739 508.114 140.781 510.589 139.976C513.493 139.006 515.826 138.186 517.586 137.517C519.342 136.825 520.568 136.111 521.266 135.374C521.964 134.637 522.193 133.725 521.952 132.638L521.908 132.438C521.44 130.331 520.413 128.847 518.826 127.989C517.261 127.125 515.269 126.961 512.851 127.497C510.299 128.063 508.394 129.079 507.136 130.545C505.873 131.989 505.185 133.608 505.071 135.403L491.721 137.245C491.698 133.991 492.412 131.016 493.863 128.32C495.309 125.602 497.438 123.29 500.252 121.386C503.083 119.455 506.54 118.037 510.623 117.132C513.463 116.502 516.255 116.232 518.998 116.322C521.764 116.408 524.311 116.925 526.641 117.876C528.992 118.821 530.999 120.262 532.662 122.198C534.32 124.111 535.486 126.588 536.16 129.628L543.804 164.109L530.358 167.09L528.786 160.001L528.387 160.089C527.92 161.869 527.134 163.521 526.029 165.047C524.919 166.55 523.475 167.859 521.697 168.975C519.914 170.069 517.758 170.896 515.228 171.457ZM517.12 160.771C519.205 160.309 520.956 159.49 522.372 158.315C523.782 157.118 524.785 155.708 525.38 154.086C525.975 152.465 526.073 150.755 525.675 148.958L524.472 143.533C524.092 143.92 523.541 144.321 522.818 144.737C522.113 145.126 521.306 145.527 520.396 145.938C519.481 146.327 518.564 146.705 517.644 147.072C516.72 147.416 515.881 147.73 515.129 148.013C513.519 148.626 512.152 149.337 511.027 150.145C509.903 150.953 509.098 151.888 508.612 152.95C508.12 153.99 508.022 155.176 508.318 156.507C508.746 158.438 509.772 159.758 511.396 160.469C513.037 161.153 514.945 161.253 517.12 160.771Z" fill="black"/>
</svg>
