<svg width="258" height="251" viewBox="0 0 258 251" fill="none" xmlns="http://www.w3.org/2000/svg">
<g id="Skillbar">
<path id="Ellipse 8" d="M246.5 124.5C246.5 187.444 193.686 238.5 128.5 238.5C63.3141 238.5 10.5 187.444 10.5 124.5C10.5 61.5556 63.3141 10.5 128.5 10.5C193.686 10.5 246.5 61.5556 246.5 124.5Z" fill="white" stroke="black"/>
<path id="Ellipse 10" d="M127.757 10.6522C151.907 10.2999 175.543 17.0917 195.5 30.1176C215.456 43.1436 230.778 61.7813 239.413 83.5333C248.048 105.285 249.584 129.112 243.814 151.822C238.044 174.531 225.244 195.037 207.13 210.593C189.015 226.149 166.452 236.011 142.462 238.857C118.473 241.704 94.2044 237.399 72.9083 226.52C51.6121 215.641 34.306 198.707 23.3089 177.987C12.3117 157.267 8.14907 133.752 11.3786 110.592L38.6979 113.986C36.2198 131.756 39.4139 149.799 47.8519 165.698C56.29 181.596 69.569 194.589 85.9096 202.937C102.25 211.285 120.871 214.588 139.278 212.404C157.685 210.219 174.998 202.652 188.897 190.716C202.797 178.78 212.618 163.046 217.045 145.621C221.473 128.196 220.295 109.914 213.669 93.2234C207.043 76.5331 195.286 62.2324 179.974 52.2376C164.661 42.2428 146.525 37.0315 127.995 37.3018L127.757 10.6522Z" fill="#4B2CA3"/>
<ellipse id="Ellipse 9" cx="129.074" cy="125" rx="91.0742" ry="88" fill="#EDE1FF"/>
</g>
</svg>
