<svg width="365" height="942" viewBox="0 0 365 942" fill="none" xmlns="http://www.w3.org/2000/svg">
<g filter="url(#filter0_d_169_1126)">
<path d="M147.409 248.549C55.3983 172.532 4 0 4 0H114.075C114.075 0 157.303 201.746 241.322 248.549C325.34 295.351 375.843 349.762 338.089 442.433C297.359 542.409 265.321 557.691 249.254 656.474C229.858 775.723 360.616 928 360.616 928H280.663C280.663 928 139.103 767.788 163.272 645.714C180.218 560.127 230.097 544.23 241.322 456.954C255.931 343.362 220.401 308.853 147.409 248.549Z" fill="#F4F0F0"/>
</g>
<g filter="url(#filter1_d_169_1126)">
<path d="M65.4959 155.36C55.47 141.498 56.5901 121.142 67.9979 109.893L93.2978 84.9471C104.706 73.6988 122.081 75.8179 132.107 89.6804L157.934 125.39C167.96 139.252 166.839 159.608 155.432 170.857L130.132 195.803C118.724 207.051 101.348 204.932 91.3225 191.07L65.4959 155.36Z" fill="#FCDDEC"/>
</g>
<path d="M101.361 160.751L105.279 114.37L116.401 116.06L113.252 153.337L132.396 156.245L131.627 165.349L101.361 160.751Z" fill="#0071D9"/>
<g filter="url(#filter2_d_169_1126)">
<path d="M270.21 328.837C279.704 314.645 297.285 311.587 309.479 322.007L336.537 345.127C348.731 355.546 350.92 375.498 341.427 389.689L316.013 427.68C306.519 441.871 288.938 444.929 276.744 434.51L249.686 411.39C237.492 400.97 235.303 381.019 244.796 366.827L270.21 328.837Z" fill="#FCDDEC"/>
</g>
<path d="M304.651 367.547C304.409 366.592 304.045 365.754 303.559 365.034C303.074 364.298 302.474 363.678 301.76 363.176C301.045 362.673 300.224 362.303 299.295 362.064C298.367 361.81 297.347 361.695 296.234 361.719C293.994 361.767 292.047 362.358 290.393 363.49C288.754 364.623 287.476 366.25 286.559 368.372C285.643 370.479 285.163 373.026 285.121 376.013C285.079 379.016 285.471 381.567 286.298 383.666C287.125 385.766 288.342 387.355 289.95 388.432C291.558 389.509 293.52 390.023 295.835 389.973C297.879 389.928 299.613 389.556 301.036 388.855C302.473 388.138 303.57 387.147 304.324 385.881C305.078 384.616 305.467 383.137 305.491 381.445L307.562 381.652L296.332 381.895L296.449 373.643L316.361 373.212L316.274 379.407C316.214 383.597 315.284 387.205 313.483 390.23C311.697 393.255 309.259 395.601 306.169 397.267C303.095 398.934 299.573 399.81 295.604 399.896C291.199 399.991 287.342 399.107 284.032 397.244C280.722 395.381 278.16 392.679 276.346 389.138C274.533 385.582 273.661 381.335 273.731 376.397C273.785 372.557 274.397 369.139 275.567 366.142C276.737 363.131 278.343 360.567 280.387 358.451C282.446 356.335 284.814 354.714 287.49 353.59C290.181 352.465 293.067 351.869 296.149 351.803C298.825 351.745 301.308 352.079 303.597 352.807C305.901 353.534 307.93 354.587 309.684 355.966C311.453 357.344 312.88 358.997 313.965 360.923C315.05 362.85 315.711 364.976 315.949 367.302L304.651 367.547Z" fill="black"/>
<g filter="url(#filter3_d_169_1126)">
<path d="M217.153 715.088C229.815 704.402 246.789 707.375 255.065 721.729L278.704 762.728C286.98 777.082 283.424 797.38 270.762 808.066L242.777 831.682C230.115 842.367 213.141 839.394 204.865 825.04L181.226 784.041C172.95 769.688 176.506 749.39 189.168 738.704L217.153 715.088Z" fill="#FCDDEC"/>
</g>
<path d="M243.23 767.488C243.078 765.822 242.404 764.526 241.207 763.602C240.025 762.663 238.336 762.193 236.139 762.193C234.684 762.193 233.472 762.382 232.502 762.761C231.533 763.14 230.805 763.663 230.321 764.329C229.836 764.981 229.586 765.731 229.571 766.579C229.54 767.276 229.677 767.89 229.98 768.42C230.298 768.95 230.752 769.42 231.343 769.829C231.949 770.223 232.677 770.572 233.525 770.875C234.374 771.178 235.328 771.443 236.389 771.67L240.389 772.579C242.692 773.079 244.722 773.746 246.48 774.579C248.252 775.413 249.737 776.405 250.934 777.557C252.146 778.708 253.063 780.034 253.684 781.534C254.305 783.034 254.624 784.716 254.639 786.579C254.624 789.519 253.881 792.041 252.411 794.147C250.942 796.254 248.828 797.867 246.071 798.988C243.328 800.11 240.018 800.67 236.139 800.67C232.245 800.67 228.851 800.087 225.957 798.92C223.063 797.754 220.813 795.981 219.207 793.602C217.601 791.223 216.775 788.216 216.73 784.579H227.502C227.593 786.079 227.995 787.329 228.707 788.329C229.419 789.329 230.396 790.087 231.639 790.602C232.896 791.117 234.351 791.375 236.002 791.375C237.518 791.375 238.805 791.17 239.866 790.761C240.942 790.352 241.768 789.784 242.343 789.057C242.919 788.329 243.215 787.496 243.23 786.557C243.215 785.678 242.942 784.928 242.411 784.307C241.881 783.67 241.063 783.125 239.957 782.67C238.866 782.2 237.472 781.769 235.775 781.375L230.911 780.238C226.881 779.314 223.707 777.822 221.389 775.761C219.071 773.685 217.919 770.882 217.934 767.352C217.919 764.473 218.692 761.95 220.252 759.784C221.813 757.617 223.972 755.928 226.73 754.716C229.487 753.504 232.631 752.897 236.161 752.897C239.768 752.897 242.896 753.511 245.548 754.738C248.215 755.95 250.283 757.655 251.752 759.852C253.222 762.049 253.972 764.594 254.002 767.488H243.23Z" fill="black"/>
<defs>
<filter id="filter0_d_169_1126" x="0" y="0" width="364.616" height="942" filterUnits="userSpaceOnUse" color-interpolation-filters="sRGB">
<feFlood flood-opacity="0" result="BackgroundImageFix"/>
<feColorMatrix in="SourceAlpha" type="matrix" values="0 0 0 0 0 0 0 0 0 0 0 0 0 0 0 0 0 0 127 0" result="hardAlpha"/>
<feOffset dy="10"/>
<feGaussianBlur stdDeviation="2"/>
<feComposite in2="hardAlpha" operator="out"/>
<feColorMatrix type="matrix" values="0 0 0 0 0 0 0 0 0 0 0 0 0 0 0 0 0 0 0.25 0"/>
<feBlend mode="normal" in2="BackgroundImageFix" result="effect1_dropShadow_169_1126"/>
<feBlend mode="normal" in="SourceGraphic" in2="effect1_dropShadow_169_1126" result="shape"/>
</filter>
<filter id="filter1_d_169_1126" x="58.6519" y="77.7224" width="112.126" height="131.305" filterUnits="userSpaceOnUse" color-interpolation-filters="sRGB">
<feFlood flood-opacity="0" result="BackgroundImageFix"/>
<feColorMatrix in="SourceAlpha" type="matrix" values="0 0 0 0 0 0 0 0 0 0 0 0 0 0 0 0 0 0 127 0" result="hardAlpha"/>
<feOffset dx="4" dy="4"/>
<feGaussianBlur stdDeviation="1"/>
<feComposite in2="hardAlpha" operator="out"/>
<feColorMatrix type="matrix" values="0 0 0 0 0 0 0 0 0 0 0 0 0 0 0 0 0 0 0.25 0"/>
<feBlend mode="normal" in2="BackgroundImageFix" result="effect1_dropShadow_169_1126"/>
<feBlend mode="normal" in="SourceGraphic" in2="effect1_dropShadow_169_1126" result="shape"/>
</filter>
<filter id="filter2_d_169_1126" x="238.893" y="315.823" width="114.438" height="130.871" filterUnits="userSpaceOnUse" color-interpolation-filters="sRGB">
<feFlood flood-opacity="0" result="BackgroundImageFix"/>
<feColorMatrix in="SourceAlpha" type="matrix" values="0 0 0 0 0 0 0 0 0 0 0 0 0 0 0 0 0 0 127 0" result="hardAlpha"/>
<feOffset dx="4" dy="4"/>
<feGaussianBlur stdDeviation="1"/>
<feComposite in2="hardAlpha" operator="out"/>
<feColorMatrix type="matrix" values="0 0 0 0 0 0 0 0 0 0 0 0 0 0 0 0 0 0 0.25 0"/>
<feBlend mode="normal" in2="BackgroundImageFix" result="effect1_dropShadow_169_1126"/>
<feBlend mode="normal" in="SourceGraphic" in2="effect1_dropShadow_169_1126" result="shape"/>
</filter>
<filter id="filter3_d_169_1126" x="176.76" y="708.675" width="112.41" height="135.42" filterUnits="userSpaceOnUse" color-interpolation-filters="sRGB">
<feFlood flood-opacity="0" result="BackgroundImageFix"/>
<feColorMatrix in="SourceAlpha" type="matrix" values="0 0 0 0 0 0 0 0 0 0 0 0 0 0 0 0 0 0 127 0" result="hardAlpha"/>
<feOffset dx="4" dy="4"/>
<feGaussianBlur stdDeviation="1"/>
<feComposite in2="hardAlpha" operator="out"/>
<feColorMatrix type="matrix" values="0 0 0 0 0 0 0 0 0 0 0 0 0 0 0 0 0 0 0.25 0"/>
<feBlend mode="normal" in2="BackgroundImageFix" result="effect1_dropShadow_169_1126"/>
<feBlend mode="normal" in="SourceGraphic" in2="effect1_dropShadow_169_1126" result="shape"/>
</filter>
</defs>
</svg>
