<?xml version="1.0" encoding="utf-8"?>
<svg viewBox="197.463 285.052 138.943 182.714" xmlns="http://www.w3.org/2000/svg">
  <defs>
    <radialGradient gradientUnits="userSpaceOnUse" cx="242.042" cy="351.016" r="2.853" id="gradient-0" gradientTransform="matrix(1, 0, 0, 1, 1.996647, 3.194601)">
      <stop offset="0" style="stop-color: rgba(0, 0, 0, 1)"/>
      <stop offset="1" style="stop-color: rgba(0, 0, 0, 1)"/>
    </radialGradient>
  </defs>
  <path style="stroke: rgb(0, 0, 0); fill: rgb(180, 180, 180);" d="M 228.668 329.05 C 225.436 333.494 219.875 297.75 259.908 285.052 C 259.386 285.533 249.45 300.97 249.45 300.97 C 249.45 300.97 271.307 296.355 280.717 290.366 C 291.636 283.416 256.15 310.813 285.093 307.547 C 285.093 307.547 304.696 303.276 317.392 305.052 C 334.337 307.421 310.891 303.737 307.14 314.238 C 304.577 321.412 308.32 325.28 308.32 325.28 L 309.29 325.704 C 309.29 325.704 302.095 323.378 289.456 323.966 C 281.408 324.34 286.19 333.153 286.19 333.153 C 286.19 333.153 266.961 324.935 264.285 321.47 C 256.081 310.846 228.668 329.05 228.668 329.05 Z"/>
  <rect x="210.47" y="332.447" width="16.889" height="26.48" style="stroke: rgb(0, 0, 0); fill: rgb(231, 60, 60);" rx="10.018" ry="10.018"/>
  <ellipse style="fill: rgb(216, 216, 216); stroke: rgb(0, 0, 0);" cx="244.534" cy="352.599" rx="8.453" ry="6.262"/>
  <ellipse style="fill: rgb(216, 216, 216); stroke: rgb(0, 0, 0);" cx="285.862" cy="352.912" rx="9.08" ry="5.949"/>
  <path style="fill: rgb(216, 216, 216); stroke: rgb(0, 0, 0);" d="M 266.75 357.608 C 262.797 353.559 263.173 362.426 259.659 369.245 C 257.904 372.651 257.887 373.29 268.134 373.72 C 275.72 374.039 275.227 369.784 273.845 367.267 C 273.728 367.053 277.035 372.138 266.75 357.608 Z"/>
  <ellipse style="stroke: rgb(0, 0, 0); fill: none;" cx="244.038" cy="354.21" rx="2.853" ry="2.738"/>
  <ellipse style="stroke: url(#gradient-0);" cx="244.038" cy="354.21" rx="2.853" ry="2.738"/>
  <ellipse style="stroke: rgb(0, 0, 0);" cx="286.515" cy="354.736" rx="2.853" ry="2.853"/>
  <ellipse style="stroke: rgb(0, 0, 0); fill: none;" cx="242.042" cy="351.016" rx="2.853" ry="0" transform="matrix(1, 0, 0, 1, 91.51089, -1.219828)"/>
  <path style="fill: rgb(216, 216, 216); stroke: rgb(0, 0, 0);" d="M 273.008 338.443 C 282.979 335.153 293.574 338.967 297.245 345.022"/>
  <path style="fill: rgb(216, 216, 216); stroke: rgb(0, 0, 0);" d="M 235.327 344.168 C 245.028 347.735 255.336 343.6 258.908 337.036" transform="matrix(-1, 0, 0, -1, 494.235, 682.517782)"/>
  <path style="fill: rgb(216, 216, 216); stroke: rgb(0, 0, 0); stroke-width: 0.5px;" d="M 247.319 376.139 C 247.319 376.139 259.025 381.76 266.616 382.15 C 273.64 382.51 283.486 377.667 283.486 377.667 C 289.182 374.37 284.864 377.66 282.084 379.512 C 274.114 384.819 271.737 385.448 269.963 385.828 C 269.413 385.946 266.838 386.072 265.366 385.894 C 263.914 385.718 261.627 384.828 261.627 384.828 C 261.627 384.828 252.258 381.915 247.319 376.139 Z" transform="matrix(0.999994, 0.003526, -0.003526, 0.999994, 1.345279, -0.938372)"/>
  <rect x="305.378" y="332.148" width="16.889" height="26.48" style="stroke: rgb(0, 0, 0); fill: rgb(231, 60, 60);" rx="10.018" ry="10.018"/>
  <path style="stroke: rgb(0, 0, 0); fill: none;" d="M 217.504 332.921 C 217.504 332.921 239.843 292.156 267.674 291.964 C 295.297 291.774 312.594 331.755 312.594 331.755"/>
  <path style="stroke: rgb(0, 0, 0); fill: none;" d="M 214.227 333.798 C 215.685 330.882 242.529 285.772 268.933 289.126 C 297.77 292.789 315.531 331.979 315.531 331.979"/>
  <rect x="216.739" y="339.097" width="2.882" height="13.326" style="fill: rgb(216, 216, 216); stroke: rgb(0, 0, 0);" rx="1.801" ry="1.801"/>
  <rect x="312.777" y="337.555" width="2.882" height="13.326" style="fill: rgb(216, 216, 216); stroke: rgb(0, 0, 0);" rx="1.801" ry="1.801"/>
  <path style="stroke: rgb(0, 0, 0); fill: none;" d="M 247.059 396.422 L 243.185 415.166 C 243.185 415.166 223.195 423.049 204.589 423.117 C 192.495 423.161 198.904 435.574 201.428 456.921"/>
  <path style="stroke: rgb(0, 0, 0); fill: none;" d="M 283.462 396.826 L 286.553 415.426 C 286.553 415.426 303.116 425.677 327.442 425.778 C 337.237 425.819 330.065 456.84 330.382 457.632"/>
  <path style="fill: rgb(216, 216, 216); stroke: rgb(0, 0, 0);" d="M 202.346 467.766 C 202.346 467.766 224.769 463.034 235.524 460.363 C 268.708 452.123 331.22 461.734 331.22 461.734"/>
  <path style="stroke: rgb(0, 0, 0); fill: none;" d="M 242.722 414.831 C 242.722 414.831 254.554 428.753 262.739 429.089 C 271.666 429.455 285.772 415.379 285.772 415.379"/>
  <path style="stroke: rgb(0, 0, 0); fill: none;" d="M 256.981 407.701 C 256.981 407.701 260.559 411.673 263.072 411.818 C 265.91 411.981 271.514 408.086 271.514 408.086"/>
  <path style="stroke: rgb(0, 0, 0); fill: rgb(194, 208, 230); stroke-width: 0px;" d="M 205.63 460.945 C 205.695 460.711 197.071 432.712 201.903 428.951 C 212.743 420.514 243.252 421.471 243.252 421.471 C 243.252 421.471 255.164 430.692 263.272 430.976 C 272.286 431.291 286.972 421.471 286.972 421.471 C 283.495 417.248 311.902 432.097 328.519 429.889 C 335.718 428.933 327.433 455.415 327.433 455.415 C 327.433 455.415 305.896 456.641 295.154 456 C 273.659 454.717 250.473 439.496 231.164 447.153 C 222.567 450.562 205.63 460.945 205.63 460.945 Z"/>
  <path style="fill: none; stroke: rgb(0, 0, 0);" d="M 227.747 327.986 C 227.747 327.986 226.577 356.34 234.865 377.655 C 240.739 392.763 254.091 402.917 264.664 402.325 C 276.895 401.638 291.167 394.148 297.218 377.945 C 303.522 361.063 304.58 338.731 308.609 325.668"/>
</svg>