<svg width="756" height="560" viewBox="0 0 756 560" fill="none" xmlns="http://www.w3.org/2000/svg">
<path d="M107.032 134.65L268.32 97.6517C277.113 95.6348 286.347 97.1948 293.989 101.988L687.516 348.832C710.588 363.304 708.13 397.674 683.233 408.715L553.482 466.256C543.133 470.845 531.178 469.982 521.595 463.954L96.5301 196.569C70.9124 180.454 77.5334 141.417 107.032 134.65Z" fill="#FF7474"/>
<path d="M95.4163 155.5L256.705 118.502C265.497 116.485 274.731 118.045 282.373 122.838L675.901 369.682C698.973 384.154 696.514 418.524 671.617 429.565L541.867 487.106C531.518 491.695 519.563 490.832 509.98 484.804L84.9146 217.419C59.297 201.304 65.9179 162.267 95.4163 155.5Z" fill="#FF7474" fill-opacity="0.51"/>
<rect width="512.756" height="90.0805" transform="matrix(0.85313 0.521533 -0.523458 0.852144 224.141 77.8887)" fill="#D9D9D9"/>
<path d="M269.409 212.696L248.017 200.249L283.369 140.042L304.938 152.592C311.008 156.124 315.525 160.369 318.49 165.329C321.467 170.269 322.816 175.669 322.538 181.528C322.28 187.399 320.315 193.461 316.644 199.713C312.962 205.984 308.609 210.682 303.585 213.807C298.581 216.943 293.161 218.43 287.326 218.269C281.51 218.12 275.538 216.262 269.409 212.696ZM267.179 196.766L275.283 201.48C279.054 203.675 282.618 204.855 285.974 205.019C289.361 205.176 292.531 204.22 295.485 202.152C298.47 200.076 301.28 196.794 303.915 192.306C306.527 187.857 308.004 183.839 308.345 180.251C308.706 176.674 307.99 173.471 306.2 170.641C304.409 167.811 301.628 165.299 297.856 163.104L289.723 158.372L267.179 196.766ZM339.759 254.772C336.872 253.092 334.592 251.095 332.92 248.781C331.259 246.448 330.352 243.908 330.198 241.163C330.075 238.41 330.888 235.544 332.638 232.565C334.111 230.056 335.809 228.218 337.734 227.05C339.658 225.882 341.721 225.242 343.922 225.129C346.123 225.016 348.391 225.283 350.725 225.932C353.079 226.591 355.438 227.465 357.804 228.552C360.598 229.809 362.869 230.789 364.618 231.491C366.378 232.173 367.766 232.481 368.78 232.414C369.795 232.347 370.584 231.833 371.148 230.873L371.251 230.697C372.345 228.835 372.601 227.051 372.021 225.346C371.46 223.653 370.11 222.183 367.968 220.937C365.709 219.623 363.618 219.077 361.696 219.299C359.784 219.502 358.175 220.222 356.869 221.46L345.811 213.765C348.012 211.364 350.563 209.667 353.466 208.673C356.38 207.661 359.519 207.41 362.882 207.92C366.277 208.423 369.781 209.726 373.396 211.829C375.91 213.292 378.144 214.986 380.097 216.911C382.07 218.848 383.587 220.954 384.65 223.229C385.732 225.515 386.224 227.931 386.126 230.477C386.04 233.003 385.208 235.609 383.631 238.294L365.748 268.75L353.844 261.824L357.521 255.562L357.167 255.356C355.612 256.344 353.909 257.023 352.058 257.392C350.218 257.742 348.266 257.723 346.2 257.337C344.146 256.93 341.999 256.075 339.759 254.772ZM348.429 248.221C350.276 249.296 352.119 249.882 353.959 249.98C355.811 250.058 357.508 249.704 359.05 248.918C360.592 248.133 361.829 246.946 362.761 245.359L365.574 240.567C365.032 240.593 364.354 240.514 363.54 240.329C362.757 240.137 361.891 239.883 360.943 239.568C360.006 239.233 359.075 238.889 358.15 238.534C357.236 238.16 356.407 237.822 355.661 237.52C354.062 236.879 352.573 236.473 351.197 236.303C349.821 236.134 348.592 236.273 347.512 236.723C346.442 237.152 345.562 237.955 344.872 239.131C343.871 240.836 343.724 242.499 344.433 244.121C345.172 245.734 346.504 247.101 348.429 248.221ZM445.279 254.443L439.755 263.85L412.499 247.991L418.023 238.584L445.279 254.443ZM430.563 231.366L443.116 238.67L418.397 280.767C417.718 281.923 417.365 282.928 417.339 283.78C417.325 284.613 417.557 285.34 418.036 285.96C418.534 286.592 419.206 287.154 420.051 287.646C420.64 287.989 421.258 288.282 421.905 288.527C422.563 288.753 423.067 288.927 423.416 289.051L419.918 299.519C419.174 299.349 418.158 299.06 416.869 298.652C415.569 298.264 414.086 297.625 412.421 296.735C409.327 295.092 406.911 293.147 405.173 290.9C403.455 288.665 402.537 286.211 402.419 283.539C402.301 280.868 403.12 278.058 404.878 275.11L430.563 231.366ZM496.734 284.382L491.211 293.789L463.954 277.93L469.478 268.523L496.734 284.382ZM482.018 261.305L494.571 268.609L469.852 310.706C469.173 311.862 468.821 312.867 468.794 313.719C468.78 314.552 469.012 315.279 469.491 315.899C469.99 316.531 470.661 317.093 471.506 317.585C472.095 317.927 472.713 318.221 473.36 318.466C474.019 318.692 474.522 318.866 474.871 318.99L471.373 329.458C470.63 329.288 469.613 328.999 468.324 328.591C467.024 328.203 465.541 327.563 463.876 326.674C460.782 325.031 458.366 323.086 456.628 320.839C454.91 318.604 453.992 316.15 453.874 313.478C453.756 310.806 454.576 307.997 456.333 305.049L482.018 261.305ZM510.007 353.83C507.119 352.15 504.84 350.153 503.167 347.839C501.507 345.505 500.599 342.966 500.446 340.221C500.323 337.467 501.136 334.601 502.885 331.622C504.358 329.114 506.057 327.275 507.982 326.108C509.906 324.94 511.969 324.299 514.17 324.186C516.371 324.073 518.638 324.341 520.973 324.989C523.326 325.649 525.686 326.522 528.052 327.61C530.845 328.867 533.117 329.846 534.866 330.549C536.626 331.231 538.013 331.539 539.028 331.472C540.042 331.405 540.832 330.891 541.396 329.931L541.499 329.754C542.592 327.892 542.849 326.109 542.269 324.404C541.708 322.711 540.357 321.241 538.216 319.995C535.957 318.681 533.866 318.135 531.943 318.357C530.032 318.56 528.423 319.28 527.116 320.518L516.059 312.822C518.26 310.421 520.811 308.724 523.713 307.731C526.627 306.718 529.766 306.467 533.13 306.978C536.524 307.481 540.029 308.784 543.643 310.887C546.158 312.35 548.392 314.044 550.345 315.969C552.317 317.906 553.835 320.011 554.898 322.286C555.98 324.573 556.472 326.989 556.374 329.535C556.287 332.061 555.456 334.667 553.879 337.352L535.996 367.808L524.092 360.881L527.768 354.62L527.415 354.414C525.859 355.402 524.156 356.081 522.305 356.45C520.466 356.8 518.513 356.781 516.448 356.394C514.393 355.988 512.247 355.133 510.007 353.83ZM518.677 347.279C520.524 348.353 522.367 348.939 524.207 349.037C526.059 349.115 527.755 348.762 529.297 347.976C530.839 347.19 532.076 346.004 533.008 344.416L535.822 339.624C535.28 339.651 534.601 339.571 533.787 339.387C533.004 339.194 532.139 338.941 531.19 338.625C530.254 338.291 529.323 337.946 528.397 337.592C527.484 337.218 526.654 336.88 525.909 336.578C524.309 335.936 522.821 335.531 521.445 335.361C520.069 335.191 518.84 335.331 517.759 335.78C516.69 336.21 515.81 337.013 515.12 338.189C514.119 339.894 513.972 341.557 514.68 343.179C515.42 344.792 516.752 346.159 518.677 347.279Z" fill="black"/>
</svg>
