<svg width="388" height="597" viewBox="0 0 388 597" fill="none" xmlns="http://www.w3.org/2000/svg">
<g clip-path="url(#clip0_168_19)" filter="url(#filter0_d_168_19)">
<path d="M88.5258 134.626C80.082 148.224 65.5534 38.8537 170.143 0C168.779 1.47178 142.821 48.7063 142.821 48.7063C142.821 48.7063 199.924 34.5852 224.508 16.2599C253.035 -5.00589 160.325 78.8242 235.941 68.8308C235.941 68.8308 287.155 55.7623 320.325 61.1965C364.595 68.4452 303.34 57.1729 293.54 89.3041C286.844 111.255 296.623 123.091 296.623 123.091L299.157 124.388C299.157 124.388 280.36 117.271 247.339 119.07C226.313 120.214 238.807 147.181 238.807 147.181C238.807 147.181 188.569 122.035 181.578 111.433C160.145 78.9251 88.5258 134.626 88.5258 134.626Z" fill="#BEBEBE" stroke="black" stroke-width="1.32482"/>
<path d="M85.1056 175.674C85.1056 158.744 75.2281 145.02 63.0436 145.02C50.8592 145.02 40.9817 158.744 40.9817 175.674V195.391C40.9817 212.321 50.8592 226.044 63.0436 226.044C75.2281 226.044 85.1056 212.321 85.1056 195.391V175.674Z" fill="#E73C3C" stroke="black" stroke-width="1.32482"/>
<path d="M129.977 225.843C142.174 225.843 152.061 217.264 152.061 206.682C152.061 196.1 142.174 187.521 129.977 187.521C117.78 187.521 107.893 196.1 107.893 206.682C107.893 217.264 117.78 225.843 129.977 225.843Z" fill="#D8D8D8" stroke="black" stroke-width="1.32482"/>
<path d="M237.95 225.843C251.051 225.843 261.672 217.693 261.672 207.64C261.672 197.587 251.051 189.437 237.95 189.437C224.848 189.437 214.228 197.587 214.228 207.64C214.228 217.693 224.848 225.843 237.95 225.843Z" fill="#D8D8D8" stroke="black" stroke-width="1.32482"/>
<path d="M188.018 222.009C177.691 209.619 178.673 236.751 169.492 257.616C164.907 268.038 164.863 269.993 191.634 271.309C211.453 272.285 210.165 259.265 206.554 251.564C206.249 250.909 214.888 266.468 188.018 222.009Z" fill="#D8D8D8" stroke="black" stroke-width="1.32482"/>
<path d="M128.681 219.989C132.798 219.989 136.135 216.238 136.135 211.611C136.135 206.985 132.798 203.234 128.681 203.234C124.564 203.234 121.227 206.985 121.227 211.611C121.227 216.238 124.564 219.989 128.681 219.989Z" stroke="black" stroke-width="1.32482"/>
<path d="M128.681 219.989C132.798 219.989 136.135 216.238 136.135 211.611C136.135 206.985 132.798 203.234 128.681 203.234C124.564 203.234 121.227 206.985 121.227 211.611C121.227 216.238 124.564 219.989 128.681 219.989Z" fill="#050505" stroke="url(#paint0_radial_168_19)" stroke-width="1.32482"/>
<path d="M239.656 221.951C243.772 221.951 247.109 218.042 247.109 213.221C247.109 208.4 243.772 204.491 239.656 204.491C235.539 204.491 232.202 208.4 232.202 213.221C232.202 218.042 235.539 221.951 239.656 221.951Z" fill="#090909" stroke="black" stroke-width="1.32482"/>
<path d="M370 198.106C370 198.106 366.663 198.106 362.546 198.106C358.429 198.106 355.092 198.106 355.092 198.106C355.092 198.106 358.429 198.106 362.546 198.106C366.663 198.106 370 198.106 370 198.106Z" stroke="black" stroke-width="1.32482"/>
<path d="M137.299 278.5C137.299 278.5 167.83 295.826 187.658 297.101C206.005 298.278 231.773 283.566 231.773 283.566C246.685 273.539 235.374 283.559 228.094 289.196C207.223 305.349 201.007 307.248 196.369 308.391C194.931 308.746 188.202 309.104 184.358 308.544C180.566 307.989 174.599 305.242 174.599 305.242C174.599 305.242 150.149 296.227 137.299 278.5Z" fill="#D8D8D8" stroke="black" stroke-width="0.662409"/>
<path d="M333.061 174.759C333.061 157.83 323.183 144.106 310.999 144.106C298.814 144.106 288.937 157.83 288.937 174.759V194.476C288.937 211.406 298.814 225.13 310.999 225.13C323.183 225.13 333.061 211.406 333.061 194.476V174.759Z" fill="#E73C3C" stroke="black" stroke-width="1.32482"/>
<path d="M59.3586 146.471C59.3586 146.471 117.721 21.7368 190.432 21.1493C262.599 20.5679 307.789 142.903 307.789 142.903" stroke="black" stroke-width="1.32482"/>
<path d="M50.7974 149.154C54.6065 140.232 124.739 2.20326 193.721 12.4659C269.06 23.6741 315.462 143.589 315.462 143.589" stroke="black" stroke-width="1.32482"/>
<path d="M64.8896 170.879C64.8896 167.836 63.204 165.368 61.1248 165.368C59.0456 165.368 57.3601 167.836 57.3601 170.879V200.633C57.3601 203.676 59.0456 206.144 61.1248 206.144C63.204 206.144 64.8896 203.676 64.8896 200.633V170.879Z" fill="#D8D8D8" stroke="black" stroke-width="1.32482"/>
<path d="M315.797 166.161C315.797 163.117 314.111 160.65 312.032 160.65C309.953 160.65 308.267 163.117 308.267 166.161V195.914C308.267 198.958 309.953 201.425 312.032 201.425C314.111 201.425 315.797 198.958 315.797 195.914V166.161Z" fill="#D8D8D8" stroke="black" stroke-width="1.32482"/>
<path d="M136.574 340.773L126.453 398.126C126.453 398.126 74.2273 422.247 25.6176 422.455C-5.97899 422.589 10.765 460.571 17.3592 525.889" stroke="black" stroke-width="1.32482"/>
<path d="M231.679 342.009L239.755 398.922C239.755 398.922 283.027 430.288 346.581 430.597C372.171 430.723 353.434 525.641 354.262 528.065" stroke="black" stroke-width="1.32482"/>
<path d="M19.7571 559.073C19.7571 559.073 78.339 544.594 106.437 536.421C193.133 511.208 356.451 540.616 356.451 540.616" fill="#D8D8D8"/>
<path d="M19.7571 559.073C19.7571 559.073 78.339 544.594 106.437 536.421C193.133 511.208 356.451 540.616 356.451 540.616" stroke="black" stroke-width="1.32482"/>
<path d="M125.243 397.101C125.243 397.101 156.155 439.7 177.539 440.728C200.862 441.848 237.715 398.778 237.715 398.778" stroke="black" stroke-width="1.32482"/>
<path d="M162.496 375.285C162.496 375.285 171.843 387.438 178.409 387.882C185.823 388.381 200.464 376.463 200.464 376.463" stroke="black" stroke-width="1.32482"/>
<path d="M28.3369 538.202C28.5067 537.486 5.97581 451.814 18.5998 440.306C46.9202 414.49 126.627 417.418 126.627 417.418C126.627 417.418 157.749 445.633 178.931 446.502C202.481 447.466 240.85 417.418 240.85 417.418C231.766 404.497 305.981 449.932 349.395 443.176C368.203 440.251 346.557 521.281 346.557 521.281C346.557 521.281 290.29 525.032 262.226 523.071C206.068 519.145 145.493 472.572 95.0466 496.001C72.5862 506.432 28.3369 538.202 28.3369 538.202Z" fill="#C2D0E6"/>
<path d="M86.1194 131.371C86.1194 131.371 83.0627 218.129 104.716 283.349C120.062 329.577 154.945 360.647 182.568 358.835C214.523 356.733 251.809 333.815 267.618 284.237C284.088 232.581 286.852 164.249 297.378 124.278" stroke="black" stroke-width="1.32482"/>
<path d="M100.286 168.22L144.31 154.35L149.782 167.391L95.9335 178.865L100.286 168.22Z" fill="#C2D0E6" stroke="black"/>
</g>
<defs>
<filter id="filter0_d_168_19" x="0.375912" y="0" width="386.847" height="596.168" filterUnits="userSpaceOnUse" color-interpolation-filters="sRGB">
<feFlood flood-opacity="0" result="BackgroundImageFix"/>
<feColorMatrix in="SourceAlpha" type="matrix" values="0 0 0 0 0 0 0 0 0 0 0 0 0 0 0 0 0 0 127 0" result="hardAlpha"/>
<feOffset dx="5.29927" dy="25.1715"/>
<feGaussianBlur stdDeviation="5.96168"/>
<feComposite in2="hardAlpha" operator="out"/>
<feColorMatrix type="matrix" values="0 0 0 0 0 0 0 0 0 0 0 0 0 0 0 0 0 0 0.58 0"/>
<feBlend mode="normal" in2="BackgroundImageFix" result="effect1_dropShadow_168_19"/>
<feBlend mode="normal" in="SourceGraphic" in2="effect1_dropShadow_168_19" result="shape"/>
</filter>
<radialGradient id="paint0_radial_168_19" cx="0" cy="0" r="1" gradientUnits="userSpaceOnUse" gradientTransform="translate(128.683 211.613) scale(7.45371 8.7297)">
<stop/>
<stop offset="1"/>
</radialGradient>
<clipPath id="clip0_168_19">
<rect width="363" height="559.073" fill="white" transform="translate(7)"/>
</clipPath>
</defs>
</svg>
