<svg width="413" height="265" viewBox="0 0 413 265" fill="none" xmlns="http://www.w3.org/2000/svg">
<path d="M29.4347 9.68406C29.4347 7.22409 31.2449 5.28894 34.7299 3.82069C38.2028 2.35756 43.1999 1.42571 49.2473 0.916169C61.3318 -0.102074 77.4647 0.576151 93.6217 1.93754C109.773 3.29846 125.927 5.34007 138.044 7.04174C144.102 7.89253 149.151 8.65821 152.685 9.21117C154.451 9.48764 155.839 9.71092 156.786 9.86506C157.259 9.94213 157.621 10.0019 157.866 10.0424L157.88 10.0448V10.062V10.0863V10.1114V10.1372V10.1637V10.191V10.2189V10.2476V10.277V10.3071V10.338V10.3695V10.4018V10.4347V10.4684V10.5027V10.5378V10.5735V10.6099V10.647V10.6849V10.7233V10.7625V10.8024V10.8429V10.8841V10.9259V10.9685V11.0117V11.0555V11.1V11.1452V11.1911V11.2375V11.2847V11.3325V11.3809V11.43V11.4797V11.53V11.581V11.6326V11.6849V11.7378V11.7913V11.8454V11.9001V11.9555V12.0115V12.068V12.1252V12.183V12.2414V12.3005V12.3601V12.4203V12.4811V12.5425V12.6044V12.667V12.7301V12.7939V12.8582V12.9231V12.9885V13.0546V13.1212V13.1883V13.2561V13.3244V13.3932V13.4626V13.5326V13.6031V13.6742V13.7458V13.8179V13.8906V13.9639V14.0376V14.1119V14.1867V14.2621V14.338V14.4144V14.4913V14.5688V14.6467V14.7252V14.8042V14.8837V14.9637V15.0442V15.1252V15.2067V15.2887V15.3712V15.4542V15.5376V15.6216V15.706V15.7909V15.8763V15.9622V16.0485V16.1353V16.2226V16.3103V16.3985V16.4872V16.5763V16.6659V16.7559V16.8464V16.9373V17.0287V17.1205V17.2127V17.3054V17.3986V17.4921V17.5861V17.6805V17.7753V17.8706V17.9663V18.0623V18.1588V18.2558V18.3531V18.4508V18.5489V18.6475V18.7464V18.8457V18.9455V19.0456V19.1461V19.247V19.3482V19.4499V19.5519V19.6543V19.7571V19.8603V19.9638V20.0677V20.1719V20.2765V20.3815V20.4868V20.5925V20.6985V20.8049V20.9116V21.0187V21.1261V21.2338V21.3419V21.4503V21.559V21.6681V21.7775V21.8872V21.9973V22.1076V22.2183V22.3293V22.4405V22.5521V22.664V22.7762V22.8887V23.0015V23.1146V23.228V23.3417V23.4557V23.5699V23.6844V23.7992V23.9143V24.0297V24.1453V24.2612V24.3774V24.4938V24.6105V24.7275V24.8447V24.9621V25.0799V25.1978V25.316V25.4345V25.5532V25.6721V25.7913V25.9107V26.0303V26.1502V26.2703V26.3906V26.5111V26.6319V26.7528V26.874V26.9954V27.117V27.2388V27.3608V27.483V27.6054V27.7281V27.8509V27.9738V28.097V28.2204V28.3439V28.4676V28.5915V28.7156V28.8399V28.9643V29.0889V29.2136V29.3385V29.4636V29.5888V29.7142V29.8398V29.9655V30.0913V30.2173V30.3434V30.4697V30.5961V30.7226V30.8493V30.9761V31.103V31.23V31.3572V31.4845V31.6119V31.7394V31.8671V31.9948V32.1226V32.2506V32.3787V32.5068V32.6351V32.7634V32.8918V33.0204V33.149V33.2777V33.4064V33.5353V33.6642V33.7932V33.9223V34.0514V34.1807V34.3099V34.4393V34.5686V34.6981V34.8276V34.9572V35.0868V35.2164V35.3461V35.4758V35.6056V35.7354V35.8652V35.9951V36.125V36.2549V36.3849V36.5148V36.6448V36.7748V36.9048V37.0348V37.1649V37.2949V37.4249V37.555V37.685V37.815V37.945V38.075V38.205V38.335V38.465V38.5949V38.7248V38.8547V38.9846V39.1144V39.2443V39.374V39.5037V39.6334V39.7631V39.8927V40.0222V40.1517V40.2812V40.4106V40.5399V40.6692V40.7984V40.9275V41.0566V41.1856V41.3145V41.4434V41.5722V41.7009V41.8295V41.958V42.0864V42.2148V42.343V42.4712V42.5992V42.7272V42.855V42.9828V43.1104V43.2379V43.3653V43.4926V43.6198V43.7468V43.8738V44.0006V44.1272V44.2538V44.3802V44.5064V44.6326V44.7585V44.8844V45.0101V45.1356V45.261V45.3862V45.5113V45.6362V45.761V45.8856V46.01V46.1342V46.2583V46.3822V46.5059V46.6295V46.7528V46.876V46.999V47.1218V47.2444V47.3668V47.489V47.611V47.7328V47.8544V47.9758V48.097V48.218V48.3387V48.4592V48.5796V48.6996V48.8195V48.9391V49.0586V49.1777V49.2967V49.4153V49.5338V49.652V49.77V49.8877V50.0052V50.1224V50.2393V50.356V50.4724V50.5886V50.7045V50.8201V50.9355V51.0506V51.1654V51.2799V51.3942V51.5081V51.6218V51.7352V51.8483V51.9611V52.0736V52.1858V52.2977V52.4093V52.5206V52.6316V52.7422V52.8526V52.9626V53.0723V53.1817V53.2908V53.3995V53.5079V53.616V53.7238V53.8312V53.9382V54.0449V54.1513V54.2573V54.363V54.4683V54.5733V54.6779V54.7822V54.8861V54.9896V55.0927V55.1955V55.2979V55.3999V55.5016V55.6029V55.7038V55.8043V55.9044V56.0041V56.1034V56.2024V56.3009V56.399V56.4968V56.5941V56.691V56.7875V56.8836V56.9793V57.0745V57.1693V57.2637V57.3577V57.4513V57.5444V57.6371V57.7293V57.8211V57.9125V58.0034V58.0939V58.1839V58.2735V58.3626V58.4513V58.5395V58.6272V58.7145V58.8013V58.8877V58.9735V59.0589V59.1438V59.2283V59.3122V59.3957C157.88 60.0959 157.489 60.7592 156.607 61.3897C155.719 62.0234 154.385 62.5828 152.638 63.0629C149.147 64.0214 144.133 64.63 138.08 64.9624C125.983 65.6269 109.84 65.1842 93.6808 64.2966C77.5257 63.4093 61.3691 62.0782 49.2503 60.9689C43.1912 60.4142 38.142 59.915 34.6078 59.5545C32.8406 59.3743 31.4523 59.2287 30.5058 59.1282C30.0385 59.0786 29.679 59.0399 29.4347 59.0135V58.9934V58.9711V58.9482V58.9247V58.9006V58.876V58.8508V58.825V58.7986V58.7717V58.7442V58.7161V58.6875V58.6583V58.6285V58.5982V58.5673V58.5358V58.5038V58.4713V58.4381V58.4045V58.3702V58.3354V58.3001V58.2642V58.2278V58.1908V58.1533V58.1153V58.0767V58.0375V57.9979V57.9577V57.9169V57.8757V57.8339V57.7915V57.7487V57.7053V57.6614V57.6169V57.572V57.5265V57.4805V57.434V57.3869V57.3394V57.2913V57.2428V57.1937V57.1441V57.094V57.0434V56.9923V56.9407V56.8886V56.836V56.7829V56.7293V56.6752V56.6206V56.5656V56.51V56.4539V56.3974V56.3404V56.2829V56.2249V56.1664V56.1074V56.048V55.9881V55.9277V55.8669V55.8056V55.7438V55.6815V55.6188V55.5556V55.4919V55.4278V55.3632V55.2982V55.2327V55.1667V55.1003V55.0334V54.9661V54.8983V54.8301V54.7614V54.6923V54.6228V54.5528V54.4823V54.4115V54.3402V54.2684V54.1962V54.1236V54.0505V53.9771V53.9031V53.8288V53.754V53.6788V53.6032V53.5272V53.4507V53.3739V53.2966V53.2189V53.1408V53.0622V52.9833V52.9039V52.8242V52.744V52.6634V52.5825V52.5011V52.4193V52.3371V52.2546V52.1716V52.0882V52.0045V51.9204V51.8358V51.7509V51.6656V51.5799V51.4938V51.4074V51.3205V51.2333V51.1457V51.0578V50.9694V50.8807V50.7916V50.7022V50.6123V50.5221V50.4316V50.3407V50.2494V50.1577V50.0657V49.9734V49.8807V49.7876V49.6942V49.6004V49.5063V49.4118V49.317V49.2218V49.1263V49.0305V48.9343V48.8377V48.7409V48.6437V48.5461V48.4483V48.3501V48.2515V48.1527V48.0535V47.954V47.8541V47.754V47.6535V47.5527V47.4516V47.3501V47.2484V47.1463V47.044V46.9413V46.8383V46.735V46.6314V46.5275V46.4232V46.3187V46.2139V46.1088V46.0034V45.8977V45.7917V45.6854V45.5788V45.472V45.3648V45.2574V45.1496V45.0416V44.9333V44.8248V44.7159V44.6068V44.4974V44.3877V44.2778V44.1676V44.0571V43.9463V43.8353V43.724V43.6125V43.5007V43.3886V43.2763V43.1637V43.0508V42.9378V42.8244V42.7108V42.597V42.4829V42.3685V42.2539V42.1391V42.024V41.9087V41.7932V41.6774V41.5614V41.4451V41.3286V41.2119V41.095V40.9778V40.8604V40.7428V40.6249V40.5068V40.3885V40.27V40.1513V40.0323V39.9132V39.7938V39.6742V39.5544V39.4344V39.3142V39.1938V39.0732V38.9524V38.8313V38.7101V38.5887V38.4671V38.3453V38.2233V38.1011V37.9787V37.8561V37.7334V37.6104V37.4873V37.364V37.2405V37.1168V36.993V36.8689V36.7447V36.6204V36.4958V36.3711V36.2462V36.1212V35.996V35.8706V35.745V35.6193V35.4935V35.3674V35.2413V35.1149V34.9884V34.8618V34.735V34.6081V34.481V34.3538V34.2264V34.0989V33.9712V33.8434V33.7155V33.5874V33.4592V33.3309V33.2024V33.0738V32.945V32.8162V32.6872V32.5581V32.4288V32.2995V32.17V32.0404V31.9107V31.7809V31.6509V31.5209V31.3907V31.2604V31.1301V30.9996V30.869V30.7383V30.6075V30.4766V30.3456V30.2145V30.0833V29.952V29.8206V29.6892V29.5576V29.426V29.2942V29.1624V29.0305V28.8985V28.7665V28.6343V28.5021V28.3698V28.2375V28.105V27.9725V27.8399V27.7073V27.5746V27.4418V27.3089V27.176V27.0431V26.91V26.777V26.6438V26.5106V26.3774V26.2441V26.1107V25.9773V25.8439V25.7104V25.5769V25.4433V25.3097V25.176V25.0423V24.9086V24.7748V24.641V24.5072V24.3733V24.2394V24.1055V23.9716V23.8376V23.7036V23.5696V23.4356V23.3015V23.1675V23.0334V22.8993V22.7652V22.6311V22.497V22.3629V22.2287V22.0946V21.9604V21.8263V21.6922V21.558V21.4239V21.2897V21.1556V21.0215V20.8874V20.7533V20.6192V20.4851V20.3511V20.217V20.083V19.949V19.815V19.6811V19.5472V19.4133V19.2794V19.1455V19.0117V18.8779V18.7442V18.6105V18.4768V18.3431V18.2095V18.076V17.9425V17.809V17.6756V17.5422V17.4089V17.2756V17.1424V17.0092V16.8761V16.743V16.61V16.4771V16.3442V16.2114V16.0786V15.9459V15.8133V15.6807V15.5483V15.4159V15.2835V15.1513V15.0191V14.887V14.7549V14.623V14.4911V14.3593V14.2276V14.096V13.9645V13.8331V13.7018V13.5705V13.4394V13.3083V13.1774V13.0465V12.9157V12.7851V12.6545V12.5241V12.3938V12.2635V12.1334V12.0034V11.8735V11.7437V11.6141V11.4845V11.3551V11.2258V11.0966V10.9675V10.8386V10.7098V10.5811V10.4526V10.3241V10.1959V10.0677V9.93968V9.8118V9.68406Z" fill="#030507" fill-opacity="0.44" stroke="black" stroke-width="0.851852"/>
<path d="M68.7904 41.8363C68.7904 41.387 68.7205 40.9877 68.5807 40.6383C68.451 40.289 68.2164 39.9695 67.877 39.68C67.5375 39.3905 67.0584 39.111 66.4395 38.8415C65.8305 38.562 65.0519 38.2775 64.1035 37.988C63.0653 37.6685 62.107 37.3141 61.2285 36.9248C60.36 36.5255 59.6013 36.0663 58.9525 35.5472C58.3036 35.0181 57.7995 34.4142 57.4401 33.7354C57.0807 33.0466 56.901 32.2529 56.901 31.3545C56.901 30.466 57.0857 29.6574 57.4551 28.9287C57.8344 28.2 58.3685 27.5711 59.0573 27.042C59.7561 26.5029 60.5796 26.0887 61.528 25.7992C62.4763 25.4997 63.5245 25.3499 64.6725 25.3499C66.2897 25.3499 67.6823 25.6494 68.8503 26.2484C70.0282 26.8473 70.9316 27.6509 71.5605 28.6592C72.1994 29.6674 72.5189 30.7805 72.5189 31.9984H68.7904C68.7904 31.2796 68.6356 30.6457 68.3262 30.0967C68.0267 29.5377 67.5675 29.0984 66.9486 28.779C66.3396 28.4595 65.566 28.2998 64.6276 28.2998C63.7392 28.2998 63.0004 28.4346 62.4115 28.7041C61.8225 28.9736 61.3832 29.338 61.0938 29.7972C60.8043 30.2564 60.6595 30.7755 60.6595 31.3545C60.6595 31.7638 60.7543 32.1381 60.944 32.4775C61.1337 32.807 61.4232 33.1164 61.8125 33.4059C62.2018 33.6854 62.691 33.95 63.2799 34.1995C63.8689 34.4491 64.5627 34.6887 65.3613 34.9183C66.5692 35.2777 67.6224 35.677 68.5208 36.1162C69.4193 36.5455 70.168 37.0346 70.7669 37.5837C71.3659 38.1327 71.8151 38.7566 72.1146 39.4554C72.4141 40.1442 72.5638 40.9278 72.5638 41.8063C72.5638 42.7247 72.3791 43.5533 72.0098 44.292C71.6404 45.0207 71.1113 45.6446 70.4225 46.1637C69.7437 46.6729 68.9251 47.0672 67.9668 47.3467C67.0184 47.6162 65.9603 47.751 64.7923 47.751C63.7441 47.751 62.7109 47.6112 61.6927 47.3317C60.6845 47.0522 59.7661 46.6279 58.9375 46.0589C58.1089 45.4799 57.4501 44.7612 56.9609 43.9027C56.4718 43.0342 56.2272 42.0209 56.2272 40.863H59.9857C59.9857 41.5717 60.1055 42.1757 60.3451 42.6748C60.5946 43.1739 60.939 43.5832 61.3783 43.9027C61.8175 44.2121 62.3266 44.4417 62.9056 44.5915C63.4946 44.7412 64.1235 44.8161 64.7923 44.8161C65.6708 44.8161 66.4045 44.6913 66.9935 44.4417C67.5924 44.1922 68.0417 43.8428 68.3411 43.3936C68.6406 42.9443 68.7904 42.4252 68.7904 41.8363ZM79.1673 24.4515V47.4515H75.5436V24.4515H79.1673ZM89.2298 31.2497L82.1771 39.0661L78.3138 43.0192L77.3704 39.9645L80.2904 36.3558L84.8724 31.2497H89.2298ZM85.651 47.4515L80.3952 39.8447L82.6712 37.3141L89.8288 47.4515H85.651ZM95.3841 31.2497V47.4515H91.7604V31.2497H95.3841ZM91.5208 26.9971C91.5208 26.448 91.7005 25.9938 92.0599 25.6344C92.4293 25.2651 92.9384 25.0804 93.5872 25.0804C94.2261 25.0804 94.7303 25.2651 95.0996 25.6344C95.469 25.9938 95.6536 26.448 95.6536 26.9971C95.6536 27.5361 95.469 27.9854 95.0996 28.3447C94.7303 28.7041 94.2261 28.8838 93.5872 28.8838C92.9384 28.8838 92.4293 28.7041 92.0599 28.3447C91.7005 27.9854 91.5208 27.5361 91.5208 26.9971ZM103.201 24.4515V47.4515H99.5768V24.4515H103.201ZM111.017 24.4515V47.4515H107.393V24.4515H111.017ZM124.059 43.0641C124.059 42.7048 123.969 42.3803 123.79 42.0908C123.61 41.7913 123.266 41.5218 122.757 41.2822C122.257 41.0426 121.519 40.823 120.54 40.6234C119.682 40.4337 118.893 40.2091 118.174 39.9495C117.466 39.68 116.857 39.3556 116.348 38.9762C115.839 38.5969 115.444 38.1477 115.165 37.6286C114.885 37.1095 114.745 36.5105 114.745 35.8317C114.745 35.1729 114.89 34.5489 115.18 33.96C115.469 33.371 115.883 32.8519 116.423 32.4027C116.962 31.9535 117.615 31.5991 118.384 31.3395C119.163 31.08 120.031 30.9502 120.99 30.9502C122.347 30.9502 123.51 31.1798 124.479 31.639C125.457 32.0882 126.206 32.7022 126.725 33.4808C127.244 34.2495 127.503 35.1179 127.503 36.0863H123.895C123.895 35.657 123.785 35.2577 123.565 34.8883C123.355 34.509 123.036 34.2045 122.607 33.9749C122.178 33.7354 121.638 33.6156 120.99 33.6156C120.371 33.6156 119.857 33.7154 119.447 33.915C119.048 34.1047 118.748 34.3543 118.549 34.6637C118.359 34.9732 118.264 35.3126 118.264 35.682C118.264 35.9515 118.314 36.1961 118.414 36.4157C118.524 36.6253 118.704 36.82 118.953 36.9997C119.203 37.1694 119.542 37.3291 119.971 37.4788C120.411 37.6286 120.96 37.7733 121.618 37.9131C122.856 38.1726 123.919 38.5071 124.808 38.9163C125.706 39.3156 126.395 39.8347 126.874 40.4736C127.354 41.1025 127.593 41.9012 127.593 42.8695C127.593 43.5882 127.438 44.2471 127.129 44.846C126.829 45.435 126.39 45.9491 125.811 46.3883C125.232 46.8176 124.538 47.152 123.73 47.3916C122.931 47.6312 122.033 47.751 121.035 47.751C119.567 47.751 118.324 47.4914 117.306 46.9723C116.288 46.4433 115.514 45.7694 114.985 44.9508C114.466 44.1223 114.206 43.2638 114.206 42.3753H117.695C117.735 43.0442 117.92 43.5782 118.249 43.9775C118.589 44.3669 119.008 44.6514 119.507 44.8311C120.016 45.0008 120.54 45.0856 121.079 45.0856C121.728 45.0856 122.272 45.0008 122.712 44.8311C123.151 44.6514 123.485 44.4118 123.715 44.1123C123.944 43.8028 124.059 43.4535 124.059 43.0641Z" fill="white"/>
<path d="M68.5807 40.6383L67.7822 40.935L67.7859 40.9449L67.7898 40.9547L68.5807 40.6383ZM67.877 39.68L67.3242 40.3281L67.877 39.68ZM66.4395 38.8415L66.0841 39.6157L66.0917 39.6191L66.0993 39.6225L66.4395 38.8415ZM64.1035 37.988L63.853 38.8021L63.8548 38.8027L64.1035 37.988ZM61.2285 36.9248L60.8726 37.6988L60.8834 37.7036L61.2285 36.9248ZM58.9525 35.5472L58.4141 36.2074L58.4203 36.2124L58.9525 35.5472ZM57.4401 33.7354L56.6849 34.1294L56.6872 34.1339L57.4401 33.7354ZM57.4551 28.9287L56.6994 28.5354L56.6953 28.5436L57.4551 28.9287ZM59.0573 27.042L59.5762 27.7176L59.5776 27.7165L59.0573 27.042ZM61.528 25.7992L61.7767 26.6139L61.7845 26.6115L61.528 25.7992ZM68.8503 26.2484L68.4615 27.0064L68.4642 27.0077L68.8503 26.2484ZM71.5605 28.6592L70.8378 29.11L70.841 29.1151L71.5605 28.6592ZM72.5189 31.9984V32.8502H73.3707V31.9984H72.5189ZM68.7904 31.9984H67.9385V32.8502H68.7904V31.9984ZM68.3262 30.0967L67.5753 30.4989L67.5796 30.507L67.5841 30.515L68.3262 30.0967ZM66.9486 28.779L66.5528 29.5333L66.5579 29.5359L66.9486 28.779ZM62.4115 28.7041L62.057 27.9295L62.4115 28.7041ZM60.944 32.4775L60.2003 32.8931L60.2058 32.9026L60.944 32.4775ZM61.8125 33.4059L61.3042 34.0895L61.3099 34.0938L61.3157 34.0979L61.8125 33.4059ZM63.2799 34.1995L62.9476 34.9839L63.2799 34.1995ZM65.3613 34.9183L65.6043 34.1018L65.5967 34.0996L65.3613 34.9183ZM68.5208 36.1162L68.1467 36.8815L68.1536 36.8848L68.5208 36.1162ZM72.1146 39.4554L71.3316 39.791L71.3334 39.7951L72.1146 39.4554ZM72.0098 44.292L72.7696 44.6771L72.7717 44.673L72.0098 44.292ZM70.4225 46.1637L70.9336 46.8452L70.9352 46.844L70.4225 46.1637ZM67.9668 47.3467L68.1997 48.1661L68.2053 48.1645L67.9668 47.3467ZM61.6927 47.3317L61.4651 48.1526L61.4672 48.1532L61.6927 47.3317ZM58.9375 46.0589L58.4495 46.7572L58.4553 46.7611L58.9375 46.0589ZM56.9609 43.9027L56.2187 44.3207L56.2208 44.3244L56.9609 43.9027ZM56.2272 40.863V40.0111H55.3754V40.863H56.2272ZM59.9857 40.863H60.8375V40.0111H59.9857V40.863ZM60.3451 42.6748L59.577 43.0435L59.5831 43.0558L60.3451 42.6748ZM61.3783 43.9027L60.8772 44.5917L60.8876 44.599L61.3783 43.9027ZM62.9056 44.5915L62.6923 45.4162L62.6957 45.4171L62.9056 44.5915ZM66.9935 44.4417L66.6658 43.6554L66.6611 43.6574L66.9935 44.4417ZM69.6422 41.8363C69.6422 41.2992 69.5586 40.7894 69.3717 40.322L67.7898 40.9547C67.8823 41.186 67.9385 41.4749 67.9385 41.8363H69.6422ZM69.3793 40.3417C69.1898 39.8316 68.858 39.3971 68.4298 39.0319L67.3242 40.3281C67.5747 40.5419 67.7121 40.7463 67.7822 40.935L69.3793 40.3417ZM68.4298 39.0319C68.0026 38.6675 67.4403 38.3482 66.7796 38.0605L66.0993 39.6225C66.6764 39.8738 67.0725 40.1135 67.3242 40.3281L68.4298 39.0319ZM66.7948 38.0673C66.1391 37.7663 65.3215 37.4691 64.3522 37.1732L63.8548 38.8027C64.7822 39.0858 65.5219 39.3576 66.0841 39.6157L66.7948 38.0673ZM64.354 37.1738C63.344 36.863 62.4177 36.5201 61.5737 36.146L60.8834 37.7036C61.7963 38.1082 62.7867 38.474 63.853 38.8021L64.354 37.1738ZM61.5844 36.1508C60.7696 35.7763 60.072 35.3519 59.4846 34.882L58.4203 36.2124C59.1307 36.7807 59.9504 37.2748 60.8727 37.6988L61.5844 36.1508ZM59.4908 34.887C58.9222 34.4234 58.4944 33.9062 58.193 33.3368L56.6872 34.1339C57.1046 34.9222 57.685 35.6129 58.4142 36.2074L59.4908 34.887ZM58.1953 33.3413C57.9087 32.7919 57.7529 32.1373 57.7529 31.3545H56.0492C56.0492 32.3686 56.2528 33.3012 56.6849 34.1294L58.1953 33.3413ZM57.7529 31.3545C57.7529 30.5879 57.9112 29.913 58.2149 29.3138L56.6953 28.5436C56.2602 29.4019 56.0492 30.3442 56.0492 31.3545H57.7529ZM58.2107 29.322C58.5294 28.7098 58.9802 28.1754 59.5762 27.7176L58.5384 26.3664C57.7568 26.9668 57.1394 27.6902 56.6995 28.5354L58.2107 29.322ZM59.5776 27.7165C60.1856 27.2474 60.9146 26.8771 61.7767 26.6139L61.2793 24.9844C60.2447 25.3002 59.3265 25.7584 58.537 26.3675L59.5776 27.7165ZM61.7845 26.6115C62.6382 26.3419 63.5984 26.2018 64.6725 26.2018V24.4981C63.4506 24.4981 62.3145 24.6575 61.2715 24.9868L61.7845 26.6115ZM64.6725 26.2018C66.1854 26.2018 67.4386 26.4818 68.4615 27.0064L69.239 25.4904C67.926 24.8171 66.3941 24.4981 64.6725 24.4981V26.2018ZM68.4642 27.0077C69.5198 27.5445 70.2999 28.2477 70.8378 29.11L72.2833 28.2083C71.5634 27.0542 70.5366 26.1502 69.2364 25.489L68.4642 27.0077ZM70.841 29.1151C71.3916 29.9841 71.667 30.9385 71.667 31.9984H73.3707C73.3707 30.6225 73.0072 29.3508 72.2801 28.2032L70.841 29.1151ZM72.5189 31.1465H68.7904V32.8502H72.5189V31.1465ZM69.6422 31.9984C69.6422 31.154 69.4593 30.3721 69.0683 29.6784L67.5841 30.515C67.812 30.9193 67.9385 31.4053 67.9385 31.9984H69.6422ZM69.0771 29.6944C68.6882 28.9685 68.0956 28.4124 67.3393 28.022L66.5579 29.5359C67.0393 29.7844 67.3652 30.1068 67.5753 30.4989L69.0771 29.6944ZM67.3443 28.0246C66.577 27.6221 65.656 27.448 64.6276 27.448V29.1517C65.4759 29.1517 66.1023 29.297 66.5528 29.5333L67.3443 28.0246ZM64.6276 27.448C63.6596 27.448 62.7905 27.5939 62.057 27.9295L62.7659 29.4787C63.2104 29.2753 63.8187 29.1517 64.6276 29.1517V27.448ZM62.057 27.9295C61.3469 28.2544 60.7668 28.7185 60.3731 29.3429L61.8144 30.2515C61.9997 29.9575 62.298 29.6928 62.7659 29.4787L62.057 27.9295ZM60.3731 29.3429C59.9921 29.9473 59.8077 30.6259 59.8077 31.3545H61.5114C61.5114 30.9251 61.6164 30.5655 61.8144 30.2515L60.3731 29.3429ZM59.8077 31.3545C59.8077 31.9013 59.936 32.4199 60.2004 32.8931L61.6876 32.062C61.5727 31.8563 61.5114 31.6262 61.5114 31.3545H59.8077ZM60.2058 32.9026C60.4673 33.3568 60.8462 33.7489 61.3042 34.0895L62.3208 32.7223C62.0002 32.4839 61.8001 32.2572 61.6822 32.0525L60.2058 32.9026ZM61.3157 34.0979C61.77 34.4241 62.3186 34.7173 62.9476 34.9839L63.6123 33.4152C63.0634 33.1826 62.6336 32.9468 62.3093 32.7139L61.3157 34.0979ZM62.9476 34.9839C63.5759 35.2501 64.3035 35.5005 65.126 35.737L65.5967 34.0996C64.8219 33.8769 64.162 33.6481 63.6123 33.4152L62.9476 34.9839ZM65.1184 35.7348C66.2923 36.084 67.2997 36.4674 68.1467 36.8815L68.895 35.3509C67.9451 34.8865 66.8462 34.4713 65.6042 34.1018L65.1184 35.7348ZM68.1536 36.8848C68.9925 37.2856 69.6666 37.7306 70.1913 38.2116L71.3425 36.9557C70.6693 36.3386 69.8461 35.8053 68.8881 35.3476L68.1536 36.8848ZM70.1913 38.2116C70.7074 38.6847 71.0829 39.2108 71.3316 39.791L72.8976 39.1198C72.5473 38.3025 72.0244 37.5807 71.3425 36.9557L70.1913 38.2116ZM71.3334 39.7951C71.579 40.3601 71.712 41.0251 71.712 41.8063H73.4157C73.4157 40.8306 73.2491 39.9283 72.8958 39.1158L71.3334 39.7951ZM71.712 41.8063C71.712 42.6075 71.5517 43.3033 71.2478 43.911L72.7717 44.673C73.2065 43.8032 73.4157 42.842 73.4157 41.8063H71.712ZM71.2499 43.9069C70.9426 44.5132 70.5007 45.0381 69.9098 45.4834L70.9352 46.844C71.7219 46.2512 72.3382 45.5283 72.7696 44.6771L71.2499 43.9069ZM69.9114 45.4823C69.3276 45.9201 68.6053 46.2731 67.7283 46.5289L68.2053 48.1645C69.245 47.8612 70.1598 47.4256 70.9336 46.8452L69.9114 45.4823ZM67.7339 46.5273C66.8738 46.7717 65.8956 46.8991 64.7923 46.8991V48.6028C66.025 48.6028 67.1631 48.4607 68.1997 48.1661L67.7339 46.5273ZM64.7923 46.8991C63.8209 46.8991 62.8635 46.7697 61.9182 46.5102L61.4672 48.1532C62.5584 48.4527 63.6674 48.6028 64.7923 48.6028V46.8991ZM61.9203 46.5108C60.9991 46.2555 60.1674 45.8702 59.4197 45.3567L58.4553 46.7611C59.3647 47.3857 60.3698 47.8489 61.4651 48.1526L61.9203 46.5108ZM59.4254 45.3607C58.698 44.8523 58.1262 44.2272 57.7011 43.481L56.2208 44.3244C56.7739 45.2952 57.5199 46.1076 58.4496 46.7572L59.4254 45.3607ZM57.7032 43.4846C57.2968 42.7631 57.0791 41.8984 57.0791 40.863H55.3754C55.3754 42.1435 55.6468 43.3053 56.2187 44.3207L57.7032 43.4846ZM56.2272 41.7148H59.9857V40.0111H56.2272V41.7148ZM59.1338 40.863C59.1338 41.6648 59.2691 42.4017 59.5771 43.0434L61.113 42.3062C60.9419 41.9496 60.8375 41.4787 60.8375 40.863H59.1338ZM59.5831 43.0558C59.892 43.6735 60.3245 44.1896 60.8772 44.5916L61.8793 43.2137C61.5535 42.9768 61.2972 42.6744 61.107 42.2938L59.5831 43.0558ZM60.8876 44.599C61.4198 44.974 62.0251 45.2436 62.6923 45.4162L63.1189 43.7668C62.6281 43.6398 62.2152 43.4503 61.8689 43.2063L60.8876 44.599ZM62.6957 45.4171C63.3598 45.5859 64.0597 45.6679 64.7923 45.6679V43.9642C64.1872 43.9642 63.6294 43.8965 63.1155 43.7659L62.6957 45.4171ZM64.7923 45.6679C65.7451 45.6679 66.6003 45.5335 67.3258 45.2261L66.6611 43.6574C66.2087 43.8491 65.5965 43.9642 64.7923 43.9642V45.6679ZM67.3211 45.2281C68.0435 44.9271 68.6397 44.4814 69.0499 43.8661L67.6324 42.921C67.4436 43.2042 67.1414 43.4573 66.6659 43.6554L67.3211 45.2281ZM69.0499 43.8661C69.4512 43.2642 69.6422 42.5775 69.6422 41.8363H67.9385C67.9385 42.273 67.8301 42.6245 67.6324 42.921L69.0499 43.8661ZM79.1673 24.4515H80.0192V23.5996H79.1673V24.4515ZM79.1673 47.4515V48.3034H80.0192V47.4515H79.1673ZM75.5436 47.4515H74.6918V48.3034H75.5436V47.4515ZM75.5436 24.4515V23.5996H74.6918V24.4515H75.5436ZM89.2298 31.2497L89.8623 31.8203L91.1458 30.3978H89.2298V31.2497ZM82.1771 39.0661L82.7863 39.6615L82.7982 39.6493L82.8095 39.6367L82.1771 39.0661ZM78.3138 43.0192L77.4999 43.2706L77.9223 44.6386L78.923 43.6146L78.3138 43.0192ZM77.3704 39.9645L76.7082 39.4287L76.4225 39.7818L76.5565 40.2159L77.3704 39.9645ZM80.2904 36.3558L79.6564 35.7869L79.6418 35.8031L79.6281 35.82L80.2904 36.3558ZM84.8724 31.2497V30.3978H84.4923L84.2384 30.6807L84.8724 31.2497ZM85.651 47.4515L84.9502 47.9357L85.2042 48.3034H85.651V47.4515ZM80.3952 39.8447L79.7618 39.2751L79.3119 39.7754L79.6944 40.329L80.3952 39.8447ZM82.6712 37.3141L83.3671 36.8228L82.7515 35.951L82.0379 36.7445L82.6712 37.3141ZM89.8288 47.4515V48.3034H91.473L90.5247 46.9602L89.8288 47.4515ZM78.3155 24.4515V47.4515H80.0192V24.4515H78.3155ZM79.1673 46.5996H75.5436V48.3034H79.1673V46.5996ZM76.3955 47.4515V24.4515H74.6918V47.4515H76.3955ZM75.5436 25.3034H79.1673V23.5996H75.5436V25.3034ZM88.5974 30.679L81.5446 38.4954L82.8095 39.6367L89.8623 31.8203L88.5974 30.679ZM81.5678 38.4707L77.7046 42.4238L78.923 43.6146L82.7863 39.6615L81.5678 38.4707ZM79.1277 42.7678L78.1844 39.7132L76.5565 40.2159L77.4999 43.2706L79.1277 42.7678ZM78.0327 40.5003L80.9526 36.8916L79.6281 35.82L76.7082 39.4287L78.0327 40.5003ZM80.9244 36.9247L85.5064 31.8186L84.2384 30.6807L79.6564 35.7869L80.9244 36.9247ZM84.8724 32.1015H89.2298V30.3978H84.8724V32.1015ZM86.3519 46.9673L81.096 39.3605L79.6944 40.329L84.9502 47.9357L86.3519 46.9673ZM81.0285 40.4144L83.3046 37.8838L82.0379 36.7445L79.7618 39.2751L81.0285 40.4144ZM81.9753 37.8055L89.1329 47.9428L90.5247 46.9602L83.3671 36.8228L81.9753 37.8055ZM89.8288 46.5996H85.651V48.3034H89.8288V46.5996ZM95.3841 31.2497H96.236V30.3978H95.3841V31.2497ZM95.3841 47.4515V48.3034H96.236V47.4515H95.3841ZM91.7604 47.4515H90.9086V48.3034H91.7604V47.4515ZM91.7604 31.2497V30.3978H90.9086V31.2497H91.7604ZM92.0599 25.6344L92.6622 26.2368L92.0599 25.6344ZM95.0996 25.6344L94.4972 26.2368L94.5056 26.245L95.0996 25.6344ZM92.0599 28.3447L91.4575 28.9471L91.4659 28.9553L92.0599 28.3447ZM94.5323 31.2497V47.4515H96.236V31.2497H94.5323ZM95.3841 46.5996H91.7604V48.3034H95.3841V46.5996ZM92.6123 47.4515V31.2497H90.9086V47.4515H92.6123ZM91.7604 32.1015H95.3841V30.3978H91.7604V32.1015ZM92.3727 26.9971C92.3727 26.6539 92.4763 26.4228 92.6622 26.2368L91.4575 25.0321C90.9248 25.5649 90.669 26.2421 90.669 26.9971H92.3727ZM92.6622 26.2368C92.8351 26.0639 93.1064 25.9323 93.5872 25.9323V24.2286C92.7704 24.2286 92.0234 24.4662 91.4575 25.0321L92.6622 26.2368ZM93.5872 25.9323C94.0538 25.9323 94.3219 26.0615 94.4973 26.2368L95.702 25.0321C95.1386 24.4687 94.3984 24.2286 93.5872 24.2286V25.9323ZM94.5056 26.245C94.6985 26.4327 94.8018 26.6613 94.8018 26.9971H96.5055C96.5055 26.2348 96.2395 25.555 95.6936 25.0239L94.5056 26.245ZM94.8018 26.9971C94.8018 27.318 94.7018 27.5433 94.5056 27.7342L95.6936 28.9553C96.2361 28.4275 96.5055 27.7543 96.5055 26.9971H94.8018ZM94.5056 27.7342C94.3314 27.9037 94.0603 28.0319 93.5872 28.0319V29.7356C94.3919 29.7356 95.1291 29.5045 95.6936 28.9553L94.5056 27.7342ZM93.5872 28.0319C93.0999 28.0319 92.8257 27.9013 92.6539 27.7342L91.4659 28.9553C92.0328 29.5069 92.7768 29.7356 93.5872 29.7356V28.0319ZM92.6622 27.7424C92.4731 27.5532 92.3727 27.3254 92.3727 26.9971H90.669C90.669 27.7469 90.928 28.4175 91.4575 28.9471L92.6622 27.7424ZM103.201 24.4515H104.052V23.5996H103.201V24.4515ZM103.201 47.4515V48.3034H104.052V47.4515H103.201ZM99.5768 47.4515H98.725V48.3034H99.5768V47.4515ZM99.5768 24.4515V23.5996H98.725V24.4515H99.5768ZM102.349 24.4515V47.4515H104.052V24.4515H102.349ZM103.201 46.5996H99.5768V48.3034H103.201V46.5996ZM100.429 47.4515V24.4515H98.725V47.4515H100.429ZM99.5768 25.3034H103.201V23.5996H99.5768V25.3034ZM111.017 24.4515H111.869V23.5996H111.017V24.4515ZM111.017 47.4515V48.3034H111.869V47.4515H111.017ZM107.393 47.4515H106.541V48.3034H107.393V47.4515ZM107.393 24.4515V23.5996H106.541V24.4515H107.393ZM110.165 24.4515V47.4515H111.869V24.4515H110.165ZM111.017 46.5996H107.393V48.3034H111.017V46.5996ZM108.245 47.4515V24.4515H106.541V47.4515H108.245ZM107.393 25.3034H111.017V23.5996H107.393V25.3034ZM123.79 42.0908L123.059 42.5291L123.066 42.5401L123.79 42.0908ZM122.757 41.2822L122.388 42.0502L122.394 42.053L122.757 41.2822ZM120.54 40.6234L120.357 41.4553L120.37 41.458L120.54 40.6234ZM118.174 39.9495L117.872 40.7458L117.878 40.7483L117.885 40.7508L118.174 39.9495ZM115.18 33.96L114.415 33.5842L115.18 33.96ZM118.384 31.3395L118.115 30.5314L118.112 30.5324L118.384 31.3395ZM124.479 31.639L124.113 32.4087L124.123 32.4131L124.479 31.639ZM126.725 33.4808L126.016 33.9533L126.019 33.9575L126.725 33.4808ZM127.503 36.0863V36.9381H128.355V36.0863H127.503ZM123.895 36.0863H123.043V36.9381H123.895V36.0863ZM123.565 34.8883L122.82 35.3004L122.826 35.3121L122.833 35.3237L123.565 34.8883ZM122.607 33.9749L122.192 34.7188L122.198 34.7225L122.205 34.7261L122.607 33.9749ZM119.447 33.915L119.813 34.6845L119.821 34.6807L119.447 33.915ZM118.549 34.6637L117.833 34.2019L117.828 34.2102L117.823 34.2186L118.549 34.6637ZM118.414 36.4157L117.639 36.7682L117.648 36.7899L117.659 36.811L118.414 36.4157ZM118.953 36.9997L118.455 37.691L118.465 37.6977L118.474 37.7041L118.953 36.9997ZM119.971 37.4788L119.691 38.2832L119.696 38.2851L119.971 37.4788ZM121.618 37.9131L121.442 38.7464L121.444 38.7468L121.618 37.9131ZM124.808 38.9163L124.451 39.6901L124.462 39.6948L124.808 38.9163ZM126.874 40.4736L126.193 40.9848L126.197 40.9899L126.874 40.4736ZM127.129 44.846L126.372 44.455L126.37 44.4599L127.129 44.846ZM125.811 46.3883L126.319 47.0727L126.326 47.067L125.811 46.3883ZM123.73 47.3916L123.488 46.5748L123.485 46.5757L123.73 47.3916ZM117.306 46.9723L116.913 47.7283L116.919 47.7313L117.306 46.9723ZM114.985 44.9508L114.263 45.4032L114.27 45.4133L114.985 44.9508ZM114.206 42.3753V41.5235H113.355V42.3753H114.206ZM117.695 42.3753L118.546 42.3246L118.498 41.5235H117.695V42.3753ZM118.249 43.9775L117.592 44.5196L117.6 44.5286L117.607 44.5373L118.249 43.9775ZM119.507 44.8311L119.219 45.6326L119.228 45.636L119.238 45.6392L119.507 44.8311ZM122.712 44.8311L123.019 45.6257L123.026 45.6227L123.034 45.6195L122.712 44.8311ZM123.715 44.1123L124.391 44.6307L124.399 44.6199L123.715 44.1123ZM124.911 43.0641C124.911 42.5551 124.782 42.0735 124.513 41.6416L123.066 42.5401C123.157 42.6872 123.207 42.8544 123.207 43.0641H124.911ZM124.52 41.6525C124.215 41.1444 123.696 40.7829 123.119 40.5115L122.394 42.053C122.835 42.2607 123.005 42.4383 123.059 42.5291L124.52 41.6525ZM123.125 40.5143C122.532 40.2294 121.712 39.9931 120.711 39.7887L120.37 41.458C121.325 41.653 121.983 41.8559 122.388 42.0502L123.125 40.5143ZM120.724 39.7916C119.896 39.6087 119.143 39.3937 118.464 39.1483L117.885 40.7508C118.643 41.0245 119.467 41.2587 120.357 41.4552L120.724 39.7916ZM118.477 39.1533C117.828 38.9065 117.292 38.6173 116.857 38.2932L115.839 39.6593C116.422 40.0938 117.103 40.4535 117.872 40.7458L118.477 39.1533ZM116.857 38.2932C116.439 37.9824 116.131 37.626 115.915 37.2247L114.415 38.0324C114.758 38.6694 115.238 39.2114 115.839 39.6593L116.857 38.2932ZM115.915 37.2247C115.712 36.8474 115.597 36.3911 115.597 35.8317H113.894C113.894 36.63 114.059 37.3716 114.415 38.0324L115.915 37.2247ZM115.597 35.8317C115.597 35.3026 115.712 34.8073 115.944 34.3357L114.415 33.5842C114.068 34.2906 113.894 35.0431 113.894 35.8317H115.597ZM115.944 34.3357C116.177 33.8613 116.514 33.4352 116.968 33.0571L115.877 31.7483C115.253 32.2686 114.761 32.8807 114.415 33.5842L115.944 34.3357ZM116.968 33.0571C117.415 32.6848 117.972 32.3777 118.657 32.1466L118.112 30.5324C117.259 30.8204 116.509 31.2221 115.877 31.7483L116.968 33.0571ZM118.653 32.1477C119.332 31.9215 120.108 31.802 120.99 31.802V30.0983C119.955 30.0983 118.993 30.2385 118.115 30.5314L118.653 32.1477ZM120.99 31.802C122.254 31.802 123.285 32.016 124.114 32.4087L124.844 30.8693C123.735 30.3436 122.441 30.0983 120.99 30.0983V31.802ZM124.123 32.4131C124.98 32.8066 125.597 33.3248 126.016 33.9533L127.433 33.0083C126.814 32.0795 125.934 31.3698 124.834 30.8649L124.123 32.4131ZM126.019 33.9575C126.438 34.579 126.651 35.28 126.651 36.0863H128.355C128.355 34.9559 128.049 33.9199 127.431 33.0041L126.019 33.9575ZM127.503 35.2344H123.895V36.9381H127.503V35.2344ZM124.746 36.0863C124.746 35.5036 124.595 34.9539 124.297 34.453L122.833 35.3237C122.974 35.5615 123.043 35.8104 123.043 36.0863H124.746ZM124.311 34.4763C124.012 33.9359 123.564 33.521 123.009 33.2238L122.205 34.7261C122.508 34.888 122.699 35.0821 122.82 35.3004L124.311 34.4763ZM123.022 33.2311C122.432 32.9016 121.739 32.7637 120.99 32.7637V34.4674C121.538 34.4674 121.923 34.5691 122.192 34.7188L123.022 33.2311ZM120.99 32.7637C120.285 32.7637 119.633 32.8764 119.074 33.1494L119.821 34.6807C120.08 34.5543 120.456 34.4674 120.99 34.4674V32.7637ZM119.082 33.1456C118.568 33.3895 118.134 33.7348 117.833 34.2019L119.265 35.1256C119.363 34.9737 119.528 34.8199 119.813 34.6845L119.082 33.1456ZM117.823 34.2186C117.549 34.6645 117.412 35.1584 117.412 35.682H119.116C119.116 35.4668 119.169 35.2819 119.275 35.1089L117.823 34.2186ZM117.412 35.682C117.412 36.0588 117.483 36.4255 117.639 36.7682L119.19 36.0632C119.146 35.9666 119.116 35.8442 119.116 35.682H117.412ZM117.659 36.811C117.846 37.1676 118.129 37.4563 118.455 37.691L119.451 36.3084C119.278 36.1837 119.201 36.083 119.169 36.0204L117.659 36.811ZM118.474 37.7041C118.808 37.931 119.223 38.12 119.691 38.2832L120.252 36.6745C119.861 36.5382 119.598 36.4078 119.432 36.2953L118.474 37.7041ZM119.696 38.2851C120.179 38.4495 120.763 38.6024 121.442 38.7464L121.795 37.0798C121.156 36.9442 120.643 36.8077 120.246 36.6726L119.696 38.2851ZM121.444 38.7468C122.636 38.9968 123.635 39.314 124.452 39.69L125.164 38.1426C124.204 37.7001 123.077 37.3484 121.793 37.0794L121.444 38.7468ZM124.462 39.6948C125.258 40.0486 125.819 40.4861 126.193 40.9847L127.556 39.9625C126.971 39.1834 126.155 38.5827 125.154 38.1379L124.462 39.6948ZM126.197 40.9899C126.539 41.4396 126.741 42.0448 126.741 42.8695H128.445C128.445 41.7575 128.168 40.7655 127.552 39.9574L126.197 40.9899ZM126.741 42.8695C126.741 43.4614 126.615 43.9849 126.372 44.455L127.886 45.237C128.262 44.5093 128.445 43.715 128.445 42.8695H126.741ZM126.37 44.4599C126.134 44.9231 125.783 45.3404 125.296 45.7097L126.326 47.067C126.997 46.5579 127.525 45.9469 127.888 45.2321L126.37 44.4599ZM125.304 45.704C124.817 46.0648 124.217 46.3588 123.488 46.5749L123.972 48.2084C124.86 47.9452 125.647 47.5704 126.319 47.0727L125.304 45.704ZM123.485 46.5757C122.78 46.7873 121.966 46.8991 121.035 46.8991V48.6028C122.1 48.6028 123.083 48.4751 123.975 48.2075L123.485 46.5757ZM121.035 46.8991C119.665 46.8991 118.562 46.6566 117.693 46.2134L116.919 47.7313C118.086 48.3263 119.47 48.6028 121.035 48.6028V46.8991ZM117.699 46.2164C116.788 45.7434 116.136 45.1624 115.7 44.4884L114.27 45.4133C114.892 46.3764 115.787 47.1431 116.913 47.7282L117.699 46.2164ZM115.707 44.4986C115.264 43.7915 115.058 43.088 115.058 42.3753H113.355C113.355 43.4396 113.668 44.4531 114.263 45.4031L115.707 44.4986ZM114.206 43.2272H117.695V41.5235H114.206V43.2272ZM116.845 42.4261C116.892 43.222 117.118 43.9451 117.592 44.5196L118.906 43.4354C118.722 43.2113 118.578 42.8663 118.546 42.3246L116.845 42.4261ZM117.607 44.5373C118.045 45.0391 118.587 45.4051 119.219 45.6326L119.796 44.0296C119.429 43.8976 119.133 43.6947 118.891 43.4178L117.607 44.5373ZM119.238 45.6392C119.834 45.838 120.449 45.9375 121.079 45.9375V44.2338C120.632 44.2338 120.198 44.1635 119.777 44.0229L119.238 45.6392ZM121.079 45.9375C121.796 45.9375 122.452 45.8446 123.019 45.6257L122.405 44.0365C122.093 44.157 121.66 44.2338 121.079 44.2338V45.9375ZM123.034 45.6195C123.578 45.3972 124.049 45.077 124.391 44.6306L123.039 43.594C122.922 43.7466 122.724 43.9056 122.389 44.0426L123.034 45.6195ZM124.399 44.6199C124.739 44.162 124.911 43.6342 124.911 43.0641H123.207C123.207 43.2727 123.15 43.4437 123.031 43.6047L124.399 44.6199Z" fill="black"/>
<g filter="url(#filter0_d_248_3)">
<rect x="22.5781" y="87" width="61.8693" height="49.8392" rx="6.87437" fill="url(#paint0_linear_248_3)"/>
</g>
<path d="M55.7054 119.003H58.2229C58.1423 119.963 57.8738 120.819 57.4173 121.571C56.9608 122.316 56.3196 122.903 55.4939 123.333C54.6682 123.763 53.6646 123.977 52.483 123.977C51.5767 123.977 50.7611 123.816 50.036 123.494C49.311 123.165 48.69 122.702 48.1731 122.104C47.6562 121.5 47.2601 120.772 46.9849 119.919C46.7163 119.067 46.5821 118.113 46.5821 117.059V115.841C46.5821 114.787 46.7197 113.834 46.9949 112.981C47.2769 112.129 47.6797 111.4 48.2033 110.796C48.727 110.185 49.3546 109.718 50.0864 109.396C50.8248 109.074 51.6539 108.913 52.5737 108.913C53.7418 108.913 54.7286 109.128 55.5342 109.557C56.3398 109.987 56.9641 110.581 57.4072 111.34C57.857 112.098 58.1322 112.968 58.2329 113.948H55.7155C55.6483 113.317 55.5006 112.776 55.2724 112.327C55.0508 111.877 54.7219 111.534 54.2855 111.299C53.8492 111.058 53.2785 110.937 52.5737 110.937C51.9963 110.937 51.4928 111.044 51.0632 111.259C50.6335 111.474 50.2744 111.79 49.9857 112.206C49.697 112.622 49.4788 113.136 49.3312 113.746C49.1902 114.351 49.1197 115.042 49.1197 115.821V117.059C49.1197 117.798 49.1835 118.469 49.311 119.073C49.4453 119.671 49.6467 120.184 49.9152 120.614C50.1904 121.044 50.5395 121.376 50.9625 121.611C51.3854 121.846 51.8923 121.963 52.483 121.963C53.2013 121.963 53.782 121.849 54.2251 121.621C54.6749 121.393 55.0139 121.061 55.2422 120.624C55.4771 120.181 55.6315 119.641 55.7054 119.003Z" fill="url(#paint1_linear_248_3)"/>
<g filter="url(#filter1_d_248_3)">
<rect x="97.3369" y="87" width="147.799" height="50.6985" rx="6.87437" fill="url(#paint2_linear_248_3)"/>
</g>
<path d="M142.903 118.494H139.086V116.49H142.903C143.568 116.49 144.105 116.383 144.514 116.168C144.924 115.953 145.222 115.658 145.41 115.282C145.605 114.899 145.702 114.463 145.702 113.972C145.702 113.509 145.605 113.076 145.41 112.673C145.222 112.264 144.924 111.935 144.514 111.687C144.105 111.438 143.568 111.314 142.903 111.314H139.862V123.962H137.334V109.3H142.903C144.037 109.3 145.001 109.501 145.793 109.904C146.592 110.3 147.199 110.851 147.616 111.556C148.032 112.254 148.24 113.053 148.24 113.952C148.24 114.899 148.032 115.711 147.616 116.389C147.199 117.067 146.592 117.588 145.793 117.95C145.001 118.313 144.037 118.494 142.903 118.494ZM153.587 122.774L156.548 113.066H159.146L154.775 125.623C154.675 125.892 154.544 126.184 154.383 126.499C154.222 126.815 154.01 127.114 153.748 127.396C153.493 127.684 153.174 127.916 152.792 128.09C152.409 128.272 151.946 128.362 151.402 128.362C151.187 128.362 150.979 128.342 150.778 128.302C150.583 128.268 150.398 128.231 150.224 128.191L150.214 126.338C150.281 126.345 150.361 126.352 150.455 126.358C150.556 126.365 150.637 126.369 150.697 126.369C151.1 126.369 151.436 126.318 151.704 126.217C151.973 126.123 152.191 125.969 152.359 125.754C152.533 125.539 152.681 125.251 152.802 124.888L153.587 122.774ZM151.916 113.066L154.503 121.223L154.936 123.781L153.255 124.214L149.297 113.066H151.916ZM165.53 113.066V114.838H159.387V113.066H165.53ZM161.16 110.398H163.586V120.951C163.586 121.287 163.633 121.545 163.727 121.726C163.828 121.901 163.966 122.018 164.14 122.079C164.315 122.139 164.52 122.169 164.755 122.169C164.922 122.169 165.084 122.159 165.238 122.139C165.392 122.119 165.517 122.099 165.611 122.079L165.621 123.932C165.419 123.992 165.184 124.046 164.916 124.093C164.654 124.14 164.352 124.163 164.009 124.163C163.452 124.163 162.959 124.066 162.529 123.871C162.1 123.67 161.764 123.344 161.522 122.894C161.28 122.445 161.16 121.847 161.16 121.102V110.398ZM169.8 108.494V123.962H167.383V108.494H169.8ZM169.377 118.111L168.591 118.101C168.598 117.349 168.702 116.654 168.903 116.017C169.112 115.379 169.4 114.825 169.769 114.355C170.145 113.879 170.595 113.513 171.119 113.258C171.642 112.996 172.223 112.865 172.861 112.865C173.398 112.865 173.881 112.939 174.311 113.086C174.747 113.234 175.123 113.472 175.439 113.801C175.754 114.124 175.993 114.546 176.154 115.07C176.322 115.587 176.405 116.218 176.405 116.963V123.962H173.969V116.943C173.969 116.419 173.891 116.003 173.737 115.694C173.589 115.386 173.371 115.164 173.082 115.03C172.794 114.889 172.441 114.818 172.025 114.818C171.589 114.818 171.203 114.906 170.867 115.08C170.538 115.255 170.263 115.493 170.041 115.795C169.82 116.097 169.652 116.446 169.538 116.842C169.43 117.238 169.377 117.661 169.377 118.111ZM178.399 118.635V118.403C178.399 117.618 178.513 116.889 178.742 116.218C178.97 115.54 179.299 114.953 179.729 114.456C180.165 113.952 180.695 113.563 181.32 113.288C181.951 113.006 182.662 112.865 183.454 112.865C184.253 112.865 184.965 113.006 185.589 113.288C186.22 113.563 186.754 113.952 187.19 114.456C187.627 114.953 187.959 115.54 188.187 116.218C188.415 116.889 188.53 117.618 188.53 118.403V118.635C188.53 119.42 188.415 120.149 188.187 120.82C187.959 121.491 187.627 122.079 187.19 122.582C186.754 123.079 186.224 123.468 185.599 123.75C184.975 124.026 184.267 124.163 183.475 124.163C182.676 124.163 181.961 124.026 181.33 123.75C180.705 123.468 180.175 123.079 179.739 122.582C179.302 122.079 178.97 121.491 178.742 120.82C178.513 120.149 178.399 119.42 178.399 118.635ZM180.826 118.403V118.635C180.826 119.125 180.876 119.588 180.977 120.024C181.078 120.461 181.236 120.844 181.45 121.172C181.665 121.501 181.941 121.76 182.276 121.948C182.612 122.136 183.011 122.23 183.475 122.23C183.924 122.23 184.314 122.136 184.643 121.948C184.978 121.76 185.254 121.501 185.468 121.172C185.683 120.844 185.841 120.461 185.942 120.024C186.049 119.588 186.103 119.125 186.103 118.635V118.403C186.103 117.92 186.049 117.463 185.942 117.034C185.841 116.597 185.68 116.211 185.458 115.876C185.243 115.54 184.968 115.278 184.633 115.09C184.304 114.896 183.911 114.798 183.454 114.798C182.998 114.798 182.602 114.896 182.266 115.09C181.937 115.278 181.665 115.54 181.45 115.876C181.236 116.211 181.078 116.597 180.977 117.034C180.876 117.463 180.826 117.92 180.826 118.403ZM192.97 115.392V123.962H190.544V113.066H192.829L192.97 115.392ZM192.537 118.111L191.752 118.101C191.759 117.329 191.866 116.621 192.074 115.976C192.289 115.332 192.584 114.778 192.96 114.315C193.343 113.852 193.799 113.496 194.33 113.247C194.86 112.992 195.451 112.865 196.102 112.865C196.626 112.865 197.099 112.939 197.522 113.086C197.952 113.227 198.318 113.459 198.62 113.781C198.928 114.103 199.163 114.523 199.324 115.04C199.486 115.55 199.566 116.178 199.566 116.923V123.962H197.129V116.913C197.129 116.389 197.052 115.976 196.898 115.674C196.75 115.365 196.532 115.147 196.243 115.02C195.961 114.885 195.609 114.818 195.186 114.818C194.77 114.818 194.397 114.906 194.068 115.08C193.739 115.255 193.46 115.493 193.232 115.795C193.011 116.097 192.839 116.446 192.719 116.842C192.598 117.238 192.537 117.661 192.537 118.111Z" fill="url(#paint3_linear_248_3)"/>
<g filter="url(#filter2_d_248_3)">
<rect x="258.025" y="87" width="147.799" height="49.8392" rx="6.87437" fill="url(#paint4_linear_248_3)"/>
</g>
<path d="M302.433 123.776H299.302L299.322 121.772H302.433C303.34 121.772 304.098 121.574 304.709 121.178C305.327 120.782 305.79 120.215 306.099 119.476C306.414 118.738 306.572 117.858 306.572 116.838V116.042C306.572 115.25 306.481 114.549 306.3 113.938C306.126 113.327 305.864 112.813 305.515 112.397C305.172 111.981 304.749 111.665 304.246 111.45C303.749 111.236 303.175 111.128 302.524 111.128H299.241V109.114H302.524C303.497 109.114 304.387 109.279 305.193 109.608C305.998 109.93 306.693 110.397 307.277 111.007C307.868 111.618 308.321 112.35 308.636 113.203C308.952 114.055 309.11 115.009 309.11 116.062V116.838C309.11 117.892 308.952 118.845 308.636 119.698C308.321 120.55 307.868 121.282 307.277 121.893C306.686 122.497 305.981 122.964 305.162 123.293C304.35 123.615 303.44 123.776 302.433 123.776ZM300.701 109.114V123.776H298.174V109.114H300.701ZM311.526 112.88H313.963V124.723C313.963 125.468 313.836 126.095 313.581 126.606C313.326 127.123 312.95 127.512 312.453 127.774C311.956 128.042 311.349 128.177 310.63 128.177C310.415 128.177 310.194 128.16 309.966 128.126C309.731 128.099 309.509 128.059 309.301 128.005L309.311 126.112C309.452 126.139 309.603 126.159 309.764 126.173C309.919 126.193 310.066 126.203 310.207 126.203C310.496 126.203 310.738 126.153 310.932 126.052C311.127 125.951 311.275 125.793 311.375 125.579C311.476 125.364 311.526 125.078 311.526 124.723V112.88ZM311.315 110.021C311.315 109.651 311.439 109.346 311.688 109.104C311.936 108.856 312.275 108.732 312.705 108.732C313.141 108.732 313.48 108.856 313.722 109.104C313.97 109.346 314.094 109.651 314.094 110.021C314.094 110.383 313.97 110.685 313.722 110.927C313.48 111.169 313.141 111.289 312.705 111.289C312.275 111.289 311.936 111.169 311.688 110.927C311.439 110.685 311.315 110.383 311.315 110.021ZM322.724 121.591V116.395C322.724 116.005 322.654 115.67 322.513 115.388C322.372 115.106 322.157 114.888 321.868 114.733C321.586 114.579 321.23 114.502 320.801 114.502C320.405 114.502 320.062 114.569 319.774 114.703C319.485 114.837 319.26 115.019 319.099 115.247C318.938 115.475 318.857 115.734 318.857 116.022H316.441C316.441 115.593 316.545 115.176 316.753 114.774C316.961 114.371 317.263 114.012 317.659 113.696C318.055 113.381 318.528 113.132 319.079 112.951C319.629 112.77 320.247 112.679 320.932 112.679C321.751 112.679 322.476 112.817 323.107 113.092C323.745 113.367 324.245 113.783 324.607 114.341C324.976 114.891 325.161 115.582 325.161 116.415V121.259C325.161 121.755 325.195 122.202 325.262 122.598C325.336 122.987 325.44 123.326 325.574 123.615V123.776H323.087C322.973 123.514 322.882 123.182 322.815 122.779C322.754 122.37 322.724 121.974 322.724 121.591ZM323.077 117.15L323.097 118.65H321.355C320.905 118.65 320.509 118.694 320.166 118.781C319.824 118.862 319.539 118.983 319.311 119.144C319.082 119.305 318.911 119.5 318.797 119.728C318.683 119.956 318.626 120.215 318.626 120.503C318.626 120.792 318.693 121.057 318.827 121.299C318.961 121.534 319.156 121.718 319.411 121.853C319.673 121.987 319.989 122.054 320.358 122.054C320.855 122.054 321.288 121.953 321.657 121.752C322.033 121.544 322.328 121.292 322.543 120.997C322.758 120.695 322.872 120.409 322.885 120.141L323.671 121.218C323.59 121.494 323.453 121.789 323.258 122.104C323.063 122.42 322.808 122.722 322.493 123.011C322.184 123.293 321.811 123.524 321.375 123.706C320.945 123.887 320.448 123.977 319.884 123.977C319.173 123.977 318.538 123.836 317.981 123.554C317.424 123.266 316.988 122.88 316.672 122.396C316.357 121.906 316.199 121.353 316.199 120.735C316.199 120.158 316.306 119.647 316.521 119.204C316.743 118.755 317.065 118.379 317.488 118.076C317.918 117.774 318.441 117.546 319.059 117.392C319.676 117.231 320.381 117.15 321.173 117.15H323.077ZM330.105 115.207V123.776H327.679V112.88H329.964L330.105 115.207ZM329.672 117.925L328.887 117.915C328.894 117.143 329.001 116.435 329.209 115.791C329.424 115.146 329.719 114.592 330.095 114.129C330.478 113.666 330.935 113.31 331.465 113.062C331.995 112.807 332.586 112.679 333.237 112.679C333.761 112.679 334.234 112.753 334.657 112.901C335.087 113.042 335.453 113.273 335.755 113.595C336.063 113.918 336.298 114.337 336.46 114.854C336.621 115.364 336.701 115.992 336.701 116.737V123.776H334.264V116.727C334.264 116.203 334.187 115.791 334.033 115.489C333.885 115.18 333.667 114.962 333.378 114.834C333.096 114.7 332.744 114.633 332.321 114.633C331.905 114.633 331.532 114.72 331.203 114.894C330.874 115.069 330.595 115.307 330.367 115.609C330.146 115.911 329.975 116.261 329.854 116.657C329.733 117.053 329.672 117.476 329.672 117.925ZM346.157 112.88H348.362V123.474C348.362 124.454 348.154 125.286 347.738 125.971C347.322 126.656 346.741 127.176 345.996 127.532C345.251 127.895 344.388 128.076 343.408 128.076C342.992 128.076 342.528 128.015 342.018 127.895C341.515 127.774 341.025 127.579 340.548 127.311C340.078 127.049 339.685 126.703 339.37 126.273L340.508 124.843C340.897 125.307 341.327 125.646 341.797 125.86C342.266 126.075 342.76 126.183 343.277 126.183C343.834 126.183 344.307 126.079 344.697 125.871C345.093 125.669 345.398 125.37 345.613 124.974C345.828 124.578 345.935 124.095 345.935 123.524V115.348L346.157 112.88ZM338.755 118.449V118.238C338.755 117.412 338.856 116.66 339.058 115.982C339.259 115.297 339.548 114.71 339.924 114.22C340.299 113.723 340.756 113.344 341.293 113.082C341.83 112.813 342.438 112.679 343.116 112.679C343.821 112.679 344.421 112.807 344.918 113.062C345.422 113.317 345.841 113.683 346.177 114.159C346.513 114.629 346.774 115.193 346.962 115.851C347.157 116.502 347.301 117.227 347.395 118.026V118.701C347.308 119.48 347.16 120.191 346.952 120.836C346.744 121.48 346.469 122.037 346.127 122.507C345.784 122.977 345.361 123.34 344.858 123.595C344.361 123.85 343.774 123.977 343.096 123.977C342.431 123.977 341.83 123.84 341.293 123.565C340.763 123.289 340.306 122.903 339.924 122.407C339.548 121.91 339.259 121.326 339.058 120.654C338.856 119.976 338.755 119.241 338.755 118.449ZM341.182 118.238V118.449C341.182 118.946 341.229 119.409 341.323 119.839C341.424 120.268 341.575 120.648 341.776 120.977C341.985 121.299 342.246 121.554 342.562 121.742C342.884 121.923 343.263 122.014 343.7 122.014C344.27 122.014 344.737 121.893 345.099 121.651C345.469 121.41 345.751 121.084 345.945 120.674C346.147 120.258 346.288 119.795 346.368 119.285V117.462C346.328 117.066 346.244 116.697 346.117 116.355C345.996 116.012 345.831 115.713 345.623 115.458C345.415 115.196 345.153 114.995 344.838 114.854C344.522 114.706 344.15 114.633 343.72 114.633C343.284 114.633 342.904 114.727 342.582 114.915C342.26 115.102 341.995 115.361 341.786 115.69C341.585 116.019 341.434 116.402 341.333 116.838C341.233 117.274 341.182 117.741 341.182 118.238ZM350.416 118.449V118.217C350.416 117.432 350.53 116.704 350.759 116.032C350.987 115.354 351.316 114.767 351.746 114.27C352.182 113.767 352.712 113.377 353.337 113.102C353.968 112.82 354.679 112.679 355.471 112.679C356.27 112.679 356.982 112.82 357.606 113.102C358.237 113.377 358.771 113.767 359.207 114.27C359.644 114.767 359.976 115.354 360.204 116.032C360.433 116.704 360.547 117.432 360.547 118.217V118.449C360.547 119.235 360.433 119.963 360.204 120.634C359.976 121.306 359.644 121.893 359.207 122.396C358.771 122.893 358.241 123.283 357.616 123.565C356.992 123.84 356.284 123.977 355.492 123.977C354.693 123.977 353.978 123.84 353.347 123.565C352.722 123.283 352.192 122.893 351.756 122.396C351.319 121.893 350.987 121.306 350.759 120.634C350.53 119.963 350.416 119.235 350.416 118.449ZM352.843 118.217V118.449C352.843 118.939 352.894 119.402 352.994 119.839C353.095 120.275 353.253 120.658 353.468 120.987C353.682 121.316 353.958 121.574 354.293 121.762C354.629 121.95 355.028 122.044 355.492 122.044C355.941 122.044 356.331 121.95 356.66 121.762C356.995 121.574 357.271 121.316 357.485 120.987C357.7 120.658 357.858 120.275 357.959 119.839C358.066 119.402 358.12 118.939 358.12 118.449V118.217C358.12 117.734 358.066 117.278 357.959 116.848C357.858 116.412 357.697 116.026 357.475 115.69C357.261 115.354 356.985 115.092 356.65 114.904C356.321 114.71 355.928 114.612 355.471 114.612C355.015 114.612 354.619 114.71 354.283 114.904C353.954 115.092 353.682 115.354 353.468 115.69C353.253 116.026 353.095 116.412 352.994 116.848C352.894 117.278 352.843 117.734 352.843 118.217Z" fill="url(#paint5_linear_248_3)"/>
<g filter="url(#filter3_d_248_3)">
<rect x="261.463" y="148.869" width="147.799" height="49.8392" rx="6.87437" fill="url(#paint6_linear_248_3)"/>
</g>
<path d="M307.616 169.66V184.322H305.088V169.66H307.616ZM313.597 176.074V178.078H306.971V176.074H313.597ZM314.433 169.66V171.674H306.971V169.66H314.433ZM318.804 168.854V184.322H316.367V168.854H318.804ZM327.605 182.136V176.94C327.605 176.551 327.534 176.215 327.393 175.933C327.252 175.651 327.037 175.433 326.749 175.279C326.467 175.124 326.111 175.047 325.681 175.047C325.285 175.047 324.943 175.114 324.654 175.249C324.366 175.383 324.141 175.564 323.979 175.792C323.818 176.021 323.738 176.279 323.738 176.568H321.321C321.321 176.138 321.425 175.722 321.633 175.319C321.841 174.916 322.143 174.557 322.54 174.242C322.936 173.926 323.409 173.678 323.959 173.496C324.51 173.315 325.127 173.225 325.812 173.225C326.631 173.225 327.356 173.362 327.987 173.637C328.625 173.913 329.125 174.329 329.488 174.886C329.857 175.437 330.042 176.128 330.042 176.961V181.804C330.042 182.301 330.075 182.747 330.142 183.143C330.216 183.533 330.32 183.872 330.454 184.16V184.322H327.967C327.853 184.06 327.762 183.727 327.695 183.325C327.635 182.915 327.605 182.519 327.605 182.136ZM327.957 177.696L327.977 179.196H326.235C325.785 179.196 325.389 179.24 325.047 179.327C324.705 179.408 324.419 179.528 324.191 179.689C323.963 179.851 323.792 180.045 323.677 180.274C323.563 180.502 323.506 180.76 323.506 181.049C323.506 181.338 323.573 181.603 323.708 181.844C323.842 182.079 324.037 182.264 324.292 182.398C324.553 182.533 324.869 182.6 325.238 182.6C325.735 182.6 326.168 182.499 326.537 182.298C326.913 182.089 327.209 181.838 327.423 181.542C327.638 181.24 327.752 180.955 327.766 180.686L328.551 181.764C328.471 182.039 328.333 182.334 328.138 182.65C327.944 182.966 327.689 183.268 327.373 183.556C327.064 183.838 326.692 184.07 326.255 184.251C325.826 184.432 325.329 184.523 324.765 184.523C324.053 184.523 323.419 184.382 322.862 184.1C322.305 183.811 321.868 183.425 321.553 182.942C321.237 182.452 321.079 181.898 321.079 181.28C321.079 180.703 321.187 180.193 321.402 179.75C321.623 179.3 321.945 178.924 322.368 178.622C322.798 178.32 323.322 178.092 323.939 177.937C324.557 177.776 325.262 177.696 326.054 177.696H327.957ZM338.692 181.371C338.692 181.129 338.631 180.911 338.51 180.717C338.389 180.515 338.158 180.334 337.816 180.173C337.48 180.012 336.983 179.864 336.325 179.73C335.748 179.602 335.217 179.451 334.734 179.277C334.257 179.095 333.848 178.877 333.506 178.622C333.163 178.367 332.898 178.065 332.71 177.716C332.522 177.367 332.428 176.964 332.428 176.507C332.428 176.064 332.525 175.645 332.72 175.249C332.915 174.853 333.193 174.503 333.556 174.201C333.918 173.899 334.358 173.661 334.875 173.486C335.399 173.312 335.983 173.225 336.627 173.225C337.54 173.225 338.322 173.379 338.974 173.688C339.631 173.99 340.135 174.403 340.484 174.926C340.833 175.443 341.008 176.027 341.008 176.679H338.581C338.581 176.39 338.507 176.121 338.359 175.873C338.218 175.618 338.003 175.413 337.715 175.259C337.426 175.098 337.064 175.017 336.627 175.017C336.211 175.017 335.865 175.084 335.59 175.218C335.322 175.346 335.12 175.514 334.986 175.722C334.858 175.93 334.795 176.158 334.795 176.407C334.795 176.588 334.828 176.752 334.895 176.9C334.969 177.041 335.09 177.172 335.258 177.293C335.426 177.407 335.654 177.514 335.943 177.615C336.238 177.716 336.607 177.813 337.05 177.907C337.883 178.082 338.598 178.307 339.195 178.582C339.799 178.85 340.262 179.199 340.585 179.629C340.907 180.052 341.068 180.589 341.068 181.24C341.068 181.724 340.964 182.167 340.756 182.569C340.555 182.966 340.259 183.311 339.87 183.607C339.48 183.895 339.014 184.12 338.47 184.281C337.933 184.442 337.329 184.523 336.657 184.523C335.671 184.523 334.835 184.348 334.15 183.999C333.465 183.644 332.945 183.19 332.589 182.64C332.24 182.083 332.066 181.505 332.066 180.908H334.412C334.439 181.358 334.563 181.717 334.784 181.985C335.013 182.247 335.295 182.439 335.63 182.559C335.973 182.673 336.325 182.731 336.688 182.731C337.124 182.731 337.49 182.673 337.785 182.559C338.081 182.439 338.306 182.277 338.46 182.076C338.614 181.868 338.692 181.633 338.692 181.371ZM345.64 168.854V184.322H343.203V168.854H345.64ZM352.407 173.426L347.664 178.682L345.066 181.341L344.431 179.287L346.395 176.86L349.476 173.426H352.407ZM350 184.322L346.466 179.206L347.996 177.504L352.81 184.322H350Z" fill="url(#paint7_linear_248_3)"/>
<g filter="url(#filter4_d_248_3)">
<rect x="190.141" y="152.307" width="61.0101" height="46.402" rx="6.87437" fill="url(#paint8_linear_248_3)"/>
</g>
<path d="M213.147 179.062V168.801H215.664V179.062C215.664 180.035 215.456 180.864 215.04 181.549C214.624 182.234 214.056 182.757 213.338 183.12C212.62 183.482 211.804 183.664 210.891 183.664C209.958 183.664 209.129 183.506 208.404 183.19C207.686 182.875 207.122 182.392 206.712 181.74C206.303 181.089 206.098 180.263 206.098 179.263H208.635C208.635 179.841 208.726 180.307 208.907 180.663C209.095 181.012 209.357 181.267 209.693 181.428C210.035 181.583 210.435 181.66 210.891 181.66C211.328 181.66 211.714 181.562 212.049 181.368C212.392 181.166 212.66 180.874 212.855 180.492C213.049 180.102 213.147 179.626 213.147 179.062ZM224.445 180.512C224.445 180.27 224.385 180.052 224.264 179.857C224.143 179.656 223.912 179.475 223.569 179.314C223.233 179.152 222.737 179.005 222.079 178.87C221.501 178.743 220.971 178.592 220.488 178.417C220.011 178.236 219.602 178.018 219.259 177.763C218.917 177.508 218.652 177.206 218.464 176.856C218.276 176.507 218.182 176.105 218.182 175.648C218.182 175.205 218.279 174.785 218.474 174.389C218.668 173.993 218.947 173.644 219.31 173.342C219.672 173.04 220.112 172.802 220.629 172.627C221.152 172.453 221.736 172.365 222.381 172.365C223.294 172.365 224.076 172.52 224.727 172.829C225.385 173.131 225.889 173.543 226.238 174.067C226.587 174.584 226.761 175.168 226.761 175.819H224.334C224.334 175.531 224.261 175.262 224.113 175.014C223.972 174.759 223.757 174.554 223.468 174.399C223.18 174.238 222.817 174.158 222.381 174.158C221.965 174.158 221.619 174.225 221.344 174.359C221.075 174.487 220.874 174.655 220.739 174.863C220.612 175.071 220.548 175.299 220.548 175.547C220.548 175.729 220.582 175.893 220.649 176.041C220.723 176.182 220.844 176.313 221.011 176.434C221.179 176.548 221.407 176.655 221.696 176.756C221.992 176.856 222.361 176.954 222.804 177.048C223.636 177.222 224.351 177.447 224.949 177.722C225.553 177.991 226.016 178.34 226.338 178.77C226.661 179.193 226.822 179.73 226.822 180.381C226.822 180.864 226.718 181.307 226.51 181.71C226.308 182.106 226.013 182.452 225.623 182.747C225.234 183.036 224.767 183.261 224.224 183.422C223.687 183.583 223.082 183.664 222.411 183.664C221.424 183.664 220.588 183.489 219.904 183.14C219.219 182.784 218.699 182.331 218.343 181.781C217.994 181.223 217.819 180.646 217.819 180.049H220.166C220.192 180.498 220.317 180.858 220.538 181.126C220.766 181.388 221.048 181.579 221.384 181.7C221.726 181.814 222.079 181.871 222.441 181.871C222.878 181.871 223.244 181.814 223.539 181.7C223.834 181.579 224.059 181.418 224.214 181.217C224.368 181.009 224.445 180.774 224.445 180.512Z" fill="url(#paint9_linear_248_3)"/>
<g filter="url(#filter5_d_248_3)">
<rect x="20" y="152.307" width="163.266" height="46.402" rx="6.87437" fill="url(#paint10_linear_248_3)"/>
</g>
<path d="M53.1966 168.801V183.462H50.6892V168.801H53.1966ZM57.7986 168.801V170.815H46.1276V168.801H57.7986ZM63.3269 183.664C62.5213 183.664 61.793 183.533 61.1418 183.271C60.4973 183.002 59.9468 182.63 59.4903 182.153C59.0405 181.677 58.6948 181.116 58.4531 180.472C58.2114 179.827 58.0906 179.132 58.0906 178.387V177.984C58.0906 177.132 58.2148 176.36 58.4632 175.668C58.7116 174.977 59.0573 174.386 59.5004 173.896C59.9435 173.399 60.4671 173.02 61.0713 172.758C61.6755 172.496 62.33 172.365 63.0349 172.365C63.8136 172.365 64.495 172.496 65.0791 172.758C65.6631 173.02 66.1465 173.389 66.5292 173.866C66.9185 174.336 67.2072 174.896 67.3952 175.547C67.5898 176.199 67.6872 176.917 67.6872 177.702V178.74H59.2688V176.997H65.2906V176.806C65.2771 176.37 65.1899 175.96 65.0287 175.578C64.8743 175.195 64.636 174.886 64.3138 174.651C63.9915 174.416 63.5619 174.299 63.0248 174.299C62.622 174.299 62.2629 174.386 61.9474 174.561C61.6385 174.728 61.3801 174.973 61.172 175.296C60.9639 175.618 60.8027 176.007 60.6886 176.464C60.5812 176.914 60.5275 177.42 60.5275 177.984V178.387C60.5275 178.864 60.5913 179.307 60.7188 179.716C60.8531 180.119 61.0478 180.472 61.3029 180.774C61.558 181.076 61.8668 181.314 62.2293 181.489C62.5918 181.656 63.0047 181.74 63.4679 181.74C64.052 181.74 64.5722 181.623 65.0287 181.388C65.4852 181.153 65.8813 180.821 66.217 180.391L67.4959 181.63C67.2609 181.972 66.9554 182.301 66.5795 182.616C66.2036 182.925 65.7437 183.177 65.1999 183.372C64.6629 183.566 64.0385 183.664 63.3269 183.664ZM71.987 174.893V183.462H69.5602V172.567H71.846L71.987 174.893ZM71.554 177.612L70.7686 177.602C70.7753 176.83 70.8827 176.121 71.0908 175.477C71.3056 174.832 71.601 174.279 71.977 173.815C72.3596 173.352 72.8161 172.996 73.3465 172.748C73.8768 172.493 74.4676 172.365 75.1188 172.365C75.6424 172.365 76.1157 172.439 76.5386 172.587C76.9683 172.728 77.3341 172.959 77.6362 173.282C77.945 173.604 78.18 174.023 78.3411 174.54C78.5022 175.051 78.5828 175.678 78.5828 176.423V183.462H76.1459V176.413C76.1459 175.89 76.0687 175.477 75.9143 175.175C75.7666 174.866 75.5484 174.648 75.2597 174.52C74.9778 174.386 74.6253 174.319 74.2024 174.319C73.7862 174.319 73.4136 174.406 73.0846 174.581C72.7557 174.755 72.4771 174.994 72.2488 175.296C72.0273 175.598 71.8561 175.947 71.7353 176.343C71.6144 176.739 71.554 177.162 71.554 177.612ZM87.1724 180.512C87.1724 180.27 87.112 180.052 86.9911 179.857C86.8703 179.656 86.6387 179.475 86.2963 179.314C85.9607 179.152 85.4639 179.005 84.806 178.87C84.2286 178.743 83.6983 178.592 83.2149 178.417C82.7383 178.236 82.3288 178.018 81.9864 177.763C81.644 177.508 81.3789 177.206 81.1909 176.856C81.0029 176.507 80.9089 176.105 80.9089 175.648C80.9089 175.205 81.0063 174.785 81.201 174.389C81.3957 173.993 81.6743 173.644 82.0368 173.342C82.3993 173.04 82.839 172.802 83.3559 172.627C83.8796 172.453 84.4636 172.365 85.1081 172.365C86.0211 172.365 86.8032 172.52 87.4544 172.829C88.1123 173.131 88.6158 173.543 88.9648 174.067C89.3139 174.584 89.4885 175.168 89.4885 175.819H87.0616C87.0616 175.531 86.9878 175.262 86.8401 175.014C86.6991 174.759 86.4843 174.554 86.1956 174.399C85.907 174.238 85.5444 174.158 85.1081 174.158C84.6919 174.158 84.3461 174.225 84.0709 174.359C83.8024 174.487 83.601 174.655 83.4667 174.863C83.3391 175.071 83.2754 175.299 83.2754 175.547C83.2754 175.729 83.3089 175.893 83.3761 176.041C83.4499 176.182 83.5707 176.313 83.7386 176.434C83.9064 176.548 84.1347 176.655 84.4233 176.756C84.7187 176.856 85.0879 176.954 85.531 177.048C86.3635 177.222 87.0784 177.447 87.6759 177.722C88.2801 177.991 88.7433 178.34 89.0655 178.77C89.3878 179.193 89.5489 179.73 89.5489 180.381C89.5489 180.864 89.4448 181.307 89.2367 181.71C89.0353 182.106 88.74 182.452 88.3506 182.747C87.9612 183.036 87.4946 183.261 86.9509 183.422C86.4138 183.583 85.8096 183.664 85.1383 183.664C84.1514 183.664 83.3156 183.489 82.6309 183.14C81.9461 182.784 81.4259 182.331 81.0701 181.781C80.721 181.223 80.5464 180.646 80.5464 180.049H82.8927C82.9196 180.498 83.0438 180.858 83.2653 181.126C83.4935 181.388 83.7755 181.579 84.1112 181.7C84.4535 181.814 84.806 181.871 85.1685 181.871C85.6049 181.871 85.9707 181.814 86.2661 181.7C86.5615 181.579 86.7864 181.418 86.9408 181.217C87.0952 181.009 87.1724 180.774 87.1724 180.512ZM91.2104 178.135V177.904C91.2104 177.118 91.3246 176.39 91.5528 175.719C91.7811 175.041 92.11 174.453 92.5397 173.956C92.976 173.453 93.5064 173.063 94.1307 172.788C94.7617 172.506 95.4733 172.365 96.2655 172.365C97.0644 172.365 97.776 172.506 98.4003 172.788C99.0314 173.063 99.5651 173.453 100.001 173.956C100.438 174.453 100.77 175.041 100.998 175.719C101.227 176.39 101.341 177.118 101.341 177.904V178.135C101.341 178.921 101.227 179.649 100.998 180.321C100.77 180.992 100.438 181.579 100.001 182.083C99.5651 182.58 99.0347 182.969 98.4104 183.251C97.7861 183.526 97.0778 183.664 96.2857 183.664C95.4868 183.664 94.7718 183.526 94.1408 183.251C93.5164 182.969 92.9861 182.58 92.5497 182.083C92.1134 181.579 91.7811 180.992 91.5528 180.321C91.3246 179.649 91.2104 178.921 91.2104 178.135ZM93.6373 177.904V178.135C93.6373 178.625 93.6876 179.089 93.7883 179.525C93.889 179.961 94.0468 180.344 94.2616 180.673C94.4764 181.002 94.7517 181.26 95.0873 181.448C95.423 181.636 95.8224 181.73 96.2857 181.73C96.7354 181.73 97.1248 181.636 97.4538 181.448C97.7894 181.26 98.0647 181.002 98.2795 180.673C98.4943 180.344 98.6521 179.961 98.7528 179.525C98.8602 179.089 98.9139 178.625 98.9139 178.135V177.904C98.9139 177.42 98.8602 176.964 98.7528 176.534C98.6521 176.098 98.491 175.712 98.2694 175.376C98.0546 175.041 97.7793 174.779 97.4437 174.591C97.1147 174.396 96.722 174.299 96.2655 174.299C95.809 174.299 95.4129 174.396 95.0773 174.591C94.7483 174.779 94.4764 175.041 94.2616 175.376C94.0468 175.712 93.889 176.098 93.7883 176.534C93.6876 176.964 93.6373 177.42 93.6373 177.904ZM105.812 174.641V183.462H103.385V172.567H105.701L105.812 174.641ZM109.145 172.496L109.125 174.752C108.977 174.725 108.816 174.705 108.641 174.691C108.474 174.678 108.306 174.671 108.138 174.671C107.722 174.671 107.356 174.732 107.04 174.853C106.725 174.967 106.46 175.135 106.245 175.356C106.037 175.571 105.876 175.833 105.761 176.142C105.647 176.45 105.58 176.796 105.56 177.179L105.006 177.219C105.006 176.534 105.073 175.9 105.208 175.316C105.342 174.732 105.543 174.218 105.812 173.775C106.087 173.332 106.429 172.986 106.839 172.738C107.255 172.489 107.735 172.365 108.279 172.365C108.427 172.365 108.584 172.379 108.752 172.406C108.927 172.432 109.058 172.463 109.145 172.496ZM113.948 183.462H111.521V171.59C111.521 170.764 111.683 170.069 112.005 169.505C112.334 168.942 112.807 168.515 113.425 168.227C114.042 167.931 114.787 167.784 115.66 167.784C116.009 167.784 116.446 167.807 116.969 167.854C117.5 167.901 118.05 167.961 118.621 168.035C119.191 168.102 119.715 168.173 120.192 168.247L119.144 170.11C118.52 169.996 117.939 169.908 117.402 169.848C116.865 169.781 116.378 169.747 115.942 169.747C115.512 169.747 115.15 169.821 114.855 169.969C114.559 170.11 114.334 170.318 114.18 170.593C114.025 170.862 113.948 171.194 113.948 171.59V183.462ZM117.765 183.462V168.247H120.192V183.462H117.765ZM116.194 172.567V174.339H109.85V172.567H116.194ZM122.427 178.135V177.904C122.427 177.118 122.541 176.39 122.769 175.719C122.998 175.041 123.327 174.453 123.756 173.956C124.193 173.453 124.723 173.063 125.347 172.788C125.978 172.506 126.69 172.365 127.482 172.365C128.281 172.365 128.993 172.506 129.617 172.788C130.248 173.063 130.782 173.453 131.218 173.956C131.654 174.453 131.987 175.041 132.215 175.719C132.443 176.39 132.557 177.118 132.557 177.904V178.135C132.557 178.921 132.443 179.649 132.215 180.321C131.987 180.992 131.654 181.579 131.218 182.083C130.782 182.58 130.251 182.969 129.627 183.251C129.003 183.526 128.294 183.664 127.502 183.664C126.703 183.664 125.988 183.526 125.357 183.251C124.733 182.969 124.203 182.58 123.766 182.083C123.33 181.579 122.998 180.992 122.769 180.321C122.541 179.649 122.427 178.921 122.427 178.135ZM124.854 177.904V178.135C124.854 178.625 124.904 179.089 125.005 179.525C125.106 179.961 125.263 180.344 125.478 180.673C125.693 181.002 125.968 181.26 126.304 181.448C126.64 181.636 127.039 181.73 127.502 181.73C127.952 181.73 128.341 181.636 128.67 181.448C129.006 181.26 129.281 181.002 129.496 180.673C129.711 180.344 129.869 179.961 129.969 179.525C130.077 179.089 130.131 178.625 130.131 178.135V177.904C130.131 177.42 130.077 176.964 129.969 176.534C129.869 176.098 129.708 175.712 129.486 175.376C129.271 175.041 128.996 174.779 128.66 174.591C128.331 174.396 127.939 174.299 127.482 174.299C127.026 174.299 126.63 174.396 126.294 174.591C125.965 174.779 125.693 175.041 125.478 175.376C125.263 175.712 125.106 176.098 125.005 176.534C124.904 176.964 124.854 177.42 124.854 177.904ZM137.552 181.046L140.069 172.567H141.62L141.197 175.104L138.66 183.462H137.27L137.552 181.046ZM136.072 172.567L138.035 181.086L138.196 183.462H136.646L133.695 172.567H136.072ZM143.977 180.985L145.88 172.567H148.246L145.306 183.462H143.755L143.977 180.985ZM141.882 172.567L144.369 180.945L144.681 183.462H143.292L140.724 175.094L140.301 172.567H141.882Z" fill="url(#paint11_linear_248_3)"/>
<g filter="url(#filter6_d_248_3)">
<rect x="20" y="212.457" width="128.894" height="45.5427" rx="6.87437" fill="url(#paint12_linear_248_3)"/>
</g>
<path d="M69.1155 235.074V237.078H61.3315V235.074H69.1155ZM61.9558 228.951V243.613H59.4283V228.951H61.9558ZM71.059 228.951V243.613H68.5415V228.951H71.059ZM79.7996 228.951V243.613H77.2922V228.951H79.7996ZM84.4016 228.951V230.965H72.7306V228.951H84.4016ZM87.3621 228.951H89.6178L93.8572 240.26L98.0865 228.951H100.342L94.7433 243.613H92.9509L87.3621 228.951ZM86.335 228.951H88.4799L88.8525 238.739V243.613H86.335V228.951ZM99.2244 228.951H101.379V243.613H98.8518V238.739L99.2244 228.951ZM113.564 241.609V243.613H106.203V241.609H113.564ZM106.908 228.951V243.613H104.38V228.951H106.908Z" fill="url(#paint13_linear_248_3)"/>
<g filter="url(#filter7_d_248_3)">
<rect x="156.628" y="212.457" width="88.5075" height="45.5427" rx="6.87437" fill="url(#paint14_linear_248_3)"/>
</g>
<path d="M194.541 238.84H197.058C196.977 239.8 196.709 240.656 196.252 241.408C195.796 242.153 195.155 242.74 194.329 243.17C193.503 243.6 192.5 243.814 191.318 243.814C190.412 243.814 189.596 243.653 188.871 243.331C188.146 243.002 187.525 242.539 187.008 241.941C186.491 241.337 186.095 240.609 185.82 239.756C185.552 238.904 185.417 237.95 185.417 236.896V235.678C185.417 234.624 185.555 233.671 185.83 232.818C186.112 231.966 186.515 231.237 187.039 230.633C187.562 230.022 188.19 229.556 188.922 229.233C189.66 228.911 190.489 228.75 191.409 228.75C192.577 228.75 193.564 228.965 194.369 229.394C195.175 229.824 195.799 230.418 196.242 231.177C196.692 231.935 196.967 232.805 197.068 233.785H194.551C194.484 233.154 194.336 232.613 194.108 232.164C193.886 231.714 193.557 231.371 193.121 231.136C192.684 230.895 192.114 230.774 191.409 230.774C190.831 230.774 190.328 230.881 189.898 231.096C189.469 231.311 189.11 231.627 188.821 232.043C188.532 232.459 188.314 232.973 188.166 233.583C188.025 234.188 187.955 234.879 187.955 235.658V236.896C187.955 237.635 188.019 238.306 188.146 238.91C188.28 239.508 188.482 240.021 188.75 240.451C189.026 240.881 189.375 241.213 189.798 241.448C190.221 241.683 190.727 241.8 191.318 241.8C192.037 241.8 192.617 241.686 193.06 241.458C193.51 241.23 193.849 240.898 194.077 240.461C194.312 240.018 194.467 239.478 194.541 238.84ZM205.225 240.663C205.225 240.421 205.164 240.203 205.043 240.008C204.923 239.807 204.691 239.625 204.349 239.464C204.013 239.303 203.516 239.155 202.858 239.021C202.281 238.894 201.751 238.743 201.267 238.568C200.791 238.387 200.381 238.169 200.039 237.914C199.696 237.658 199.431 237.356 199.243 237.007C199.055 236.658 198.961 236.255 198.961 235.799C198.961 235.356 199.059 234.936 199.253 234.54C199.448 234.144 199.727 233.795 200.089 233.493C200.452 233.191 200.891 232.952 201.408 232.778C201.932 232.603 202.516 232.516 203.16 232.516C204.073 232.516 204.855 232.67 205.507 232.979C206.165 233.281 206.668 233.694 207.017 234.218C207.366 234.735 207.541 235.319 207.541 235.97H205.114C205.114 235.681 205.04 235.413 204.892 235.164C204.751 234.909 204.537 234.705 204.248 234.55C203.959 234.389 203.597 234.308 203.16 234.308C202.744 234.308 202.398 234.376 202.123 234.51C201.855 234.637 201.653 234.805 201.519 235.013C201.391 235.222 201.328 235.45 201.328 235.698C201.328 235.879 201.361 236.044 201.428 236.192C201.502 236.333 201.623 236.463 201.791 236.584C201.959 236.698 202.187 236.806 202.476 236.907C202.771 237.007 203.14 237.105 203.583 237.199C204.416 237.373 205.131 237.598 205.728 237.873C206.332 238.142 206.796 238.491 207.118 238.921C207.44 239.343 207.601 239.88 207.601 240.532C207.601 241.015 207.497 241.458 207.289 241.861C207.088 242.257 206.792 242.603 206.403 242.898C206.014 243.187 205.547 243.412 205.003 243.573C204.466 243.734 203.862 243.814 203.191 243.814C202.204 243.814 201.368 243.64 200.683 243.291C199.998 242.935 199.478 242.482 199.122 241.931C198.773 241.374 198.599 240.797 198.599 240.199H200.945C200.972 240.649 201.096 241.008 201.318 241.277C201.546 241.539 201.828 241.73 202.163 241.851C202.506 241.965 202.858 242.022 203.221 242.022C203.657 242.022 204.023 241.965 204.318 241.851C204.614 241.73 204.839 241.569 204.993 241.367C205.148 241.159 205.225 240.924 205.225 240.663ZM215.838 240.663C215.838 240.421 215.778 240.203 215.657 240.008C215.536 239.807 215.305 239.625 214.962 239.464C214.627 239.303 214.13 239.155 213.472 239.021C212.895 238.894 212.364 238.743 211.881 238.568C211.404 238.387 210.995 238.169 210.652 237.914C210.31 237.658 210.045 237.356 209.857 237.007C209.669 236.658 209.575 236.255 209.575 235.799C209.575 235.356 209.672 234.936 209.867 234.54C210.062 234.144 210.34 233.795 210.703 233.493C211.065 233.191 211.505 232.952 212.022 232.778C212.546 232.603 213.13 232.516 213.774 232.516C214.687 232.516 215.469 232.67 216.12 232.979C216.778 233.281 217.282 233.694 217.631 234.218C217.98 234.735 218.154 235.319 218.154 235.97H215.728C215.728 235.681 215.654 235.413 215.506 235.164C215.365 234.909 215.15 234.705 214.862 234.55C214.573 234.389 214.21 234.308 213.774 234.308C213.358 234.308 213.012 234.376 212.737 234.51C212.468 234.637 212.267 234.805 212.133 235.013C212.005 235.222 211.941 235.45 211.941 235.698C211.941 235.879 211.975 236.044 212.042 236.192C212.116 236.333 212.237 236.463 212.405 236.584C212.572 236.698 212.801 236.806 213.089 236.907C213.385 237.007 213.754 237.105 214.197 237.199C215.029 237.373 215.744 237.598 216.342 237.873C216.946 238.142 217.409 238.491 217.732 238.921C218.054 239.343 218.215 239.88 218.215 240.532C218.215 241.015 218.111 241.458 217.903 241.861C217.701 242.257 217.406 242.603 217.017 242.898C216.627 243.187 216.161 243.412 215.617 243.573C215.08 243.734 214.476 243.814 213.804 243.814C212.817 243.814 211.982 243.64 211.297 243.291C210.612 242.935 210.092 242.482 209.736 241.931C209.387 241.374 209.212 240.797 209.212 240.199H211.559C211.586 240.649 211.71 241.008 211.931 241.277C212.16 241.539 212.441 241.73 212.777 241.851C213.119 241.965 213.472 242.022 213.834 242.022C214.271 242.022 214.637 241.965 214.932 241.851C215.227 241.73 215.452 241.569 215.607 241.367C215.761 241.159 215.838 240.924 215.838 240.663Z" fill="url(#paint15_linear_248_3)"/>
<g filter="url(#filter8_d_248_3)">
<rect x="259.744" y="212.457" width="69.603" height="45.5427" rx="6.87437" fill="url(#paint16_linear_248_3)"/>
</g>
<path d="M289.804 238.84H292.321C292.241 239.8 291.972 240.656 291.516 241.408C291.059 242.153 290.418 242.74 289.592 243.17C288.767 243.6 287.763 243.814 286.582 243.814C285.675 243.814 284.86 243.653 284.135 243.331C283.41 243.002 282.789 242.539 282.272 241.941C281.755 241.337 281.359 240.609 281.083 239.756C280.815 238.904 280.681 237.95 280.681 236.896V235.678C280.681 234.624 280.818 233.671 281.094 232.818C281.375 231.966 281.778 231.237 282.302 230.633C282.826 230.022 283.453 229.556 284.185 229.233C284.923 228.911 285.753 228.75 286.672 228.75C287.84 228.75 288.827 228.965 289.633 229.394C290.438 229.824 291.063 230.418 291.506 231.177C291.956 231.935 292.231 232.805 292.331 233.785H289.814C289.747 233.154 289.599 232.613 289.371 232.164C289.149 231.714 288.82 231.371 288.384 231.136C287.948 230.895 287.377 230.774 286.672 230.774C286.095 230.774 285.591 230.881 285.162 231.096C284.732 231.311 284.373 231.627 284.084 232.043C283.796 232.459 283.577 232.973 283.43 233.583C283.289 234.188 283.218 234.879 283.218 235.658V236.896C283.218 237.635 283.282 238.306 283.41 238.91C283.544 239.508 283.745 240.021 284.014 240.451C284.289 240.881 284.638 241.213 285.061 241.448C285.484 241.683 285.991 241.8 286.582 241.8C287.3 241.8 287.881 241.686 288.324 241.458C288.773 241.23 289.112 240.898 289.341 240.461C289.576 240.018 289.73 239.478 289.804 238.84ZM303.841 235.577V237.762H293.792V235.577H303.841ZM299.995 231.469V242.143H297.648V231.469H299.995ZM315.301 235.577V237.762H305.251V235.577H315.301ZM311.454 231.469V242.143H309.108V231.469H311.454Z" fill="url(#paint17_linear_248_3)"/>
<defs>
<filter id="filter0_d_248_3" x="19.1409" y="87" width="68.7435" height="56.7136" filterUnits="userSpaceOnUse" color-interpolation-filters="sRGB">
<feFlood flood-opacity="0" result="BackgroundImageFix"/>
<feColorMatrix in="SourceAlpha" type="matrix" values="0 0 0 0 0 0 0 0 0 0 0 0 0 0 0 0 0 0 127 0" result="hardAlpha"/>
<feOffset dy="3.43719"/>
<feGaussianBlur stdDeviation="1.71859"/>
<feComposite in2="hardAlpha" operator="out"/>
<feColorMatrix type="matrix" values="0 0 0 0 0 0 0 0 0 0 0 0 0 0 0 0 0 0 0.25 0"/>
<feBlend mode="normal" in2="BackgroundImageFix" result="effect1_dropShadow_248_3"/>
<feBlend mode="normal" in="SourceGraphic" in2="effect1_dropShadow_248_3" result="shape"/>
</filter>
<filter id="filter1_d_248_3" x="93.8997" y="87" width="154.673" height="57.5729" filterUnits="userSpaceOnUse" color-interpolation-filters="sRGB">
<feFlood flood-opacity="0" result="BackgroundImageFix"/>
<feColorMatrix in="SourceAlpha" type="matrix" values="0 0 0 0 0 0 0 0 0 0 0 0 0 0 0 0 0 0 127 0" result="hardAlpha"/>
<feOffset dy="3.43719"/>
<feGaussianBlur stdDeviation="1.71859"/>
<feComposite in2="hardAlpha" operator="out"/>
<feColorMatrix type="matrix" values="0 0 0 0 0 0 0 0 0 0 0 0 0 0 0 0 0 0 0.25 0"/>
<feBlend mode="normal" in2="BackgroundImageFix" result="effect1_dropShadow_248_3"/>
<feBlend mode="normal" in="SourceGraphic" in2="effect1_dropShadow_248_3" result="shape"/>
</filter>
<filter id="filter2_d_248_3" x="254.588" y="87" width="154.673" height="56.7136" filterUnits="userSpaceOnUse" color-interpolation-filters="sRGB">
<feFlood flood-opacity="0" result="BackgroundImageFix"/>
<feColorMatrix in="SourceAlpha" type="matrix" values="0 0 0 0 0 0 0 0 0 0 0 0 0 0 0 0 0 0 127 0" result="hardAlpha"/>
<feOffset dy="3.43719"/>
<feGaussianBlur stdDeviation="1.71859"/>
<feComposite in2="hardAlpha" operator="out"/>
<feColorMatrix type="matrix" values="0 0 0 0 0 0 0 0 0 0 0 0 0 0 0 0 0 0 0.25 0"/>
<feBlend mode="normal" in2="BackgroundImageFix" result="effect1_dropShadow_248_3"/>
<feBlend mode="normal" in="SourceGraphic" in2="effect1_dropShadow_248_3" result="shape"/>
</filter>
<filter id="filter3_d_248_3" x="258.026" y="148.869" width="154.673" height="56.7136" filterUnits="userSpaceOnUse" color-interpolation-filters="sRGB">
<feFlood flood-opacity="0" result="BackgroundImageFix"/>
<feColorMatrix in="SourceAlpha" type="matrix" values="0 0 0 0 0 0 0 0 0 0 0 0 0 0 0 0 0 0 127 0" result="hardAlpha"/>
<feOffset dy="3.43719"/>
<feGaussianBlur stdDeviation="1.71859"/>
<feComposite in2="hardAlpha" operator="out"/>
<feColorMatrix type="matrix" values="0 0 0 0 0 0 0 0 0 0 0 0 0 0 0 0 0 0 0.25 0"/>
<feBlend mode="normal" in2="BackgroundImageFix" result="effect1_dropShadow_248_3"/>
<feBlend mode="normal" in="SourceGraphic" in2="effect1_dropShadow_248_3" result="shape"/>
</filter>
<filter id="filter4_d_248_3" x="186.703" y="152.307" width="67.8841" height="53.2764" filterUnits="userSpaceOnUse" color-interpolation-filters="sRGB">
<feFlood flood-opacity="0" result="BackgroundImageFix"/>
<feColorMatrix in="SourceAlpha" type="matrix" values="0 0 0 0 0 0 0 0 0 0 0 0 0 0 0 0 0 0 127 0" result="hardAlpha"/>
<feOffset dy="3.43719"/>
<feGaussianBlur stdDeviation="1.71859"/>
<feComposite in2="hardAlpha" operator="out"/>
<feColorMatrix type="matrix" values="0 0 0 0 0 0 0 0 0 0 0 0 0 0 0 0 0 0 0.25 0"/>
<feBlend mode="normal" in2="BackgroundImageFix" result="effect1_dropShadow_248_3"/>
<feBlend mode="normal" in="SourceGraphic" in2="effect1_dropShadow_248_3" result="shape"/>
</filter>
<filter id="filter5_d_248_3" x="16.5628" y="152.307" width="170.141" height="53.2764" filterUnits="userSpaceOnUse" color-interpolation-filters="sRGB">
<feFlood flood-opacity="0" result="BackgroundImageFix"/>
<feColorMatrix in="SourceAlpha" type="matrix" values="0 0 0 0 0 0 0 0 0 0 0 0 0 0 0 0 0 0 127 0" result="hardAlpha"/>
<feOffset dy="3.43719"/>
<feGaussianBlur stdDeviation="1.71859"/>
<feComposite in2="hardAlpha" operator="out"/>
<feColorMatrix type="matrix" values="0 0 0 0 0 0 0 0 0 0 0 0 0 0 0 0 0 0 0.25 0"/>
<feBlend mode="normal" in2="BackgroundImageFix" result="effect1_dropShadow_248_3"/>
<feBlend mode="normal" in="SourceGraphic" in2="effect1_dropShadow_248_3" result="shape"/>
</filter>
<filter id="filter6_d_248_3" x="16.5628" y="212.457" width="135.769" height="52.4171" filterUnits="userSpaceOnUse" color-interpolation-filters="sRGB">
<feFlood flood-opacity="0" result="BackgroundImageFix"/>
<feColorMatrix in="SourceAlpha" type="matrix" values="0 0 0 0 0 0 0 0 0 0 0 0 0 0 0 0 0 0 127 0" result="hardAlpha"/>
<feOffset dy="3.43719"/>
<feGaussianBlur stdDeviation="1.71859"/>
<feComposite in2="hardAlpha" operator="out"/>
<feColorMatrix type="matrix" values="0 0 0 0 0 0 0 0 0 0 0 0 0 0 0 0 0 0 0.25 0"/>
<feBlend mode="normal" in2="BackgroundImageFix" result="effect1_dropShadow_248_3"/>
<feBlend mode="normal" in="SourceGraphic" in2="effect1_dropShadow_248_3" result="shape"/>
</filter>
<filter id="filter7_d_248_3" x="153.191" y="212.457" width="95.3822" height="52.4171" filterUnits="userSpaceOnUse" color-interpolation-filters="sRGB">
<feFlood flood-opacity="0" result="BackgroundImageFix"/>
<feColorMatrix in="SourceAlpha" type="matrix" values="0 0 0 0 0 0 0 0 0 0 0 0 0 0 0 0 0 0 127 0" result="hardAlpha"/>
<feOffset dy="3.43719"/>
<feGaussianBlur stdDeviation="1.71859"/>
<feComposite in2="hardAlpha" operator="out"/>
<feColorMatrix type="matrix" values="0 0 0 0 0 0 0 0 0 0 0 0 0 0 0 0 0 0 0.25 0"/>
<feBlend mode="normal" in2="BackgroundImageFix" result="effect1_dropShadow_248_3"/>
<feBlend mode="normal" in="SourceGraphic" in2="effect1_dropShadow_248_3" result="shape"/>
</filter>
<filter id="filter8_d_248_3" x="256.307" y="212.457" width="76.4769" height="52.4171" filterUnits="userSpaceOnUse" color-interpolation-filters="sRGB">
<feFlood flood-opacity="0" result="BackgroundImageFix"/>
<feColorMatrix in="SourceAlpha" type="matrix" values="0 0 0 0 0 0 0 0 0 0 0 0 0 0 0 0 0 0 127 0" result="hardAlpha"/>
<feOffset dy="3.43719"/>
<feGaussianBlur stdDeviation="1.71859"/>
<feComposite in2="hardAlpha" operator="out"/>
<feColorMatrix type="matrix" values="0 0 0 0 0 0 0 0 0 0 0 0 0 0 0 0 0 0 0.25 0"/>
<feBlend mode="normal" in2="BackgroundImageFix" result="effect1_dropShadow_248_3"/>
<feBlend mode="normal" in="SourceGraphic" in2="effect1_dropShadow_248_3" result="shape"/>
</filter>
<linearGradient id="paint0_linear_248_3" x1="22.5776" y1="87.0001" x2="72.3976" y2="146.867" gradientUnits="userSpaceOnUse">
<stop stop-color="#D9D9D9"/>
<stop offset="1" stop-color="white"/>
</linearGradient>
<linearGradient id="paint1_linear_248_3" x1="52.2917" y1="97.776" x2="52.2917" y2="136.839" gradientUnits="userSpaceOnUse">
<stop stop-color="#F2F2F2"/>
<stop offset="0.140625" stop-color="#B80000"/>
</linearGradient>
<linearGradient id="paint2_linear_248_3" x1="97.3358" y1="87.0001" x2="129.786" y2="178.574" gradientUnits="userSpaceOnUse">
<stop stop-color="#D9D9D9"/>
<stop offset="1" stop-color="white"/>
</linearGradient>
<linearGradient id="paint3_linear_248_3" x1="168.319" y1="97.9618" x2="168.319" y2="137.698" gradientUnits="userSpaceOnUse">
<stop stop-color="#F2F2F2"/>
<stop offset="0.140625" stop-color="#B80000"/>
</linearGradient>
<linearGradient id="paint4_linear_248_3" x1="258.024" y1="87.0001" x2="289.502" y2="177.361" gradientUnits="userSpaceOnUse">
<stop stop-color="#D9D9D9"/>
<stop offset="1" stop-color="white"/>
</linearGradient>
<linearGradient id="paint5_linear_248_3" x1="329.008" y1="97.776" x2="329.008" y2="136.839" gradientUnits="userSpaceOnUse">
<stop stop-color="#F2F2F2"/>
<stop offset="0.140625" stop-color="#B80000"/>
</linearGradient>
<linearGradient id="paint6_linear_248_3" x1="261.462" y1="148.869" x2="292.939" y2="239.23" gradientUnits="userSpaceOnUse">
<stop stop-color="#D9D9D9"/>
<stop offset="1" stop-color="white"/>
</linearGradient>
<linearGradient id="paint7_linear_248_3" x1="328.148" y1="158.322" x2="328.148" y2="197.385" gradientUnits="userSpaceOnUse">
<stop stop-color="#F2F2F2"/>
<stop offset="0.140625" stop-color="#B80000"/>
</linearGradient>
<linearGradient id="paint8_linear_248_3" x1="190.14" y1="152.307" x2="235.97" y2="210.636" gradientUnits="userSpaceOnUse">
<stop stop-color="#D9D9D9"/>
<stop offset="1" stop-color="white"/>
</linearGradient>
<linearGradient id="paint9_linear_248_3" x1="216.661" y1="157.462" x2="216.661" y2="195.428" gradientUnits="userSpaceOnUse">
<stop stop-color="#F2F2F2"/>
<stop offset="0.140625" stop-color="#B80000"/>
</linearGradient>
<linearGradient id="paint10_linear_248_3" x1="19.9987" y1="152.307" x2="45.4986" y2="239.158" gradientUnits="userSpaceOnUse">
<stop stop-color="#D9D9D9"/>
<stop offset="1" stop-color="white"/>
</linearGradient>
<linearGradient id="paint11_linear_248_3" x1="97.1617" y1="157.462" x2="97.1617" y2="187.538" gradientUnits="userSpaceOnUse">
<stop stop-color="#F2F2F2"/>
<stop offset="0.140625" stop-color="#B80000"/>
</linearGradient>
<linearGradient id="paint12_linear_248_3" x1="19.999" y1="212.457" x2="49.8224" y2="294.162" gradientUnits="userSpaceOnUse">
<stop stop-color="#D9D9D9"/>
<stop offset="1" stop-color="white"/>
</linearGradient>
<linearGradient id="paint13_linear_248_3" x1="85.9825" y1="217.613" x2="85.9825" y2="247.131" gradientUnits="userSpaceOnUse">
<stop stop-color="#F2F2F2"/>
<stop offset="0.140625" stop-color="#B80000"/>
</linearGradient>
<linearGradient id="paint14_linear_248_3" x1="156.627" y1="212.457" x2="195.002" y2="284.649" gradientUnits="userSpaceOnUse">
<stop stop-color="#D9D9D9"/>
<stop offset="1" stop-color="white"/>
</linearGradient>
<linearGradient id="paint15_linear_248_3" x1="201.741" y1="217.613" x2="201.741" y2="247.131" gradientUnits="userSpaceOnUse">
<stop stop-color="#F2F2F2"/>
<stop offset="0.140625" stop-color="#B80000"/>
</linearGradient>
<linearGradient id="paint16_linear_248_3" x1="259.744" y1="212.457" x2="302.702" y2="276.01" gradientUnits="userSpaceOnUse">
<stop stop-color="#D9D9D9"/>
<stop offset="1" stop-color="white"/>
</linearGradient>
<linearGradient id="paint17_linear_248_3" x1="297.85" y1="217.613" x2="297.85" y2="247.131" gradientUnits="userSpaceOnUse">
<stop stop-color="#F2F2F2"/>
<stop offset="0.140625" stop-color="#B80000"/>
</linearGradient>
</defs>
</svg>
