<svg width="258" height="251" viewBox="0 0 258 251" fill="none" xmlns="http://www.w3.org/2000/svg">
<g id="Python-skill">
<path id="Ellipse 8" d="M246.5 124.5C246.5 187.444 193.686 238.5 128.5 238.5C63.3141 238.5 10.5 187.444 10.5 124.5C10.5 61.5556 63.3141 10.5 128.5 10.5C193.686 10.5 246.5 61.5556 246.5 124.5Z" fill="white" stroke="black"/>
<path id="Ellipse 10" d="M127.757 10.6522C156.085 10.2389 183.563 19.6536 205.208 37.1891C226.854 54.7246 241.232 79.2198 245.737 106.233C250.242 133.246 244.575 160.987 229.763 184.428C214.951 207.868 191.976 225.454 165.003 233.997C138.031 242.541 108.847 241.476 82.7438 230.995C56.6408 220.514 35.3472 201.312 22.7243 176.87C10.1015 152.429 6.98521 124.366 13.9407 97.7719C20.8961 71.1774 37.4627 47.8117 60.6362 31.9121L76.4932 53.6145C58.7122 65.8143 46.0006 83.7427 40.6637 104.149C35.3268 124.555 37.7179 146.087 47.4034 164.841C57.0889 183.595 73.4275 198.329 93.4564 206.371C113.485 214.413 135.878 215.23 156.574 208.675C177.27 202.119 194.899 188.625 206.264 170.64C217.629 152.654 221.978 131.368 218.521 110.641C215.065 89.9137 204.032 71.1186 187.423 57.6636C170.815 44.2086 149.731 36.9847 127.995 37.3018L127.757 10.6522Z" fill="#4B2CA3"/>
<ellipse id="Ellipse 9" cx="129.074" cy="125" rx="91.0742" ry="88" fill="#EDE1FF"/>
<path id="Python 90%" d="M84.3506 110.044C87.3514 110.044 89.5377 110.633 90.9095 111.812C92.2812 112.991 92.9671 114.652 92.9671 116.796C92.9671 117.739 92.8064 118.65 92.4849 119.529C92.1848 120.386 91.6811 121.158 90.9738 121.844C90.2664 122.529 89.3233 123.076 88.1445 123.483C86.9656 123.869 85.5188 124.062 83.804 124.062H81.1676V133H78.274V110.044H84.3506ZM84.0934 112.52H81.1676V121.586H83.4825C84.9401 121.586 86.1511 121.436 87.1156 121.136C88.0802 120.815 88.7982 120.311 89.2697 119.625C89.7413 118.939 89.9771 118.039 89.9771 116.924C89.9771 115.445 89.5055 114.342 88.5624 113.613C87.6193 112.884 86.1296 112.52 84.0934 112.52ZM94.6541 115.767H97.6763L101.406 125.573C101.62 126.152 101.813 126.709 101.985 127.245C102.177 127.781 102.349 128.306 102.499 128.82C102.649 129.313 102.767 129.796 102.853 130.267H102.981C103.11 129.731 103.313 129.035 103.592 128.177C103.871 127.299 104.16 126.42 104.46 125.541L107.965 115.767H111.019L103.592 135.379C103.185 136.451 102.703 137.383 102.145 138.176C101.609 138.991 100.945 139.612 100.152 140.041C99.3803 140.491 98.4372 140.716 97.3226 140.716C96.8082 140.716 96.3581 140.684 95.9723 140.62C95.5865 140.577 95.2542 140.523 94.9756 140.459V138.208C95.2114 138.251 95.49 138.294 95.8115 138.337C96.1545 138.38 96.5081 138.401 96.8725 138.401C97.537 138.401 98.105 138.273 98.5765 138.016C99.0695 137.78 99.4875 137.426 99.8304 136.955C100.173 136.504 100.463 135.969 100.698 135.347L101.599 133.064L94.6541 115.767ZM119.499 131.007C119.928 131.007 120.368 130.974 120.818 130.91C121.268 130.824 121.632 130.739 121.911 130.653V132.807C121.611 132.957 121.182 133.075 120.625 133.161C120.067 133.268 119.532 133.322 119.017 133.322C118.117 133.322 117.281 133.171 116.509 132.871C115.759 132.55 115.148 132.003 114.677 131.232C114.205 130.46 113.969 129.378 113.969 127.984V117.953H111.526V116.603L114.002 115.478L115.127 111.812H116.799V115.767H121.782V117.953H116.799V127.92C116.799 128.97 117.045 129.753 117.538 130.267C118.053 130.76 118.706 131.007 119.499 131.007ZM128.191 115.735C128.191 116.142 128.169 116.56 128.126 116.989C128.105 117.417 128.073 117.803 128.03 118.146H128.223C128.587 117.546 129.048 117.053 129.605 116.667C130.163 116.281 130.784 115.992 131.47 115.799C132.156 115.585 132.863 115.478 133.592 115.478C134.985 115.478 136.143 115.703 137.065 116.153C138.008 116.581 138.715 117.257 139.187 118.178C139.658 119.1 139.894 120.3 139.894 121.779V133H137.097V121.972C137.097 120.579 136.786 119.539 136.164 118.853C135.543 118.168 134.567 117.825 133.239 117.825C131.952 117.825 130.945 118.071 130.216 118.564C129.488 119.036 128.962 119.743 128.641 120.686C128.341 121.608 128.191 122.744 128.191 124.094V133H125.361V108.565H128.191V115.735ZM160.219 124.351C160.219 125.787 160.026 127.063 159.64 128.177C159.276 129.27 158.74 130.203 158.032 130.974C157.347 131.746 156.5 132.336 155.492 132.743C154.506 133.129 153.403 133.322 152.181 133.322C151.045 133.322 149.995 133.129 149.03 132.743C148.066 132.336 147.23 131.746 146.522 130.974C145.815 130.203 145.258 129.27 144.85 128.177C144.465 127.063 144.272 125.787 144.272 124.351C144.272 122.444 144.593 120.836 145.236 119.529C145.879 118.2 146.801 117.192 148.001 116.506C149.202 115.799 150.627 115.445 152.277 115.445C153.842 115.445 155.214 115.799 156.393 116.506C157.593 117.192 158.525 118.2 159.19 119.529C159.876 120.836 160.219 122.444 160.219 124.351ZM147.197 124.351C147.197 125.702 147.369 126.881 147.712 127.888C148.076 128.874 148.634 129.635 149.384 130.171C150.134 130.707 151.088 130.974 152.245 130.974C153.403 130.974 154.356 130.707 155.107 130.171C155.857 129.635 156.403 128.874 156.746 127.888C157.111 126.881 157.293 125.702 157.293 124.351C157.293 122.98 157.111 121.811 156.746 120.847C156.382 119.882 155.825 119.143 155.074 118.628C154.346 118.093 153.392 117.825 152.213 117.825C150.455 117.825 149.18 118.403 148.387 119.561C147.594 120.718 147.197 122.315 147.197 124.351ZM172.998 115.445C175.055 115.445 176.609 115.949 177.66 116.957C178.71 117.943 179.235 119.55 179.235 121.779V133H176.438V121.972C176.438 120.579 176.127 119.539 175.506 118.853C174.884 118.168 173.909 117.825 172.58 117.825C170.672 117.825 169.354 118.36 168.625 119.432C167.896 120.504 167.532 122.047 167.532 124.062V133H164.703V115.767H166.985L167.403 118.114H167.564C167.95 117.514 168.422 117.021 168.979 116.635C169.558 116.228 170.19 115.928 170.876 115.735C171.562 115.542 172.269 115.445 172.998 115.445ZM106.741 166.33C105.81 166.33 104.947 166.178 104.151 165.874C103.366 165.56 102.686 165.121 102.11 164.556C101.535 163.99 101.085 163.31 100.76 162.515C100.446 161.709 100.289 160.814 100.289 159.83C100.289 158.857 100.467 157.957 100.823 157.13C101.189 156.293 101.692 155.571 102.33 154.964C102.968 154.346 103.727 153.865 104.606 153.519C105.496 153.174 106.469 153.001 107.526 153.001C108.531 153.001 109.452 153.174 110.289 153.519C111.137 153.854 111.864 154.336 112.471 154.964C113.079 155.592 113.549 156.345 113.884 157.224C114.219 158.093 114.387 159.061 114.387 160.128C114.387 160.725 114.324 161.29 114.198 161.824C114.073 162.358 113.89 162.891 113.649 163.425C113.408 163.959 113.115 164.508 112.77 165.074C112.435 165.639 112.048 166.241 111.608 166.879L105.643 175.623C105.486 175.874 105.224 176 104.858 176H103.476L110.195 166.612C110.52 166.162 110.818 165.738 111.09 165.34C111.362 164.932 111.608 164.54 111.828 164.163C111.21 164.854 110.457 165.388 109.567 165.764C108.688 166.141 107.746 166.33 106.741 166.33ZM112.911 159.846C112.911 159.019 112.775 158.266 112.503 157.585C112.241 156.895 111.864 156.308 111.373 155.827C110.891 155.335 110.321 154.953 109.661 154.681C109.013 154.409 108.296 154.273 107.511 154.273C106.673 154.273 105.904 154.409 105.203 154.681C104.502 154.943 103.9 155.314 103.398 155.796C102.906 156.277 102.518 156.853 102.236 157.522C101.953 158.192 101.812 158.93 101.812 159.736C101.812 160.573 101.938 161.327 102.189 161.997C102.45 162.666 102.817 163.237 103.288 163.708C103.759 164.168 104.319 164.524 104.967 164.775C105.627 165.016 106.359 165.136 107.165 165.136C108.076 165.136 108.887 164.979 109.599 164.665C110.321 164.351 110.928 163.943 111.42 163.441C111.912 162.939 112.283 162.373 112.534 161.745C112.785 161.118 112.911 160.484 112.911 159.846ZM133.634 164.618C133.634 166.607 133.419 168.334 132.99 169.799C132.561 171.254 131.975 172.457 131.232 173.41C130.499 174.362 129.636 175.074 128.641 175.545C127.657 176.005 126.6 176.235 125.47 176.235C124.35 176.235 123.293 176.005 122.299 175.545C121.315 175.074 120.452 174.362 119.709 173.41C118.976 172.457 118.395 171.254 117.966 169.799C117.547 168.334 117.338 166.607 117.338 164.618C117.338 162.63 117.547 160.908 117.966 159.453C118.395 157.988 118.976 156.779 119.709 155.827C120.452 154.875 121.315 154.168 122.299 153.708C123.293 153.237 124.35 153.001 125.47 153.001C126.6 153.001 127.657 153.237 128.641 153.708C129.636 154.168 130.499 154.875 131.232 155.827C131.975 156.779 132.561 157.988 132.99 159.453C133.419 160.908 133.634 162.63 133.634 164.618ZM132.032 164.618C132.032 162.776 131.854 161.201 131.498 159.893C131.143 158.585 130.666 157.517 130.07 156.69C129.484 155.853 128.788 155.246 127.982 154.869C127.187 154.482 126.349 154.289 125.47 154.289C124.591 154.289 123.754 154.482 122.958 154.869C122.173 155.246 121.477 155.853 120.87 156.69C120.274 157.517 119.798 158.585 119.442 159.893C119.086 161.201 118.908 162.776 118.908 164.618C118.908 166.471 119.086 168.051 119.442 169.359C119.798 170.657 120.274 171.725 120.87 172.562C121.477 173.389 122.173 173.991 122.958 174.367C123.754 174.744 124.591 174.932 125.47 174.932C126.349 174.932 127.187 174.744 127.982 174.367C128.788 173.991 129.484 173.389 130.07 172.562C130.666 171.725 131.143 170.657 131.498 169.359C131.854 168.051 132.032 166.471 132.032 164.618ZM145.784 158.716C145.784 159.647 145.654 160.469 145.392 161.18C145.141 161.892 144.795 162.489 144.356 162.97C143.916 163.441 143.409 163.797 142.833 164.037C142.257 164.278 141.645 164.399 140.996 164.399C140.337 164.399 139.714 164.278 139.128 164.037C138.542 163.797 138.034 163.441 137.605 162.97C137.176 162.489 136.836 161.892 136.585 161.18C136.344 160.469 136.224 159.647 136.224 158.716C136.224 157.774 136.344 156.947 136.585 156.235C136.836 155.513 137.176 154.916 137.605 154.446C138.034 153.964 138.542 153.603 139.128 153.362C139.714 153.122 140.337 153.001 140.996 153.001C141.666 153.001 142.289 153.122 142.864 153.362C143.44 153.603 143.942 153.964 144.372 154.446C144.811 154.916 145.156 155.513 145.408 156.235C145.659 156.947 145.784 157.774 145.784 158.716ZM144.56 158.716C144.56 157.889 144.466 157.182 144.277 156.596C144.099 156.01 143.843 155.529 143.508 155.152C143.184 154.765 142.802 154.482 142.362 154.304C141.933 154.126 141.478 154.037 140.996 154.037C140.515 154.037 140.06 154.126 139.63 154.304C139.201 154.482 138.825 154.765 138.5 155.152C138.186 155.529 137.935 156.01 137.747 156.596C137.558 157.182 137.464 157.889 137.464 158.716C137.464 159.542 137.558 160.249 137.747 160.835C137.935 161.421 138.186 161.902 138.5 162.279C138.825 162.646 139.201 162.918 139.63 163.096C140.06 163.273 140.515 163.362 140.996 163.362C141.478 163.362 141.933 163.273 142.362 163.096C142.802 162.918 143.184 162.646 143.508 162.279C143.843 161.902 144.099 161.421 144.277 160.835C144.466 160.249 144.56 159.542 144.56 158.716ZM154.419 153.535C154.482 153.451 154.56 153.383 154.654 153.331C154.748 153.279 154.869 153.252 155.015 153.252H156.099L139.756 175.717C139.62 175.906 139.432 176 139.191 176H138.108L154.419 153.535ZM158.077 170.6C158.077 171.531 157.946 172.353 157.684 173.064C157.422 173.776 157.077 174.367 156.648 174.838C156.219 175.309 155.711 175.665 155.125 175.906C154.55 176.147 153.937 176.267 153.288 176.267C152.629 176.267 152.006 176.147 151.42 175.906C150.834 175.665 150.327 175.309 149.898 174.838C149.468 174.367 149.128 173.776 148.877 173.064C148.636 172.353 148.516 171.531 148.516 170.6C148.516 169.658 148.636 168.831 148.877 168.119C149.128 167.397 149.468 166.795 149.898 166.314C150.327 165.832 150.834 165.471 151.42 165.231C152.006 164.99 152.629 164.87 153.288 164.87C153.958 164.87 154.581 164.99 155.157 165.231C155.743 165.471 156.25 165.832 156.679 166.314C157.119 166.795 157.459 167.397 157.7 168.119C157.951 168.831 158.077 169.658 158.077 170.6ZM156.852 170.6C156.852 169.773 156.758 169.061 156.57 168.465C156.381 167.868 156.125 167.381 155.8 167.005C155.486 166.628 155.11 166.35 154.67 166.173C154.241 165.995 153.78 165.906 153.288 165.906C152.807 165.906 152.347 165.995 151.907 166.173C151.478 166.35 151.101 166.628 150.777 167.005C150.463 167.381 150.211 167.868 150.023 168.465C149.835 169.061 149.741 169.773 149.741 170.6C149.741 171.426 149.835 172.133 150.023 172.719C150.211 173.295 150.463 173.771 150.777 174.148C151.101 174.524 151.478 174.802 151.907 174.98C152.347 175.147 152.807 175.231 153.288 175.231C153.78 175.231 154.241 175.147 154.67 174.98C155.11 174.802 155.486 174.524 155.8 174.148C156.125 173.771 156.381 173.295 156.57 172.719C156.758 172.133 156.852 171.426 156.852 170.6Z" fill="black"/>
</g>
</svg>
