<?xml version="1.0"?>
<svg width="640" height="480" xmlns="http://www.w3.org/2000/svg" xmlns:svg="http://www.w3.org/2000/svg">
 <!-- Created with SVG-edit - https://github.com/SVG-Edit/svgedit-->
 <g class="layer">
  <title>Layer 1</title>
  <path d="m218.85,125.25c-14.53,-20.43 17,-74.87 75.33,-74.2c58.33,0.66 81.72,62.87 69.07,76.65c-12.64,13.78 -129.87,17.99 -144.4,-2.44l0,-0.01z" fill="#e5e5e5" id="svg_4" stroke="#000000"/>
  <path d="m233.87,122.38c-18.43,-19.53 12.42,-58.2 59.12,-58.58c46.7,-0.38 66.4,46.42 56.5,58.26c-9.9,11.84 -97.19,19.85 -115.62,0.32z" fill="#000000" id="svg_6" stroke="#000000"/>
  <ellipse cx="263.17" cy="103.17" fill="#0e66ea" id="svg_14" rx="14.5" ry="9.5" stroke="#ffffff"/>
  <ellipse cx="310.33" cy="103.5" fill="#0e66ea" id="svg_15" rx="14.5" ry="9.5" stroke="#ffffff"/>
  <path d="m209.67,164.67c-17.56,11.78 11.33,179 71.33,180.33c60,1.33 96,-107.33 87,-179" fill="#e5e5e5" id="svg_17" stroke="#ffffff" transform="matrix(1 0 0 1 0 0)"/>
  <ellipse cx="288.17" cy="164.67" fill="#e5e5e5" id="svg_20" rx="81.5" ry="5" stroke="#7f7f7f" transform="matrix(1 0 0 1 0 0)"/>
  <path d="m200.67,161.65c-5.89,-1.98 -31.67,44.71 -31.67,76.24c0,31.53 8,73.14 32,68.23" fill="#e5e5e5" id="svg_21" stroke="#ffffff" transform="matrix(1 0 0 1 0 0)"/>
  <path d="m195.1,187.08c-4.05,-1.3 -21.77,29.28 -21.77,49.94c0,20.65 5.5,47.9 22,44.69" fill="#000000" id="svg_22" stroke="#ffffff"/>
  <path d="m375.64,161.98c5.71,-1.98 30.69,44.71 30.69,76.24c0,31.53 -7.75,73.14 -31.02,68.23" fill="#e5e5e5" id="svg_24" stroke="#ffffff" transform="matrix(1 0 0 1 0 0) rotate(0.202398 390.823 234.385)"/>
  <path d="m379.89,184.53c4.05,-1.3 21.77,29.28 21.77,49.94c0,20.65 -5.5,47.9 -22,44.69" fill="#000000" id="svg_23" stroke="#ffffff"/>
  <path d="m228,379c253,40 42,-35 279,-25c237,10 -422,114 -422,114c0,0 -33,-91 22,-117" fill="#e5e5e5" id="svg_2" stroke="#ffffff"/>
  <ellipse cx="288.66" cy="406.33" fill="#3f3f3f" id="svg_3" rx="81.5" ry="9.5" stroke="#7f7f7f"/>
  <line fill="none" id="svg_11" stroke="#000000" stroke-width="2" x1="222" x2="222" y1="312" y2="348"/>
  <line fill="none" id="svg_16" stroke="#000000" stroke-width="2" x1="319.67" x2="319.67" y1="335.83" y2="362.83"/>
  <line fill="none" id="svg_18" stroke="#000000" stroke-width="2" x1="279.66" x2="279.66" y1="347.83" y2="383.83"/>
  <line fill="none" id="svg_19" stroke="#000000" stroke-width="2" x1="257.66" x2="257.66" y1="334.83" y2="351.83"/>
  <line fill="none" id="svg_25" stroke="#000000" stroke-width="2" x1="344.66" x2="344.66" y1="317.83" y2="363.83"/>
 </g>
</svg>