<svg class="what_am_i" xmlns="http://www.w3.org/2000/svg" width="1321" height="556" viewBox="0 0 1321 556" fill="none">
<style>

    @keyframes sticker
    {
        from{
           /* transform:  scale(0.5);*/
           width:  0;
           opacity: 1;
        }
        to{
         /* transform:  scale(0.8);*/
            opacity:  1;
        }

    }
  .what_am_i
  {
    
    transform:  scale(0.9);

  }

  
 .left-part .right-part
 {
    transition:  transform 1s linear;
 }

@keyframes leftpart-vanish
{
    10%
    {
         transform:  rotate(15deg);

    }
    30%
    {
        transform:  rotate(45deg);
    }
    40%
    {
        transform:  rotate(30deg);
    }

    100%{
        transform:  rotate(45deg);
       
    }
}
@keyframes rightpart-vanish
{
    10%
    {
         transform:  rotate(-15deg);

    }
    30%
    {
        transform:  rotate(-45deg);
    }
    40%
    {
        transform:  rotate(-30deg);
    }

    100%{
        transform:  rotate(-45deg);
       
    }
}

/* .left-part:hover 
 {
    transform:  rotate(45deg);
    transition:  transform 0.5s linear;
 }*/

/* .right-part:hover
{
    transform:  rotate(-45deg);
    transition:  transform 0.5s linear;

} */

@keyframes vanishingparts 
{
   to
   {
       transform:  translateY(200%);
  }

}

 .left-part
  { 
    

     transform-origin:  44px 118px;
     /*animation:  leftpart-vanish 1.2s linear forwards 0.5s,vanishingparts 0.5s linear forwards 1.6s;*/

   /*  transform: rotate(45deg);
    transform-origin: 44px 118px;*/
   /* transform: rotate(-90deg);
transform-origin: 624px 41px;*/

   }

   .right-part
   {   
      transform-origin: 1219px 219px;
       /*animation:  rightpart-vanish 1s linear forwards 1.4s,vanishingparts 0.5s linear forwards 2.4s;*/
     /* transform: rotate(90deg);
    transform-origin: 660px 65px;*/
   }

  @keyframes  roundingtime
  {
     from
      {
        transform:  translateY(-100%);
     }
      to {
        transform: translateY(0%) rotate(360deg);
      }
  }

    @keyframes  roundingtime2
   {
     20% {
         transform:  rotate(-40deg);

     }

     50%
     {
        transform:  rotate(-90deg);
     }

     100%
     {

        transform: rotate(0deg) scale(0) ;

      }
    }

    @keyframes alltimeround
    {
        20%
        {
            transform:  rotate(360deg);
        }
        100%
        {
            transform:  rotate(0deg);
        }
        
    }
   .center-sticker
   {
        transform-origin:  652px 80px;
      /*  transform:  scale(0);*/

        /*animation:  roundingtime 0.2s ease-out forwards;*/
       /* animation:  alltimeround 1s linear infinite,roundingtime2 1.5s ease-out forwards 1.2s;*/

   }


   @keyframes comeout
  {
    from{
        opacity:  0;
    }
    to 
    {
        opacity:  1;
    }
  }
   .centerpieces
   {
    /*  opacity:  0;
      animation:  comeout 0.3s ease-in-out forwards 0.3s;*/
   }

 .greenpart-sticker
  { 
    opacity:  0;
  
    animation:  sticker 0.6s ease-out forwards 0.7s;

   }

  @keyframes  roundingtime
  {
     from {
        transform:  translateY(-100%);

     }
      to {

        transform: translateY(0%) rotate(360deg);

      }


  }
   .center-sticker
   {
        transform-origin:  652px 80px;
        transform:  scale(0);

        animation:  roundingtime 0.5s ease-out forwards;

   }
   
   

   @keyframes comeout
  {
    from{
        opacity:  0;
    }
    to 
    {
        opacity:  1;
    }
  }
   .centerpieces
   {
      opacity:  0;
      animation:  comeout 0.3s ease-in-out forwards 0.3s;
   }

</style>
<g class="whole_sticker">

<g>
<rect class="greenpart-sticker" x="601" y="148" width="601" height="148" rx="22.5233" transform="rotate(-180 601 148)" fill="#75DA91"/>
<path d="M159.544 42.9433H165.194L180.051 85.0023L192.675 42.9433H198.534L193.791 59.2647L203.068 85.4208L216.111 42.9433H221.761L205.788 94H200.627L191.071 67.9137L182.631 94H177.47L159.544 42.9433ZM248.608 94V42.9433H253.77V66.7279H278.182V42.9433H283.344V94H278.182V71.8894H253.77V94H248.608ZM310.176 94L328.939 42.9433H334.1L352.026 94H345.888L341.493 79.7711H321.127L316.523 94H310.176ZM323.01 74.6096H339.68L331.45 50.825L323.01 74.6096ZM376.432 48.1048V42.9433H411.865V48.1048H396.52V94H391.359V48.1048H376.432Z" fill="#121010"/>
<path class="centerpieces" d="M633.862 148C616.099 148 599.065 140.783 586.505 127.937C573.945 115.091 566.889 97.6673 566.889 79.5C566.889 61.3327 573.945 43.9094 586.505 31.0632C599.065 18.2169 616.099 11 633.862 11L633.862 79.5L633.862 148Z" fill="#D9D9D9"/>
</g>



<g>
<rect class="greenpart-sticker" width="614" height="148" rx="22.5233" transform="matrix(1 0 0 -1 706.471 148)" fill="#75DA91"/>
<path class="centerpieces" d="M671.34 148.136C688.67 148.136 705.289 140.912 717.543 128.053C729.797 115.194 736.681 97.7535 736.681 79.5681C736.681 61.3827 729.797 43.9421 717.543 31.0831C705.289 18.2241 688.67 11 671.34 11L671.34 79.5681L671.34 148.136Z" fill="#D9D9D9"/>
<path d="M907.75 103V51.9433H912.911V103H907.75ZM938.012 56.6863V52.8501C938.616 52.7571 939.732 52.6176 941.36 52.4316C942.987 52.1991 944.034 52.0596 944.499 52.0131C944.964 51.9666 945.963 51.8736 947.498 51.7341C949.079 51.5481 950.102 51.4551 950.567 51.4551C951.078 51.4551 952.194 51.4319 953.915 51.3854C955.635 51.2924 956.891 51.3156 957.681 51.4551C962.61 51.4551 966.144 52.6641 968.283 55.0821C970.469 57.4536 971.561 60.5458 971.561 64.3588V71.4035C971.561 75.9139 969.98 79.0759 966.818 80.8894C963.703 82.6564 959.634 83.1446 954.612 82.3541V89.3988H949.381V78.0994H959.285C961.238 78.0064 962.912 77.4019 964.307 76.2859C965.749 75.1699 966.47 73.5425 966.47 71.4035V64.3588C966.47 61.6618 965.726 59.7088 964.238 58.4998C962.75 57.2908 960.308 56.6863 956.914 56.6863H938.012ZM948.474 101.396V97.42C948.474 96.2575 949.032 95.6763 950.148 95.6763H953.984C955.054 95.6763 955.589 96.2575 955.589 97.42V101.396C955.589 102.465 955.054 103 953.984 103H950.148C949.032 103 948.474 102.465 948.474 101.396Z" fill="black"/>
</g>

<g class="center-sticker">

<ellipse cx="653" cy="80.3455" rx="74" ry="75.3455" fill="#7647FE"/>
<path d="M590.583 103L609.346 51.9433H614.507L632.433 103H626.295L621.901 88.7711H601.534L596.931 103H590.583ZM603.417 83.6096H620.087L611.857 59.825L603.417 83.6096ZM657.537 103L660.885 51.9433H668L681.601 94.4208L694.784 51.9433H701.828L705.734 103H700.573L697.434 61.2898L684.321 103H679.02L665.489 61.2898L662.699 103H657.537Z" fill="white"/>
</g>
</g>
</svg>