<svg width="363" height="560" viewBox="0 0 363 560" fill="none" xmlns="http://www.w3.org/2000/svg">
<g clip-path="url(#clip0_168_19)">
<path d="M81.5258 134.626C73.082 148.224 58.5534 38.8537 163.143 0C161.779 1.47178 135.821 48.7063 135.821 48.7063C135.821 48.7063 192.924 34.5852 217.508 16.2599C246.035 -5.00589 153.325 78.8242 228.941 68.8308C228.941 68.8308 280.155 55.7623 313.325 61.1965C357.595 68.4452 296.34 57.1729 286.54 89.3041C279.844 111.255 289.623 123.091 289.623 123.091L292.157 124.388C292.157 124.388 273.36 117.271 240.339 119.07C219.313 120.214 231.807 147.181 231.807 147.181C231.807 147.181 181.569 122.035 174.578 111.433C153.145 78.9251 81.5258 134.626 81.5258 134.626Z" fill="#BEBEBE" stroke="black" stroke-width="1.32482"/>
<path d="M78.1056 175.674C78.1056 158.744 68.2281 145.02 56.0436 145.02C43.8592 145.02 33.9817 158.744 33.9817 175.674V195.391C33.9817 212.321 43.8592 226.044 56.0436 226.044C68.2281 226.044 78.1056 212.321 78.1056 195.391V175.674Z" fill="#E73C3C" stroke="black" stroke-width="1.32482"/>
<path d="M122.977 225.843C135.174 225.843 145.061 217.264 145.061 206.682C145.061 196.1 135.174 187.521 122.977 187.521C110.78 187.521 100.893 196.1 100.893 206.682C100.893 217.264 110.78 225.843 122.977 225.843Z" fill="#D8D8D8" stroke="black" stroke-width="1.32482"/>
<path d="M230.95 225.843C244.051 225.843 254.672 217.693 254.672 207.64C254.672 197.587 244.051 189.437 230.95 189.437C217.848 189.437 207.228 197.587 207.228 207.64C207.228 217.693 217.848 225.843 230.95 225.843Z" fill="#D8D8D8" stroke="black" stroke-width="1.32482"/>
<path d="M181.018 222.009C170.691 209.619 171.673 236.751 162.492 257.616C157.907 268.038 157.863 269.993 184.634 271.309C204.453 272.285 203.165 259.265 199.554 251.564C199.249 250.909 207.888 266.468 181.018 222.009Z" fill="#D8D8D8" stroke="black" stroke-width="1.32482"/>
<path d="M121.681 219.989C125.798 219.989 129.135 216.238 129.135 211.611C129.135 206.985 125.798 203.234 121.681 203.234C117.564 203.234 114.227 206.985 114.227 211.611C114.227 216.238 117.564 219.989 121.681 219.989Z" stroke="black" stroke-width="1.32482"/>
<path d="M121.681 219.989C125.798 219.989 129.135 216.238 129.135 211.611C129.135 206.985 125.798 203.234 121.681 203.234C117.564 203.234 114.227 206.985 114.227 211.611C114.227 216.238 117.564 219.989 121.681 219.989Z" fill="#050505" stroke="url(#paint0_radial_168_19)" stroke-width="1.32482"/>
<path d="M232.656 221.951C236.772 221.951 240.109 218.042 240.109 213.221C240.109 208.4 236.772 204.491 232.656 204.491C228.539 204.491 225.202 208.4 225.202 213.221C225.202 218.042 228.539 221.951 232.656 221.951Z" fill="#090909" stroke="black" stroke-width="1.32482"/>
<path d="M363 198.106C363 198.106 359.663 198.106 355.546 198.106C351.429 198.106 348.092 198.106 348.092 198.106C348.092 198.106 351.429 198.106 355.546 198.106C359.663 198.106 363 198.106 363 198.106Z" stroke="black" stroke-width="1.32482"/>
<path d="M130.299 278.5C130.299 278.5 160.83 295.826 180.658 297.101C199.005 298.278 224.773 283.566 224.773 283.566C239.685 273.539 228.374 283.559 221.094 289.196C200.223 305.349 194.007 307.248 189.369 308.391C187.931 308.746 181.202 309.104 177.358 308.544C173.566 307.989 167.599 305.242 167.599 305.242C167.599 305.242 143.149 296.227 130.299 278.5Z" fill="#D8D8D8" stroke="black" stroke-width="0.662409"/>
<path d="M326.061 174.759C326.061 157.83 316.183 144.106 303.999 144.106C291.814 144.106 281.937 157.83 281.937 174.759V194.476C281.937 211.406 291.814 225.13 303.999 225.13C316.183 225.13 326.061 211.406 326.061 194.476V174.759Z" fill="#E73C3C" stroke="black" stroke-width="1.32482"/>
<path d="M52.3586 146.471C52.3586 146.471 110.721 21.7368 183.432 21.1493C255.599 20.5679 300.789 142.903 300.789 142.903" stroke="black" stroke-width="1.32482"/>
<path d="M43.7974 149.154C47.6065 140.232 117.739 2.20326 186.721 12.4659C262.06 23.6741 308.462 143.589 308.462 143.589" stroke="black" stroke-width="1.32482"/>
<path d="M57.8896 170.879C57.8896 167.836 56.204 165.368 54.1248 165.368C52.0456 165.368 50.3601 167.836 50.3601 170.879V200.633C50.3601 203.676 52.0456 206.144 54.1248 206.144C56.204 206.144 57.8896 203.676 57.8896 200.633V170.879Z" fill="#D8D8D8" stroke="black" stroke-width="1.32482"/>
<path d="M308.797 166.161C308.797 163.117 307.111 160.65 305.032 160.65C302.953 160.65 301.267 163.117 301.267 166.161V195.914C301.267 198.958 302.953 201.425 305.032 201.425C307.111 201.425 308.797 198.958 308.797 195.914V166.161Z" fill="#D8D8D8" stroke="black" stroke-width="1.32482"/>
<path d="M129.574 340.773L119.453 398.126C119.453 398.126 67.2273 422.247 18.6176 422.455C-12.979 422.589 3.76502 460.571 10.3592 525.889" stroke="black" stroke-width="1.32482"/>
<path d="M224.679 342.009L232.755 398.922C232.755 398.922 276.027 430.288 339.581 430.597C365.171 430.723 346.434 525.641 347.262 528.065" stroke="black" stroke-width="1.32482"/>
<path d="M12.7571 559.073C12.7571 559.073 71.339 544.594 99.4374 536.421C186.133 511.208 349.451 540.616 349.451 540.616" fill="#D8D8D8"/>
<path d="M12.7571 559.073C12.7571 559.073 71.339 544.594 99.4374 536.421C186.133 511.208 349.451 540.616 349.451 540.616" stroke="black" stroke-width="1.32482"/>
<path d="M118.243 397.101C118.243 397.101 149.155 439.7 170.539 440.728C193.862 441.848 230.715 398.778 230.715 398.778" stroke="black" stroke-width="1.32482"/>
<path d="M155.496 375.285C155.496 375.285 164.843 387.438 171.409 387.882C178.823 388.381 193.464 376.463 193.464 376.463" stroke="black" stroke-width="1.32482"/>
<path d="M21.3369 538.202C21.5067 537.486 -1.02419 451.814 11.5998 440.306C39.9202 414.49 119.627 417.418 119.627 417.418C119.627 417.418 150.749 445.633 171.931 446.502C195.481 447.466 233.85 417.418 233.85 417.418C224.766 404.497 298.981 449.932 342.395 443.176C361.203 440.251 339.557 521.281 339.557 521.281C339.557 521.281 283.29 525.032 255.226 523.071C199.068 519.145 138.493 472.572 88.0466 496.001C65.5862 506.432 21.3369 538.202 21.3369 538.202Z" fill="#C2D0E6"/>
<path d="M79.1194 131.371C79.1194 131.371 76.0627 218.129 97.7158 283.349C113.062 329.577 147.945 360.647 175.568 358.835C207.523 356.733 244.809 333.815 260.618 284.237C277.088 232.581 279.852 164.249 290.378 124.278" stroke="black" stroke-width="1.32482"/>
<path d="M93.2859 168.22L137.31 154.35L142.782 167.391L88.9335 178.865L93.2859 168.22Z" fill="#C2D0E6" stroke="black"/>
<path d="M258.916 181.538L214.734 169.553L212.669 156.086L265.436 175.2L258.916 181.538Z" fill="#C2D0E6" stroke="black"/>
</g>
<defs>
<radialGradient id="paint0_radial_168_19" cx="0" cy="0" r="1" gradientUnits="userSpaceOnUse" gradientTransform="translate(121.683 211.613) scale(7.45371 8.7297)">
<stop/>
<stop offset="1"/>
</radialGradient>
<clipPath id="clip0_168_19">
<rect width="363" height="559.073" fill="white"/>
</clipPath>
</defs>
</svg>
