<svg width="363" height="560" viewBox="0 0 363 560" fill="none" xmlns="http://www.w3.org/2000/svg">
<g clip-path="url(#clip0_168_57)">
<path d="M81.5258 134.626C73.082 148.224 58.5534 38.8537 163.143 0C161.779 1.47178 135.821 48.7063 135.821 48.7063C135.821 48.7063 192.924 34.5852 217.508 16.2599C246.035 -5.00589 153.325 78.8242 228.941 68.8308C228.941 68.8308 280.155 55.7623 313.325 61.1965C357.595 68.4452 296.34 57.1729 286.54 89.3041C279.844 111.255 289.623 123.091 289.623 123.091L292.157 124.388C292.157 124.388 273.36 117.271 240.339 119.07C219.313 120.214 240.339 134.626 240.339 134.626C240.339 134.626 179 119.07 176.5 110.498C174 101.926 81.5258 134.626 81.5258 134.626Z" fill="url(#paint0_linear_168_57)" stroke="black" stroke-width="1.32482"/>
<path d="M78.1056 175.674C78.1056 158.744 68.2281 145.02 56.0436 145.02C43.8592 145.02 33.9817 158.744 33.9817 175.674V195.391C33.9817 212.321 43.8592 226.044 56.0436 226.044C68.2281 226.044 78.1056 212.321 78.1056 195.391V175.674Z" fill="#E73C3C" stroke="black" stroke-width="1.32482"/>
<path d="M126 207.319C138.15 207.319 148 198.741 148 188.16C148 177.578 138.15 169 126 169C113.85 169 104 177.578 104 188.16C104 198.741 113.85 207.319 126 207.319Z" stroke="black" stroke-width="1.32482"/>
<path d="M124.709 201.466C128.81 201.466 132.134 197.715 132.134 193.089C132.134 188.462 128.81 184.711 124.709 184.711C120.608 184.711 117.284 188.462 117.284 193.089C117.284 197.715 120.608 201.466 124.709 201.466Z" fill="#050505" stroke="url(#paint1_radial_168_57)" stroke-width="1.32482"/>
<path d="M228.085 207.318C240.282 207.318 250.17 198.74 250.17 188.158C250.17 177.576 240.282 168.998 228.085 168.998C215.888 168.998 206 177.576 206 188.158C206 198.74 215.888 207.318 228.085 207.318Z" stroke="black" stroke-width="1.32482"/>
<path d="M231.428 200.812C235.545 200.812 238.882 197.06 238.882 192.432C238.882 187.804 235.545 184.052 231.428 184.052C227.312 184.052 223.974 187.804 223.974 192.432C223.974 197.06 227.312 200.812 231.428 200.812Z" fill="#090909" stroke="black" stroke-width="1.32482"/>
<path d="M326.061 174.759C326.061 157.83 316.183 144.106 303.999 144.106C291.814 144.106 281.937 157.83 281.937 174.759V194.476C281.937 211.406 291.814 225.13 303.999 225.13C316.183 225.13 326.061 211.406 326.061 194.476V174.759Z" fill="#E73C3C" stroke="black" stroke-width="1.32482"/>
<path d="M52.3586 146.471C52.3586 146.471 110.721 21.7368 183.432 21.1493C255.599 20.5679 300.789 142.903 300.789 142.903" stroke="black" stroke-width="1.32482"/>
<path d="M43.7974 149.154C47.6065 140.232 117.739 2.20326 186.721 12.4659C262.06 23.6741 308.462 143.589 308.462 143.589" stroke="black" stroke-width="1.32482"/>
<path d="M57.8896 170.879C57.8896 167.836 56.204 165.368 54.1248 165.368C52.0456 165.368 50.3601 167.836 50.3601 170.879V200.633C50.3601 203.676 52.0456 206.144 54.1248 206.144C56.204 206.144 57.8896 203.676 57.8896 200.633V170.879Z" fill="#D8D8D8" stroke="black" stroke-width="1.32482"/>
<path d="M308.797 166.161C308.797 163.117 307.111 160.65 305.032 160.65C302.953 160.65 301.267 163.117 301.267 166.161V195.914C301.267 198.958 302.953 201.425 305.032 201.425C307.111 201.425 308.797 198.958 308.797 195.914V166.161Z" fill="#D8D8D8" stroke="black" stroke-width="1.32482"/>
<path d="M129.575 306.998L119.454 364.351C119.454 364.351 67.2283 388.472 18.6186 388.68C-12.978 388.814 3.766 426.796 10.3602 492.114" stroke="black" stroke-width="1.32482"/>
<path d="M224.68 308.234L232.756 365.147C232.756 365.147 276.028 396.513 339.582 396.822C365.172 396.948 346.435 491.867 347.263 494.29" stroke="black" stroke-width="1.32482"/>
<path d="M12.7581 525.298C12.7581 525.298 71.34 510.819 99.4383 502.646C186.134 477.433 349.452 506.841 349.452 506.841" fill="#D8D8D8"/>
<path d="M12.7581 525.298C12.7581 525.298 71.34 510.819 99.4383 502.646C186.134 477.433 349.452 506.841 349.452 506.841" stroke="black" stroke-width="1.32482"/>
<path d="M118.244 363.326C118.244 363.326 149.156 405.925 170.54 406.953C193.863 408.073 230.716 365.003 230.716 365.003" stroke="black" stroke-width="1.32482"/>
<path d="M155.497 341.51C155.497 341.51 164.844 353.663 171.41 354.107C178.824 354.606 193.465 342.688 193.465 342.688" stroke="black" stroke-width="1.32482"/>
<path d="M21.3379 504.427C21.5077 503.711 -1.02322 418.039 11.6008 406.531C39.9212 380.715 119.628 383.643 119.628 383.643C119.628 383.643 150.75 411.858 171.932 412.727C195.482 413.691 233.85 383.643 233.85 383.643C224.767 370.722 298.982 416.157 342.396 409.401C361.203 406.476 339.558 487.506 339.558 487.506C339.558 487.506 283.291 491.258 255.227 489.296C199.069 485.37 138.494 438.797 88.0476 462.226C65.5872 472.657 21.3379 504.427 21.3379 504.427Z" fill="url(#paint2_linear_168_57)"/>
<path d="M79.1479 130.104C79.1479 130.104 76.0971 204.796 97.7085 260.946C113.025 300.744 147.841 327.493 175.411 325.933C207.304 324.123 244.519 304.393 260.297 261.71C276.735 217.238 279.494 158.409 290 123.998" stroke="black" stroke-width="1.32482"/>
<path d="M148.607 149.354C123.263 137.531 96.332 151.239 86.9999 173Z" fill="#C2D0E6"/>
<path d="M148.607 149.354C123.263 137.531 96.332 151.239 86.9999 173" stroke="black" stroke-width="1.32482"/>
<path d="M206 148.708C232.05 138.641 259.73 150.311 269.321 168.838Z" fill="#C2D0E6"/>
<path d="M206 148.708C232.05 138.641 259.73 150.311 269.321 168.838" stroke="black" stroke-width="1.32482"/>
<path d="M180.826 196.119C170.499 183.73 171.481 210.861 162.301 231.726C157.715 242.148 157.671 244.103 184.442 245.419C204.261 246.395 202.611 236.202 199 228.5C198.694 227.845 199 226.5 180.826 196.119Z" stroke="black" stroke-width="1.32482"/>
<path d="M128.091 259C128.091 259 158.622 276.325 178.45 277.601C196.797 278.778 222.565 264.066 222.565 264.066C237.477 254.039 226.166 264.059 218.886 269.696C198.015 285.848 191.799 287.747 187.161 288.891C185.723 289.246 178.994 289.604 175.15 289.043C171.358 288.489 165.391 285.741 165.391 285.741C165.391 285.741 140.941 276.727 128.091 259Z" stroke="black"/>
</g>
<defs>
<linearGradient id="paint0_linear_168_57" x1="202.431" y1="0" x2="202.431" y2="135.789" gradientUnits="userSpaceOnUse">
<stop stop-color="#8966F3"/>
<stop offset="1" stop-color="#6496E0"/>
</linearGradient>
<radialGradient id="paint1_radial_168_57" cx="0" cy="0" r="1" gradientUnits="userSpaceOnUse" gradientTransform="translate(124.711 193.09) scale(7.4253 8.7292)">
<stop/>
<stop offset="1"/>
</radialGradient>
<linearGradient id="paint2_linear_168_57" x1="236.129" y1="381.317" x2="235.169" y2="502.959" gradientUnits="userSpaceOnUse">
<stop stop-color="#6FB1FF"/>
<stop offset="1" stop-color="#916AFF"/>
</linearGradient>
<clipPath id="clip0_168_57">
<rect width="363" height="559.073" fill="white"/>
</clipPath>
</defs>
</svg>
